<?xml version="1.0" encoding="utf-8"?>
<!-- Generator: Adobe Illustrator 22.0.0, SVG Export Plug-In . SVG Version: 6.00 Build 0)  -->
<svg version="1.1" id="Layer_1" xmlns="http://www.w3.org/2000/svg" xmlns:xlink="http://www.w3.org/1999/xlink" x="0px" y="0px"
	 viewBox="0 0 190.8 190.8" style="enable-background:new 0 0 190.8 190.8;" xml:space="preserve">
<style type="text/css">
	.st0{fill:#073256;}
</style>
<g>
	<path class="st0" d="M180.4,104.4c-0.8-0.1-3.1,0.1-5-0.6c-11.2-4.4-22.6-0.7-33.9-1.3c-17.8-1-27.3,11.6-38.7,21.2
		c-2.6,2.2-4.8,3.9-8.3,3.6c-8.4-0.6-13.4,2.8-16.2,11.2c-2.7,8-3.4,8.6-11.2,5.4c-13.6-5.7-27.6-10.5-39.9-19.2
		c-6-4.3-13-7.4-19.2-11.6c-10-6.9-10.7-16.7-1.4-24.5c10-8.3,18.1-18.6,28.2-26.7c6.8-5.4,13.8-10.5,21.2-14.9
		c3.8-2.3,6.6-2.1,9,2.2c3.7,6.5,10.7,9.9,15.3,15.6c1.4,1.8,3.1,0.3,4.5-0.4c4.7-2.3,8.6-1.5,12.9,1.7c7.6,5.7,15.7,10.6,23.3,16.3
		c3.8,2.8,9,4.5,14,1.4c1.6-1,2.5-0.8,3.7,0.7c4,5,8.4,6,13.7,3c2.2-1.2,3.7-1.5,4.5,1.3c0.9,3.2,3.4,4.6,6.3,4.8
		c2.9,0.2,2.6-3,4-4.5c0.2-0.2,0.3-0.6,0.5-0.9c1.6-2.2,2.1-6,5.5-5.7c3.5,0.3,3.5,3.9,4.1,6.7c0.6,2.9,2.7,4.6,5.3,5.4
		c1.6,0.5,3.1,1.2,4.2,2.5c1.4,1.7,4.9,2.4,3.7,5.2c-1,2.3-4,2-6.3,2.1C183.5,104.4,182.6,104.4,180.4,104.4z"/>
</g>
</svg>
