<?xml version="1.0" encoding="utf-8"?>
<!-- Generator: Adobe Illustrator 22.0.0, SVG Export Plug-In . SVG Version: 6.00 Build 0)  -->
<svg version="1.1" id="Layer_1" xmlns="http://www.w3.org/2000/svg" xmlns:xlink="http://www.w3.org/1999/xlink" x="0px" y="0px"
	 viewBox="0 0 217.9 217.9" style="enable-background:new 0 0 217.9 217.9;" xml:space="preserve">
<style type="text/css">
	.st0{fill:#073256;}
</style>
<g>
	<path class="st0" d="M217.9,91c-3,1.4-6.3,2.3-8,5.6c-1.4,2.6-4.2,0.5-6.3,1.8c-8.9,5.5-18.1,10.5-26.4,17c-3.9,3-4.9,6.1-1.5,10
		c0.3,0.4,0.6,0.8,0.8,1.2c1.2,2.3,4.5,4.8,2.6,6.9c-2.3,2.4-5.6-0.1-8.2-1.5c-4.8-2.6-8.1-6.9-11.4-11c-4.1-5.1-11.8-3.9-14.1,2
		c-1.4,3.5-4.1,1.6-5.7,0.7c-4.3-2.3-8.9-2.8-13-1.1c-6.7,2.7-12.9,6.8-20.5,3.3c-12.9,3.6-26.1,4.9-39.5,4.4
		c-3.4-0.1-3.5,2.2-2.9,4.8c0.6,2.6,3.3,6.1,0.5,7.7c-2.6,1.5-5-2.2-6.5-4.3c-6.7-9.1-15.8-12.2-26.7-13.8
		c-9.4-1.4-18.4-5.5-27.6-8.5c-1.5-0.5-3.5-1.1-3.3-3.2c0.2-1.8,2-2.1,3.4-2.5c17.2-5.1,34.4-10.4,52.3-12.8c5.5-0.7,9.6-3,12.8-7.6
		C71.8,85.3,75,80,80.3,76.8c1.8-1.1,3.8-3.1,5.9-1.6c1.8,1.3,0.8,3.7,0.6,5.6c-0.3,2-0.6,3.9-0.8,5.9c-0.7,6,2.2,10.1,8,10.9
		c11.8,1.7,23.7,3.3,35.6,4.9c3,0.4,5.9,0.2,8.7-1.5c2.3-1.4,4-1.1,5.8,1.4c3.3,4.9,11,6.2,16.5,3.6c16.2-8,33.8-12,51.1-16.9
		c2.1-0.6,4.3-0.2,6.3,0.7C217.9,90.4,217.9,90.7,217.9,91z M69.1,111.3c20.2,4.1,40.3,5.4,61.9,1.3
		C109.4,108.4,89.2,110.6,69.1,111.3z M47.1,118.6c7.7,1.9,15.7,3.2,23.8,3.4c1.1,0,2.7,0.2,2.7-1.4c0.1-1.2-1.3-1.6-2.2-1.4
		c-6.6,1-12.1-3.1-18.2-4.1C49.8,114.5,47.5,114.3,47.1,118.6z"/>
</g>
</svg>
