<?xml version="1.0" encoding="utf-8"?>
<!-- Generator: Adobe Illustrator 22.0.0, SVG Export Plug-In . SVG Version: 6.00 Build 0)  -->
<svg version="1.1" id="Layer_1" xmlns="http://www.w3.org/2000/svg" xmlns:xlink="http://www.w3.org/1999/xlink" x="0px" y="0px"
	 viewBox="0 0 416.5 416.5" style="enable-background:new 0 0 416.5 416.5;" xml:space="preserve">
<style type="text/css">
	.st0{fill:#073256;}
</style>
<g>
	<path class="st0" d="M300.4,196.6c-18.1,0.4-36.1,2.3-55.5,2.4c4.9,3.4,9.3,1.6,13.3,2c-4.3,8-9.9,10.1-15.7,6.2
		c-1-0.6-2.2-1.1-1.8-2.6c0.9-2.9-1.5-3.5-3.1-3.2c-7.7,1.4-16.1,0.6-22.3,6.9c-2.9,2.9-6.4,5.3-9.6,8c-2.3,2-5,2.9-7.9,2
		c-13.5-4.4-26.7-0.6-40,0.8c-3.3,0.4-6.6,0.9-9.9,1.4c-0.9,0.1-2.3,0.2-2.2,1.5c0,1.2,1.2,1.4,2.2,1.5c1.8,0.2,3.6,0.2,5.4,0.6
		c-12.2,2-24.4,4.8-36.9,3.2c-3.5-0.4-5.2,0.7-6.4,3.9c-2.4,6.2-2.3,12.8-3.6,19.1c-0.4,2.1-0.2,4.8-2.6,5.6
		c-2.3,0.8-3.9-1.4-5.4-2.9c-7.3-7.3-12-16.3-16.4-25.5c-1.8-3.8-4.2-6-8.3-7.1c-7.7-2-15.2-5.1-23.4-3.6c-0.2,0-0.4,0-0.5,0
		c-10.6-5.3-22.7-7.6-32.1-15.5c-2.1-1.8-4.2-3.2-6.7-4.1c-3-1.1-5.9-2.4-8.2-4.7c-1.6-1.5-3.3-3.1-2.6-5.5c0.7-2.4,2.8-3.1,5-3.5
		c9.5-1.8,19.1-2.9,28.7-3.9c12.7-1.2,25.5-2.7,38.1-4.6c11.4-1.6,22.7-3.2,34.3-1.9c9.4,1,18.9-0.2,28.4-0.6
		c24-0.9,48,0.4,71.9,1.3c7.3,0.2,13.8-0.7,19.6-5.5c3.5-2.8,7.5-5,11.4-7.2c2.9-1.6,4.8-0.8,4.9,2.9c0,1.7,0,3.3,0.2,5
		c0.5,5.8,2.7,8.4,8.5,9.3c9.5,1.6,19.1,3.2,28.6,4.7c4.6,0.8,8.9-0.4,13.1-2.2c24.2-10.2,49.5-15.5,75.6-17.5
		c9.5-0.7,18.9-1.7,28.3-2.6c5.9-0.6,11.6,0.2,17.1,2.6c1.2,0.5,2.7,1.2,2.6,2.7c-0.1,1.6-1.7,2-3,2.2c-5.4,1-9.2,4.5-12.6,8.4
		c-2.5,2.9-4.4,3.1-6.6-0.2c-2.7-4.2-5.5-5.1-10.2-2c-7.5,4.9-16.8,5-25.1,8c-11.1,4-22.1,8.3-32.3,14.5c-5.6,3.4-7.8,7.8-7,14.2
		c0.5,4.5-1,5.5-5.1,3.3c-5.8-3-10.8-7.2-15.5-11.8C295.3,199.2,295.4,198.8,300.4,196.6z"/>
</g>
</svg>
