<?xml version="1.0" encoding="utf-8"?>
<!-- Generator: Adobe Illustrator 22.0.0, SVG Export Plug-In . SVG Version: 6.00 Build 0)  -->
<svg version="1.1" id="Layer_1" xmlns="http://www.w3.org/2000/svg" xmlns:xlink="http://www.w3.org/1999/xlink" x="0px" y="0px"
	 viewBox="0 0 581.6 581.5" style="enable-background:new 0 0 581.6 581.5;" xml:space="preserve">
<style type="text/css">
	.st0{fill:#073256;}
</style>
<g>
	<path class="st0" d="M416,280.6c6.3-16.1,18-27.9,31-38.5c18-14.7,37.9-27.1,56.1-41.6c17.6-13.9,34.3-29,47.4-47.6
		c9-12.7,17.8-25.4,22.7-40.3c4.8-14.6,3.7-29.6,1.7-44.5c-0.4-3-1.8-5.8-3.8-8.1c-5.1-6.1-4.4-13.7-5.7-20.9
		c-0.2-0.9-0.1-2.1,1.1-2.5c1.2-0.3,1.9,0.5,2.4,1.4c2.5,4.1,4.6,8.4,6.2,13.1c7.9,23.6,7.6,47.5,4.4,72
		c-2.8,21.3-8.9,41.5-18.7,60.2c-11.7,22.5-27.6,42.3-44.5,61.2c-8.3,9.3-17.6,17.6-26.4,26.4c-7.4,7.3-13.8,15.5-18.6,24.6
		c-4.3,8.3-0.6,16.2,3.2,23.6c1.6,3.3,3.9,6.2,5.7,9.4c2.5,4.3,1.6,6.1-3.3,6.6c-14.6,1.2-26.6-4.3-37.1-14c-1.3-1.2-2.5-2.7-3.8-4
		c-2.6-2.8-4.7-1.5-6.3,1c-3.2,5.1-7.5,8.2-13.6,8.8c-0.7,0.1-1.4,0-2,0.2c-12,3.3-22.2,10.1-33.7,15.5c1,0.6,1.2,0.9,1.4,0.9
		c10.5-1.3,10.8-1.2,9.6,9.2c-1.8,15.5,7.1,24.5,18.6,32c2.5,1.7,7.3,2.3,6.7,5.6c-0.6,3.5-5.3,2.3-8.3,2.8
		c-11.8,2.1-22.2-2.4-32.8-6.6c-11.1-4.4-21.3-10.2-31-17c-2.6-1.8-5.1-1.9-8-0.4c-22.7,11.6-45.4,23.1-68.2,34.6
		c-3,1.5-4.2,3.8-3.6,6.9c2.7,14.8,7,28.9,16.8,40.9c6.3,7.7,11.1,16.5,17.1,24.5c8.9,12,17.7,24.2,28.8,34.4
		c6.5,6,11.9,13.1,16.8,20.4c2.3,3.5,5.7,7.9,2.7,11.8c-3.2,4.3-8.1,0.9-11.9-0.6c-22.7-9.1-41.7-24.1-60.9-38.7
		c-12.9-9.8-25-20.4-36.5-31.8c-12.7-12.7-25.7-25.2-38.8-37.5c-4.7-4.5-8.9-5.5-14.6-2.8c-4.3,2.1-8.8,3.9-13.4,5.6
		c-2.8,1.1-31.7,11.7-48.5,15.7c-19.3,4.6-38.7,6-58.4,1.7c-8.1-1.8-16.6,0.7-24.9,0.5c-9.9-0.2-19.6-1.4-29-4.5
		c-10.4-3.4-12.8-8.6-8.7-18.7c4.6-11.5,13.1-20,22.9-27.1c3.4-2.5,6.7-4.8,9.5-8c4.2-4.7,8.9-8.4,15.2-10.8"/>
</g>
</svg>
