<?xml version="1.0" encoding="utf-8"?>
<!-- Generator: Adobe Illustrator 22.0.0, SVG Export Plug-In . SVG Version: 6.00 Build 0)  -->
<svg version="1.1" id="Layer_1" xmlns="http://www.w3.org/2000/svg" xmlns:xlink="http://www.w3.org/1999/xlink" x="0px" y="0px"
	 viewBox="0 0 147.4 147.4" style="enable-background:new 0 0 147.4 147.4;" xml:space="preserve">
<style type="text/css">
	.st0{fill:#073256;}
</style>
<g>
	<path class="st0" d="M73.6,83.5c0.3-0.3,0.6-0.2,0.9-0.3c0.3-0.1,0.7-0.1,0.6-0.6c0-0.4-0.4-0.6-0.8-0.6c-0.2,0-0.3,0-0.5,0
		c-2.8,0.7-5.6,0.9-8.4,1.4c-0.4,0.1-0.8,0.1-1,0.4c-0.5,1.3-1.6,1-2.5,1.2c-3.6,0.5-7.2,0.6-10.8,1.2c-2.2,0.4-4.3,2.9-4,5.2
		c0.5,3.7,1.1,7.4,1.7,11.1c0.1,0.5,0.1,1,0.1,1.5c0,0.4-0.1,0.9-0.5,1.1c-0.5,0.2-0.7-0.2-1-0.5c-2.2-2.2-4.1-4.7-5.7-7.4
		c-2-3.4-3.5-7.1-5.2-10.7c-0.4-0.8-0.7-1.2-1.7-1.2c-3.1,0-6.1-0.8-9.1-1.4c-1.9-0.4-3.8-0.3-5.7-0.4c-2.3-0.1-4.4-0.5-6.6-1.1
		c-1.4-0.4-1.5-0.8-0.5-1.8c0.5-0.5,0.2-0.6-0.3-0.7c-2.8-0.7-5.7-1.4-8.5-2.1c-1.2-0.3-2.3-0.7-3.4-1.3c-0.4-0.2-1-0.4-0.9-1
		c0.1-0.5,0.6-0.6,1-0.7c3.1-0.9,6.3-1.7,9.5-2.4c5.4-1.1,10.6-2.6,15.9-4c4.4-1.2,8.9-2.1,13.3-3.2c1.5-0.3,2.9-0.8,4.4-1.2
		c2.9-0.9,5-2.7,6.4-5.4c1.4-2.6,2.6-5.4,4.7-7.7c1-1.1,1.9-2.3,3-3.2c0.3-0.3,0.7-0.6,1.1-0.8c0.8-0.4,1.8-1.1,2.6-0.6
		c0.7,0.4,0.3,1.5,0.2,2.3c-0.2,2.8-0.1,5.7,0,8.5c0.1,2.1,1.2,3.4,2.8,4.5c2.5,1.8,5.2,2.9,8.4,3.1c6.6,0.3,13.2,1.1,19.9,1
		c2,0,3.8-0.5,5.3-1.8c0.2-0.2,0.4-0.3,0.6-0.4c1.8-1.3,1.7-1.3,3,0.5c1.4,2,3.3,3.1,5.9,3.3c2.7,0.1,4.8-0.6,7-2.2
		c7.6-5.5,15.4-11,23.3-16.1c1.3-0.8,2.4-2,3.5-3c1.5-1.4,3.1-2.6,4.7-3.7c0.8-0.6,0.9,0.1,1,0.6c0.1,0.8-0.3,1.6-0.6,2.3
		c-0.7,1.3-1.2,2.6-1.4,4.1c-0.1,0.8-0.5,1.2-1.4,1c-1.1-0.2-2,0.4-2.6,1.2c-1.4,2.2-3.1,4-4.8,5.8c-4,4.3-8.1,8.6-11.8,13.2
		c-1.8,2.2-1.9,3.4,0,5.7c0.1,0.1,0.2,0.2,0.3,0.4c0.7,1.9,2,3.4,3,5.2c0.2,0.3,0.4,0.7,0.1,1.1c-0.3,0.4-0.7,0.3-1.1,0.2
		c-4.1-1-7.8-2.7-10.6-6.2c-2.8-3.6-4.1-4.2-9.6-2.3c-1.4,0.5-2,1.9-3.1,2.7c-0.5,0.4-0.1,1.1,0.3,1.6c0.3,0.4,0.8,0.8,0.4,1.3
		c-0.4,0.6-1,0.6-1.6,0.5c-1.6-0.4-3-1.1-4.4-1.8c-0.8-0.4-1.5-0.6-2.4-0.4c-1.3,0.3-2.7,0.5-4,0.5c-2.1,0.1-3.6,1.2-5,2.6
		c-0.6,0.6-0.9,1.3-1.1,2.1c-0.2,1.1-0.9,1.4-1.9,1.2c-1-0.3-2.1-0.5-3.1-0.9c-2.1-0.9-4.2-1-6.5-0.5C74.1,83.6,73.9,83.7,73.6,83.5
		z"/>
</g>
</svg>
