<?xml version="1.0" encoding="utf-8"?>
<!-- Generator: Adobe Illustrator 22.0.0, SVG Export Plug-In . SVG Version: 6.00 Build 0)  -->
<svg version="1.1" id="Layer_1" xmlns="http://www.w3.org/2000/svg" xmlns:xlink="http://www.w3.org/1999/xlink" x="0px" y="0px"
	 viewBox="0 0 471.1 471.1" style="enable-background:new 0 0 471.1 471.1;" xml:space="preserve">
<style type="text/css">
	.st0{fill:#073256;}
</style>
<g>
	<path class="st0" d="M114.7,191c14.3-0.3,28.7,0.1,42.9,1.9c10.3,1.3,17.8-3.1,24.9-9.8c9.7-9.2,20.4-17.2,33.5-21
		c2.9-0.9,5.9-1.3,8.9-1.2c6.8,0.2,8.4,2.9,6.1,9.3c-3.6,10-4.5,20-0.9,30.3c3.6,10.4,11.6,16,21.4,19.3
		c20.8,7.2,42.1,12.5,62.4,21.2c4.8,2.1,9.1,2.2,13.8-0.3c5.4-2.9,11-5.5,16.7-8c3.6-1.6,5.3-0.4,5.1,3.1
		c-0.6,9.1,5.2,17.1,14.4,19.9c4.4,1.4,8.7,2.7,13.3-0.2c12.9-7.8,27.6-11.5,41.1-18c14.4-6.9,28.8-13.9,43.3-20.6
		c2.9-1.3,6.6-4.6,9-2.1c1.9,2-1.7,5.5-2.6,8.4c-1.7,5.3-5.8,9.3-8.1,14.3c-1,2.1-2.8,2.9-5,2.3c-3.1-0.8-4.7,0.7-6.6,3.1
		c-6.5,8.2-15.4,13.7-23.6,19.9c-6.1,4.6-12.7,8.6-19.1,12.8c-3.6,2.4-5.6,5.4-5.5,9.9c0.1,6.2,0,12.3-0.2,18.5
		c-0.2,6.1-3.2,7.7-8.4,4.3c-6-3.9-10.4-9.4-14.3-15.2c-2.6-3.9-5.1-7.9-7.1-12c-1.6-3.3-4-4.6-7.4-5c-11.4-1.3-19.9,4.1-23.4,15.1
		c-0.9,2.7-2.4,2.4-4.2,1.7c-3.6-1.4-6.5-4.1-9.3-6.6c-1.9-1.7-3.6-3.5-5.4-5.2c-3.3-3.1-6.4-5.4-11.7-4c-4.4,1.1-9.3,0-13.9,0.1
		c-6.8,0.1-12.4,2.5-15.9,8.5c-2,3.5-4.4,4-7.8,2.1c-6-3.3-12-6.5-16.6-11.8c-3.7-4.3-9-4.4-13.8-4.6c-31.6-1.8-63-5.6-94.4-9.3
		c-5.1-0.6-5.5-0.1-4.5,5c1.5,7.3,0.8,8-6.4,6.3c-8.5-1.9-15.3-7.1-20.8-13.2c-5.1-5.7-11.2-7.7-18.2-9
		c-19.7-3.6-38.8-9.6-57.9-15.4c-4.3-1.3-8-3.9-11.3-7.1c-4.4-4-10.3-5.2-15.7-7.3c-4.9-2-7.7-6.2-10.6-9.9c-2.4-3,1-5.3,4-6.6
		c9.3-3.9,19.1-5.9,28.9-7.8C60.4,191.7,87.6,191.4,114.7,191z"/>
</g>
</svg>
