<?xml version="1.0" encoding="utf-8"?>
<!-- Generator: Adobe Illustrator 24.0.2, SVG Export Plug-In . SVG Version: 6.00 Build 0)  -->
<svg version="1.1" id="Layer_1" xmlns="http://www.w3.org/2000/svg" xmlns:xlink="http://www.w3.org/1999/xlink" x="0px" y="0px"
	 viewBox="0 0 841.9 595.3" style="enable-background:new 0 0 841.9 595.3;" xml:space="preserve">
<style type="text/css">
	.st0{fill:#073256;}
</style>
<g>
	<path class="st0" d="M379.1,223c43.8,4.2,85.7,8.1,127.9,12.1c11.7,1.2,22.6-0.2,32.9-6.3c12.5-7.3,14.1-6.5,24.4,4.4
		c2,2.2,4.6,4.6,7.3,5c16.3,2.6,31.5,10.7,48.2,11.5c2.8,0.2,5.2,0.2,7.3-2c16.7-18.4,39.5-27.6,61.1-38.1
		c39.5-19.4,80.1-36.3,122.8-47.6c2.2-0.6,4.6-1,6.9-1.2c2-0.2,4.4-0.6,5.4,1.4c1.2,2.4-1,3.6-2.6,4.6c-7.7,5-12.7,12.9-20,18.4
		c-18.2,13.9-36.9,27-55.1,40.9c-18.6,14.5-37.9,27.8-54.7,44.4c-6.3,6.3-8.5,12.3-4.2,20.6c4.4,8.7,8.1,17.7,11.9,26.6
		c1.6,3.6,4.6,7.7,1.4,11.3c-3.6,4-8.5,0.8-12.1-0.8c-21.2-9.9-41.8-21.8-56.1-39.9c-11.7-14.9-24.4-15.7-39.7-12.1
		c-9.5,2.2-18.8,5-28,8.3c-4.4,1.4-9.3,3.4-5,10.1c3,4.6-0.4,5.8-4.2,6.1c-9.5,0.2-17.7-3.8-25.4-8.5c-10.9-6.9-23.2-12.3-35.3-6.7
		c-13.7,6.3-28.2,11.7-36.7,26.8c-8.3,14.9-15.7,15.9-27.2,3.2c-12.9-14.3-26-17.1-45-13.7c-28.6,5-57.9,7.7-87.1,7.5
		c-13.7,0-27.4,1.4-41.1,1.6c-5.6,0.2-8.3,3-10.3,7.9c-5.8,13.3-3.2,26.4-0.4,39.5c3.8,19.2,8.3,38.1,12.1,57.1
		c1.4,6.3,1.6,12.7,0.4,19c-1.2,6.1-4.8,7.7-10.3,4.2c-3.8-2.4-6.3-5.8-8.9-9.5c-20.6-29.9-36.3-62.1-48.4-96
		c-6.7-18.8-14.7-31.5-37.9-31.7c-18.6-0.2-38.5-3-55.1-10.7c-18.8-8.7-38.3-11.5-57.3-17.1c-4.8-1.4-9.7-3-14.3-4.6
		c-3.8-1.4-8.7-2.6-8.3-7.5c0.4-5,5.4-5.6,9.3-6.3c30.9-5.2,61.5-11.1,92.4-15.1c49.2-6.3,98.4-15.7,148-16.7
		c25.4-0.6,40.9-11.5,55.9-29.2c9.1-10.7,19.2-20.8,32.7-26.2c10.7-4.4,13.7-2.8,15.9,8.3c1.6,8.1-0.6,16.1-0.6,24
		c0,7.5,1,13.9,9.1,17.3C386.8,219.4,385.4,221.6,379.1,223z"/>
</g>
</svg>
