<?xml version="1.0" encoding="utf-8"?>
<!-- Generator: Adobe Illustrator 22.0.0, SVG Export Plug-In . SVG Version: 6.00 Build 0)  -->
<svg version="1.1" id="Layer_1" xmlns="http://www.w3.org/2000/svg" xmlns:xlink="http://www.w3.org/1999/xlink" x="0px" y="0px"
	 viewBox="0 0 697.3 697.3" style="enable-background:new 0 0 697.3 697.3;" xml:space="preserve">
<style type="text/css">
	.st0{fill:#073256;}
</style>
<g>
	<path class="st0" d="M5.4,311.4c4.6,3.1,7.7,8.6,15.2,8c-3.9-1.9-7.5-2.8-10-5.9c-2.2-2.7-2.2-4.9-0.7-7.6c2.5-4.5,1.8-5.8-3.5-5.5
		c-3.5,0.2-4.9-2.5-6-4.3c-1.3-2.3,1.7-3.2,3.4-3.8c7.4-2.6,15.2-3.7,22.8-5.3c32.8-6.8,66.2-9.3,99.5-12.8
		c15-1.6,30.2-2.1,45.3-3.1c19.8-1.3,39.5-2.6,59.3-3.8c13.5-0.8,27,0.7,40.4,1.1c25.6,0.6,50.6,5.6,75.7,9.6
		c19.4,3.1,38.2,9.2,56.8,15.5c22.7,7.7,44.7,17,65.3,29.4c4.5,2.7,9,2.9,13.8,0.4c8.8-4.5,18-7.9,27.7-9.8c1.1-0.2,2.3-0.4,3.5-0.5
		c8.2-0.4,9.9,1.5,6.4,8.6c-4.8,9.5-2.7,18,2.3,26.5c1.2,2.1,3.2,2.8,5.1,3.7c16.7,7.6,34.3,11.5,52.5,13.3
		c28.2,2.7,56.3,5.4,84.6,6.1c6.5,0.2,13,0.2,19.4-0.8c3.5-0.5,6.8-1.6,9.5-4.1c0.8-0.7,1.7-2,3-1c1,0.8,0.7,2.2,0.2,3.3
		c-2.1,5.3-6,9.5-9,14.3c-2.7,4.4-5.9,8.4-12,4.2c-1.2-0.8-2.6,0.1-3.7,0.8c-13.8,7.9-28.7,13.4-43.7,18.2c-5.5,1.8-11.3,2.9-17,4.1
		c-14.3,3-27,9.4-38.2,18.6c-2,1.6-3.7,1.9-5.8,0.5c-8.3-5.7-15.6-12.4-19.6-22c-1.3-3.2-2.6-6.5-3.9-9.7c-0.6-1.6-1.5-2.9-3-3.9
		c-9.4-6-20.8-3.2-25.9,6.6c-1.7,3.2-3.6,6.4-4.2,10.1c-0.6,3.8-2.7,4.1-5.7,2.5c-7.8-4.2-14.2-9.8-18.3-17.8
		c-2.1-4.2-3.8-4.3-6.8-0.4c-5,6.5-10,12.8-14.8,19.4c-2.3,3.2-5,3.4-8.3,2.1c-5.3-2.2-10.3-4.9-14.2-9.1c-3-3.3-6.4-3.9-10.3-2.3
		c-7.3,2.9-14.2,3.4-20.5-2.5c-1.8-1.7-4.5-1.3-6.7-0.8c-20,4.5-40.3,4.5-60.6,3c-3-0.2-3.7,0.7-3.1,3.7c1.8,9.2-0.1,11.1-9.4,8.3
		c-9.6-2.8-19.2-5.7-28.3-9.8c-10.1-4.6-20.8-4.1-31.3-5.5c-16.8-2.3-33.7-4.4-50.5-6.5c-20.7-2.6-40.7-8.4-61.1-12.4
		c-13.4-2.6-26.9-4.7-40.3-7.1c-3.4-0.6-6.9-1.4-10.2-2.4C95,368.2,80.2,362.1,65.4,356c-6.5-2.7-12.5-6.9-18.1-11.4
		c-1.4-1.1-3.3-2.5-3.6-4c-1.3-5.8-5.8-7.1-10.5-9.1C22.6,326.7,11.7,322.2,5.4,311.4z M414.6,369.1c-1.6,4.2-5.1,4.8-8,6.6
		c-3.7,2.3-5.8,3.3-8.2-1.1c-0.3-0.5-2-0.1-2.8-0.5c-5.8-2.7-13.7-1-17.4-8.3c-0.7-1.3-3-1.9-4-0.6c-2.7,3.3-6.3,2.5-9.7,3.2
		c-2.5,0.5-3.8-2.3-6.1-1.5c-4.9,1.9-9.1-0.5-13.3-2.5c-3.6-1.7-7.1-3.6-10.7-5.3c-2.6-1.2-5.2-2.6-7.5,0.6
		c-0.6,0.8-1.7,1.2-2.7,0.8c-1.2-0.6-1.5-1.6-1.3-2.9c0.1-0.8,1.3-1.8-0.1-2.6c-1.6,0.2-2.8,2.2-4.6,1.1c-3.4-2.1-4.4,0.6-5.4,2.8
		c-0.7,1.5-1,3.2-1.9,4.6c-2.2,3.3-0.8,4.5,2.5,4.7c2.2,0.1,4.3,0.1,6.5,0.1c4.9,0,8.2,2.7,10.1,6.9c1.7,3.8,3.1,6.9,7.9,8.3
		c4.2,1.2,7.9,2.6,12.4,1.7c5.7-1.1,11.3-2.8,16.9-4.6c2.5-0.8,5.3-1.5,6.9,0.7c3.3,4.6,7.6,4.7,12.5,3.8c2.9-0.5,6,0.4,8.7-1.3
		c0.8-0.5,2.4-0.6,2.6,0.5c1.1,5.2,5.2,3.7,8.3,3.6c4.9-0.2,9.8,0,14.7-0.9c1.5-0.3,3.5,0.7,4.5-1.1c1.1-2-0.7-3.3-1.4-5
		C422,375.9,414.7,375.9,414.6,369.1z M514.3,381.2c-11.2-2.6-21.4-4.5-31.9-4.6c-4,0-6.6,1.9-8.9,4.5c-2.6,2.8-1.8,4.2,1.9,5.2
		c3.9,0.9,8.2-0.2,11.6,2.2c1.9,1.4,3.5,1.6,5.5,1.2c3.5-0.6,7-2.4,10.6-0.1c0.9,0.5,2.4,0,2.6-0.9
		C506.7,384.7,510.9,384.3,514.3,381.2z M42.4,320.2c-0.3-0.4-0.4-1-0.8-1.2c-3.8-2.6-7.4-6.4-11.6-7.4c-4.7-1.1-7.4-4.7-11.6-6.1
		c-0.9-0.3-1.2-2.6-2.7-1.1c-1.4,1.3-0.7,2.6,0.4,3.9c2.3,2.6,4.2,5.5,6.1,8.4c1,1.5,1.7,5.5,4.5,4.6c4.1-1.3,7.5-0.3,11,1.3
		C40.3,323.8,41.3,322,42.4,320.2z M103.3,349c12.2,4.1,23.7,2.9,34.7,4.8c0.8,0.1,1.9,0,2-1c0.2-1.3-1-1.4-2-1.7
		c-1.9-0.5-3.9-0.2-5.7-1.4c-4.3-3-9.2-4.3-14.2-3.1C113.6,347.6,108.7,346,103.3,349z M219.5,372.7c-2-0.4-3.5-0.5-4.9-1
		c-1.7-0.7-3-2-1-3.7c4-3.1,2.3-7,1.5-10.7c-0.1-0.7-0.8-1.7-1.4-1.9c-1.2-0.3-1.6,1-1.9,1.9c-1.3,2.9-2.6,5.8-3.7,8.7
		c-1,2.6-2.6,5.3-0.5,8c2.3,3,5.1,1.3,7.7,0.5C216.5,374.1,218,374.5,219.5,372.7z M178.9,369.2c1.7-3,3.2-5.6,4.7-8.1
		c2.9-4.9,8.9-7.7,9.5-14.2c0.2-1.7,0.6-2.5-1.5-3.3c-1.8-0.7-2.4-0.8-3.2,1.1c-2.5,6-5.8,11.6-9,17.2
		C178.4,363.8,176.9,365.9,178.9,369.2z M191.2,360.7c2.4-2.6,7.2-1.6,8.2-5.5c0.8-3.1,1.9-6,2.7-9.1c0.4-1.5,1.8-3.5-0.4-4.4
		c-2.3-0.9-3.2,1.2-3.9,2.9C195.5,349.9,193.4,355.3,191.2,360.7z"/>
</g>
</svg>
