<?xml version="1.0" encoding="utf-8"?>
<!-- Generator: Adobe Illustrator 22.0.0, SVG Export Plug-In . SVG Version: 6.00 Build 0)  -->
<svg version="1.1" id="Layer_1" xmlns="http://www.w3.org/2000/svg" xmlns:xlink="http://www.w3.org/1999/xlink" x="0px" y="0px"
	 viewBox="0 0 701.9 701.9" style="enable-background:new 0 0 701.9 701.9;" xml:space="preserve">
<style type="text/css">
	.st0{fill:#073256;}
</style>
<g>
	<path class="st0" d="M362.1,305.6c13.5,0,27,0,40.5,0c14.8,0.1,26.8-6.9,38.5-14.7c9.5-6.3,19.7-11.1,30.7-14.3
		c7.2-2.1,9.5,0.1,7.6,7.4c-1.4,5.5-3.1,10.9-2.5,16.7c0.3,2.8,0.8,5.6,2.3,8.1c3,5.2,6.5,8.9,13.3,9.8c14.4,1.7,28.7,3.7,43.1,5.1
		c2.9,0.3,5.6,0.1,8.2-1.5c20.2-12.3,43-17.2,65.8-21.1c26.5-4.5,52.5-11,78.2-18.6c3-0.9,5.8-2.5,8.8-3.7c3.1-1.2,4.9,0.2,5.2,3.3
		c0.3,3,0.3,6-0.8,8.9c-2.3,5.9-3.8,6.6-9.6,4.4c-6.2-2.4-6.7-2.5-8.1,3.9c-2.3,10.7-11.6,14.2-19.1,19.2
		c-13,8.7-27.8,14.3-41.5,21.9c-9.9,5.5-19.3,12.3-27.1,21c-3.8,4.2-7.4,8.6-11.4,12.6c-5,4.8-8.6,10.6-11.7,16.7
		c-0.9,1.8-1.7,4-3.9,4.2c-2.2,0.2-2.6-2.2-3.6-3.6c-0.8-1.1-1.5-2.2-2.3-3.3c-6.2-8.2-12.8-16.2-18-25.1c-2.6-4.6-6.3-7.2-12.3-6.2
		c-7,1.1-14.3,0.9-21.4,1.4c-1.4,0.1-4.7-1.1-2.9,2.8c0.5,1.1-1.3,1.7-2.3,2.3c-7.8,4.8-15.6,9.7-21.2,17.2
		c-1.4,1.9-3.2,1.6-4.9,0.4c-3-2.1-6.6-3.8-8.7-6.6c-5.8-7.3-13.4-8.1-21.6-7.2c-6.5,0.6-12.9,1.3-19.3,2.3
		c-9.9,1.5-17.1,9.8-17.9,20.4c-0.5,6.7-2.1,7.9-8.6,6.2c-10.8-2.9-21.8-5.1-32.1-9.5c-12.4-5.4-24.9-2.8-37.4-0.9
		c-17.4,2.7-34.8,5.7-52.3,8.5c-4.7,0.8-5.3,1.9-3.1,6.2c3.1,5.8,9,8.8,13.5,13.2c1.4,1.4,3.7,2.4,2.7,4.8c-0.9,2.2-3.3,1.8-5.3,1.9
		c-13.1,0.7-25.8-1.1-38.6-4c-10.7-2.4-21.4-4.9-31.7-8.7c-4.3-1.6-8.7-1.6-13.2-0.2c-21,6.1-42.5,9.9-64,13.3
		c-20.7,3.3-41.4,6.8-62.5,5.5c-9.8-0.6-19.6-1.5-29-4.9c-3.5-1.3-6.8-2.8-8.1-6.8c-0.8-2.3-3.1-2.3-4.9-2.9c-9.2-3-18.9-4-27.5-8.9
		c-1.4-0.8-3-1.4-4.4-2.4c-8-5.9-7.5-12.7,1.1-17.6c16.1-9.2,33.6-15.2,50.9-21.7c21.6-8,44-13.3,66.2-19.1
		c16.5-4.4,32.9-9.4,49.9-12.5c14.5-2.7,28.8-7,43.3-9.9c16.5-3.3,33-6.2,49.8-7.4c24.7-1.7,49.5-3.3,74.3-4.1
		C348.1,307.3,355.1,306.7,362.1,305.6z M356.9,372.6c-1.2-1.3-1.5-3.7-3.9-1.9c-1.7,1.3-3.8,1-5.8,0.9c-6.8-0.2-13.6-1-20.2,1.2
		c-0.9,0.3-2.2,0.3-2.1,1.7c0.1,1.2,1,1.6,2.1,1.7c5.6,0.6,11.1-1,16.9,0.8c5.4,1.7,11.5,0.9,17.3,1.7c7.8,1.1,15.6,0.1,23-3.2
		c-0.6-2.4-3.1-0.5-3.7-2.3c0.1-0.2,0-0.4,0.1-0.5c4.1-2.2,9.8-0.5,13-5.2c0-0.1,1,0.2,1.2,0.5c1.4,2.2,3.3,0.9,5,0.9
		c5,0,9.2-3.4,14.7-2.1c7.3,1.7,12.6-6,20-5.9c1.7,0,3.7-2.3,2.8-4.5c-0.9-2.1-2.8-0.9-4.2,0c-0.3,0.2-0.6,0.4-0.9,0.3
		c-8.2-1.6-16,0.9-23.8,2.9c-2.4,0.6-5.2-0.7-7.7,1.9c-1.3,1.4-5.7-2.5-8.5,0.7c-2.7-4.3-3.7,0.7-5.9,1.2c-0.6-3.3-2.7-3.3-5.5-3.1
		c-4.2,0.3-7.9,4-11.5,3.1c-4.8-1.3-4.2,0.7-4,3.7c0,0.1-0.5,0.3-0.7,0.5c-1.2-0.7-0.5-2.7-2.2-3.1
		C360.6,367,358.9,369.6,356.9,372.6z M475.4,356.9c-1.4-1.7-3-1.7-4.4-1.8c-8.4-0.9-16.7,2.1-25.2-0.1c-2.5-0.6-6,0-6.1,3.5
		c-0.1,2.7,3.3,2.8,5.3,3.1C455.7,363.5,465.2,359.3,475.4,356.9z M104,409.8c-10.6-0.3-20.8-1.1-30.8,1.9c-1.2,0.4-3.1-0.3-3.3,1.4
		c-0.2,1.7,1.7,2.5,3,2.8c1.4,0.4,2.9,0.2,4.4,0.1c6.8-0.7,13.5-1.7,20.3-2C100.9,413.9,102.6,412.9,104,409.8z M100,405.8
		c2.9-0.4,5.6-0.7,5-3.9c-0.4-2.1-1.3-5.9-3.6-4.9c-2.7,1.2-4.6-0.1-6.7,0.2c-1.6,0.2-5.3,0-3.3,3.3
		C93.2,403.6,96.8,405.1,100,405.8z"/>
</g>
</svg>
