<?xml version="1.0" encoding="utf-8"?>
<!-- Generator: Adobe Illustrator 22.0.0, SVG Export Plug-In . SVG Version: 6.00 Build 0)  -->
<svg version="1.1" id="Layer_1" xmlns="http://www.w3.org/2000/svg" xmlns:xlink="http://www.w3.org/1999/xlink" x="0px" y="0px"
	 viewBox="0 0 338 338" style="enable-background:new 0 0 338 338;" xml:space="preserve">
<style type="text/css">
	.st0{fill:#073256;}
</style>
<g>
	<path class="st0" d="M340.8,193.6"/>
	<path class="st0" d="M147.7,106c-0.4,5-0.6,9.5-1.1,13.9c-0.9,7.3,1.7,12.3,6.8,17.1c6.9,6.6,15.2,6.2,23.2,7.5
		c14.8,2.4,29.7,4.3,44.5,6.8c4.9,0.8,9.3-0.2,13.6-2.3c3.9-2,7.3-2.3,10.7,1.6c2.2,2.6,5.1,5.1,8.1,6.1c4.5,1.5,8.5,3,13.1-3
		c11.6-15.2,27.6-25.2,42.3-36.4c8-6.1,16-12,24.1-17.9c1.2-0.8,2.4-2.9,3.9-1.6c1.3,1.2-0.1,3.1-0.5,4.6c-0.7,2.7-1.6,5.4-2.3,8.1
		c-1.1,4.2-2,8.3-7.3,8.7c-2.3,0.2-3.6,3-4.9,4.9c-9.4,14.2-19,28.3-28.9,42.1c-3.6,5.1-3.4,7.9,0.5,12.7c2.5,3.1,5.1,6.1,7.5,9.3
		c1,1.3,2.7,2.8,1.9,4.7c-1.1,2.2-3.4,1.9-5.3,1.7c-6.1-0.7-11.8-3.1-17.1-6.3c-6-3.6-12.1-7-16.5-13c-1.2-1.7-2.9-2-4.8-2.3
		c-5.3-0.7-9.1,3-13.3,5.4c-1.9,1.1-1.6,3.3-1.3,5.4c0.7,4.4-0.3,5.4-4.4,4.2c-3.4-1-6.5-2.9-9.2-5.3c-3.8-3.4-8-4.4-12.8-3.2
		c-4.9,1.3-10.3,0.9-13.9,6.3c-2,3-5.8,4.5-7.8,7.5c-2.8,4-5.6,3.9-8.4,1c-5.3-5.5-11-5.7-17.6-3.7c-18.2,5.5-36.9,7.1-55.7,8.1
		c-4,0.2-4.9,2.5-5,6c-0.2,6.7,1.4,13.1,2.2,19.7c0.7,6.6,1.5,13.1,2.2,19.7c0.2,1.6,0.2,3.5-1.5,4.3c-1.6,0.7-2.9-0.3-4.1-1.4
		c-3-2.8-5.5-6.1-7.7-9.7c-6.9-11.5-13.6-23.1-18.6-35.8c-1.7-4.3-4.1-6.7-8.5-7.8C62,191,49.9,189.1,38.4,185
		c-10.7-3.8-20.8-9.7-31.5-13.4c-1.7-0.6-4.1-1.6-4.1-4.1c0.1-2.6,2.6-3,4.4-3.6c23.1-8.5,46.8-15,70.8-19.6
		c8.6-1.7,17.3-3.4,26-4.9c4.9-0.9,8.6-3.3,11.7-7.7c6.3-8.9,13.1-17.4,20.7-25c1.4-1.4,3-2.8,4.6-4c1.5-1,3.1-2.6,5-1.4
		C147.8,102.4,147.5,104.7,147.7,106z M114.3,184.7c5-1.2,8.2,1.4,11.3,2.5c5.5,2,10.5-1.4,15.7-0.3c1.6,0.3,4.1-1.4,4.6,1
		c0.5,2.3-2.2,2.1-3.7,2.6c-1.1,0.4-2.4,0.5-3.6,0.5c-6.8,0.4-13.6,0.7-20.4,1.1c-1.8,0.1-3.9-0.3-5.4,1.2c0.5,1.6,1.4,1.6,2.3,1.6
		c6.3-0.3,12.6-0.2,18.8-1.2c6.1-1,12.2-2.1,18.3-2.8c3.8-0.4,7.8-0.5,11.1-2.1c5.7-2.6,11.3-4.4,17.4-3.8c2.4,0.2,4.2-0.9,5.4-4
		c-6.2,0.5-11.9-0.4-17.5-0.9c-9.6-1-19.5-0.9-29.3-1.2c-4.6-0.1-9.1,2.1-13.3,0.8C121.1,178,118.3,180.5,114.3,184.7z M60.1,171.4
		c-3,5.1-6.5,6.4-10.5,5.7c-9.1-1.6-18.1-3.3-27-5.7c-5.6-1.5-11.4-2.5-17.1-3.7c10.9,7.4,23.7,8.7,35.8,13.3
		c-2.1,1.7-3.9-0.8-5.8,0.9c10.8,4.1,21.9,6,32.7,8.7c3.2,0.8,4.6-2.4,5.3-4.9c0.8-2.8-2-2.7-3.5-3.4c-1.1-0.5-2.3-0.8-3.5-0.9
		C59.8,180.7,59.7,180.6,60.1,171.4z M237.4,169.7c-8.6-1.4-16.3-0.4-24,0.3c-0.9,0.1-1.9,0.7-1.7,1.9c0.2,1.1,1.3,1.2,2.2,1.3
		c4.8,0.2,9.7,0.2,14.4-1.1C231.1,171.2,234.3,173,237.4,169.7z"/>
	<path class="st0" d="M117.8,432.5C115.3,434.7,120.8,431.4,117.8,432.5c-0.1-0.3-0.1-0.6,0-0.9
		C118.4,430.3,117.8,432.2,117.8,432.5z"/>
</g>
</svg>
