<?xml version="1.0" encoding="utf-8"?>
<!-- Generator: Adobe Illustrator 22.0.0, SVG Export Plug-In . SVG Version: 6.00 Build 0)  -->
<svg version="1.1" id="Layer_1" xmlns="http://www.w3.org/2000/svg" xmlns:xlink="http://www.w3.org/1999/xlink" x="0px" y="0px"
	 viewBox="0 0 464.5 464.5" style="enable-background:new 0 0 464.5 464.5;" xml:space="preserve">
<style type="text/css">
	.st0{fill:#073256;}
</style>
<g>
	<path class="st0" d="M0,218.4c0.1-2.2,2.4-2.8,4.2-3.4c18.9-6.4,38.2-11.1,57.7-15.1c14.9-3.1,29.8-6,44.8-8.7
		c8.7-1.6,17.7-1.7,26.5-2.3c5.5-0.4,11-0.5,16.5-1.3c4.7-0.7,7.6-3.7,10.3-7.2c8.7-11.5,18.2-22.3,30.2-30.6c2.8-2,5.8-3.3,8.9-4.7
		c2.7-1.2,4,0,4.4,2.8c0.9,5.2,0.6,10.5,0.7,15.8c0.1,3.6,0.6,7.1,1.2,10.7c0.9,5.6,4.6,8.7,8.9,11.4c0.7,0.5,2.1,0.4,2.1,1.6
		c-0.1,1.1-1.7,0.5-2.3,1.5c4.1,0.9,8.2,0.6,12.2,0.8c25.5,1.2,51,2.3,76.4,3.8c5.5,0.3,10.2,0,14.6-3.9c3.5-3.1,7.7-2.5,11.7,0.1
		c3.8,2.5,7,5.8,10.5,8.7c0.6,0.5,1.7,1.2,0.8,2c-1.2,1.1-0.3,0.8,0.4,0.9c4.1,0.8,8.4,0.8,12.3,2.5c1.1,0.5,2-0.4,2.9-1.1
		c19.6-16.8,43-27.4,65-40.2c10.7-6.2,21.5-12.1,32.7-17.4c2.7-1.3,5.5-2.3,8.5-2.7c0.9-0.1,2.1-0.4,2.5,0.8
		c0.3,0.9-0.5,1.6-1.1,2.1c-5.1,3.7-8.3,8.8-10.8,14.5c-0.9,2.1-2,4.1-2.1,6.4c-0.2,3.1-1.8,4.8-4.9,4.3c-4.5-0.6-7,1.6-9.5,5
		c-9.6,13.4-20.5,25.6-32,37.3c-3.7,3.8-7.7,7.3-7,13.5c0.4,2.9,1.6,5.6,2.9,8.1c2.7,5.2,5.6,10.3,8.4,15.5c0.7,1.2,2,2.4,1,3.9
		c-1,1.7-2.9,1.2-4.3,0.9c-6.1-1.3-12-3.1-17.7-5.8c-9.3-4.4-17.6-10.2-25.7-16.5c-4.2-3.3-8.6-5.4-14.2-4.4
		c-2.5,0.5-5.3,0.1-8.8,0.1c3,1.3,1.8,2.2,0.6,3.1c-1.7,1.1-3.5,2-5.2,3.2c-2,1.5-2.3,3.2,0,4.9c1.4,1.1,2.8,2.3,4.1,3.5
		c1.8,1.7,0.3,2.9-3.7,2.5c-0.9-0.1-1.8-0.3-2.6-0.6c-5.2-1.5-10.4-3.2-15.4-5.3c-7-3-14.2-4-21.7-1.9c-2.1,0.6-4.2,0.9-6.3,1.4
		c2.5,0.5,2.6,1.7,1.3,3.8c-2.5,4-5,7.8-8.2,11.3c-2.8,3.1-5.6,3.4-8.9,1.7c-3.5-1.8-7.3-3.3-10.4-5.6c-4.2-3.1-8.5-3.4-13.2-2.4
		c-15,3-30,6.4-45.3,7.9c-12,1.2-23.9,3.8-36.1,3.5c-3.9-0.1-7.8,1-11.8,0.2c-1.8-0.4-2.5,0.7-2.9,2.4c-1.2,5.5-0.1,11,0.8,16.4
		c2.2,12.8,7.3,24.8,9,37.8c0.3,2.3,1,4.7-1.6,6.1c-2.4,1.3-4.3-0.1-6.2-1.5c-6.2-4.5-9.6-11.2-14-17.2c-6-8.2-11.1-17-15.9-25.9
		c-2.5-4.8-4.6-9.8-6.3-14.9c-1.2-3.4-2.8-5.6-7.1-6 M91.9,253.1c52.6,8.9,30.8,5.1,17.6,1.9c5.9,1.2,6.2,0.8,4.2-4.7
		c-1.5-4.2-2.6-8.7-7.3-11c-3-1.4-6.1-0.6-9.1-1c-6.4-0.8-12.6-2.5-18.8-4.1c-3.5-0.9-6.6-2.9-10.7-2c-1.5,0.4-3.8-1.1-5.7-1.8
		c-12.7-4.2-26-5.3-39.2-6.8c-4.7-0.5-8.8-2.9-13.5-3c-1.3,0,6.7,6,12.1,8.5c4.8,2.2,9.5,2.9,14.6,0.8c2.9-1.2,5.8-0.5,9.1,0.6
		c-1.6,1.8-3.5,1.7-5.1,2.1c-2.8,0.8-5.6,1.4-8.1,2.8c-0.5,0.3-0.7,2.1-1.7,0.6c-0.6-0.9,0.3-1.5,1.1-1.8c1.9-0.7,3.9-1.3,5.8-1.9
		c0.9-0.3,1.8-0.5,3.4-1.1c-2.2-0.7-3.7-0.3-5.1,0.1c-4.9,1.3-9.5,1.2-14.3-1.1 M111.6,256.4 M252.5,243c1.6,0,2.9,0.4,4.2,0.2
		c5.6-0.6,11-1.9,16.5-3c13.7-2.7,27.6-4.7,41.4-7c4.2-0.7,8.8-1.3,11.8-3.9c2.8-2.2,5.2-2.1,8.1-2.3c6.9-0.4,13.9-0.9,20.8-1.5
		c0.6,0,1.2-0.2,1.7-0.5c1.4-1,0.4-2.6,0.7-3.9c0-0.2-1.3-0.4-2,0.1c-2.3,1.7-5.4,2.2-8.3,2c-10.8-0.7-21.6,0.8-32.3,1.1
		c-8.3,0.3-16.5,1.8-24.7,2.7c-4.8,0.5-9.7,0.4-14.3,2.6c-1.4,0.7-3.2,0.7-4.9,0.7c-1.9,0-3.8,0.4-5.6,0.8
		c-6.3,1.4-12.4,3.5-18.9,3.9c-4.4,0.2-9,0.1-13.1,0.9c-6.2,1.2-12.4,1.9-18.7,2.8c-7.5,1-15,1.1-22.5,0.9
		c-7.3-0.1-14.5-0.7-21.8-0.4c-6.5,0.3-13.1,0.2-19.5-0.8c-2.1-0.3-4.2-0.3-6.4-0.4c1,1.1,2,1.5,3.1,1.8c9.3,3,10.4,5,7.3,14.5
		c-0.9,2.9,0.6,3.5,2.8,3.4c8-0.2,16.2,0.2,24-0.9c11.7-1.7,23.6-2.5,35.2-4.8c11.2-2.2,22.4-4.1,33.6-6.3
		C252.1,245.8,254.6,245.9,252.5,243z M416.4,180.4c1.6-1.4,4.3-2,6.8-2.9c1.8-0.6-0.6-2.3-0.5-3.7c0.1-1.3-1-0.9-1.8-0.7
		c-2.6,0.6-4.8,2-6.4,4.1c-0.6,0.7-2.5,0.4-1.7,2.1C413.2,180.4,414.4,180.4,416.4,180.4z"/>
</g>
</svg>
