<?xml version="1.0" encoding="utf-8"?>
<!-- Generator: Adobe Illustrator 22.0.0, SVG Export Plug-In . SVG Version: 6.00 Build 0)  -->
<svg version="1.1" id="Layer_1" xmlns="http://www.w3.org/2000/svg" xmlns:xlink="http://www.w3.org/1999/xlink" x="0px" y="0px"
	 viewBox="0 0 387.1 387.1" style="enable-background:new 0 0 387.1 387.1;" xml:space="preserve">
<style type="text/css">
	.st0{fill:#073256;}
</style>
<g>
	<path class="st0" d="M228.8,201.6c-1.5,7.1-6.8,11.5-11.5,16.3c-1.9,2-5.1,0.7-6.9-0.9c-7.7-6.8-15.8-5.7-25-3
		c-17.6,5.1-36,3.9-54.1,3.5c-4.3-0.1-5.9,1.4-6.7,5.3c-1.9,9.8,1,18.8,3.8,27.9c1.3,4,3.1,7.7,4.7,11.6c0.6,1.4,1,2.9-0.3,4.2
		c-1.3,1.3-2.8,0.8-4.2,0.4c-5.2-1.8-9.1-5.5-12.4-9.7c-8.6-11-14.9-23.3-20.4-36c-1.6-3.8-3.6-6-8.1-6.6c-15.1-2.2-30.6-3-45.2-7.9
		c-12.8-4.3-25.9-7.9-38.4-13.3c-1.9-0.8-4.4-1.7-4.1-4.4c0.3-2.3,2.5-3,4.4-3.6c6.7-1.9,13.5-3.7,20.2-5.5
		c24.9-6.7,49.2-15.8,74.5-20.9c5.6-1.1,11-2.5,16.6-3.5c6.6-1.2,11.6-4.4,15.8-9.6c5.3-6.6,11-12.9,16.7-19.2
		c2.8-3.1,6.3-5.5,10.5-6.5c4.4-1,6.5,0.9,5.8,5.3c-0.4,2.3-0.9,4.6-1.5,6.8c-2.9,9.8,0.9,17.2,8.5,23.1c0.4,0.3,0.7,0.7,1,1.1
		c0.1,0.1,0,0.3,0.1,0.7c-1.2,1.5-3.1,0.4-4.8,1.1c22.2,4.1,44.2,8.5,66.3,11.8c5.6,0.8,11,0.9,16-1.9c5.2-2.8,9.8-2.1,14.1,2.1
		c1.4,1.4,3.3,2.2,4.9,3.4c3.2,2.3,0.2,2.1-1.8,2.8c5.3,0.9,10,1.6,14.6,2.5c1.5,0.3,2.5-0.2,3.5-1.2c14.3-15,32.6-24.1,50.5-33.7
		c13.6-7.3,26.6-16,41.5-20.7c3.1-1,7.3-3.7,9.2-0.9c2,2.9-2.8,4.8-4.5,7.3c-2,3-4.6,5.6-7.1,8.4c-1.5,1.7-3.1,3.1-5.6,2.6
		c-1.7-0.3-2.7,0.8-3.9,1.8c-16.3,12.6-29.9,27.9-43.3,43.4c-7.6,8.8-7.8,9.9-2.3,20.2c2,3.6,4.6,7,6.8,10.5c1,1.5,2.1,3.2,0.9,5.1
		c-1.1,1.6-2.9,1.4-4.6,1.3c-7.4-0.5-13.9-3.7-19.6-8c-7.3-5.5-14.5-11.1-21.3-17.2c-1.7-1.5,0.2-4.9,2.5-5.1
		c4.4-0.4,5.4-5.8,9.8-5.9c0.8,0,1.2-1.6,0.6-2.6c-0.7-1-1.9-0.6-2.7-0.1c-4.1,2.6-8.3,4.9-13.1,5.9c-4.2,0.8-8.9,3.1-12.6,2.1
		c-7.7-2.2-15.5-1.5-23.1-2c-18.9-1.3-37.6-4.7-56.6-4.1c-6.8,0.2-13.5,0.2-20.3,0.2c-1.2,0-2.5,0.2-2.8,1.5
		c-0.3,1.2,0.8,1.8,1.6,2.2c2.3,1.2,4.8,2.3,7.1,3.8c-8.7,0-16.6,4-25.7,2.7c-8-1.1-16.4,0.2-24.6,0.9c-4.2,0.3-7.6-2.1-11.7-2
		c-3.2,0-6.3-0.3-9.5-0.4c-1.1,0-2.6,0.1-3,1.3c-0.5,1.6,1.1,2.7,2.1,2.9c4.3,1.1,7.4,4.3,11.5,5.6c6.4,2.1,13.2,3.8,17.5,9.8
		c0.9,1.2,2.4,1.1,3.7,1.2c16.5,1.1,32.8,0.4,49.1-2.6c8.5-1.6,16.6-4.2,24.4-7.6c1.2-0.5,2.5-1.3,3.2-2.4c2.4-4,5.6-4.5,9.3-2.3
		C222.2,202.5,225.6,200.1,228.8,201.6L228.8,201.6z M42.5,202.1c-2.3,1.3-4.7-0.2-7.7,1.6c12.4,2.6,24.1,5.1,36,6
		c4.6,0.3,9.5,0.1,13.8-2.2c1.3-0.7,3.3-1.1,2.8-2.9c-0.4-1.7-2.2-1.7-3.8-1.5c-1.7,0.3-3.3,0.5-4.9,0.1
		c-10.6-2.8-21.4-4.5-32.4-5.2c-10.3-0.6-20.4-3.7-31.7-3.8C23.6,200.3,33.5,199.6,42.5,202.1z"/>
	<path d="M228.7,201.7c14.4-1.1,28.7-2.3,43.3-3.4c0,1.7-1.1,2.6-2.3,3.4c-2.2,1.5-2.8,3.1-1,5.3c2.5,3.2,0,3.2-2.2,3.1
		c-3-0.2-5.8-1.4-8.5-2.7c-6.8-3.5-13.9-5.4-21.6-4.7C234,202.8,231.2,203.2,228.7,201.7C228.8,201.6,228.7,201.7,228.7,201.7z"/>
</g>
</svg>
