<?xml version="1.0" encoding="utf-8"?>
<!-- Generator: Adobe Illustrator 22.0.0, SVG Export Plug-In . SVG Version: 6.00 Build 0)  -->
<svg version="1.1" id="Layer_1" xmlns="http://www.w3.org/2000/svg" xmlns:xlink="http://www.w3.org/1999/xlink" x="0px" y="0px"
	 viewBox="0 0 728 728" style="enable-background:new 0 0 728 728;" xml:space="preserve">
<style type="text/css">
	.st0{fill:#073256;}
</style>
<g>
	<path class="st0" d="M439.8,426.6c2.9,0.6,5.9,1.2,8.8,1.9c1,0.2,2.1,0.6,2.2,1.7c0.1,1.3-1.2,1.3-2.2,1.5c-1.8,0.3-3.5,0.9-5,2.3
		c9.5,4.8,18.4,10.4,28.7,12.8c1.5,0.3,4.3,0.1,3.7,2.9c-0.5,2.2-2.5,2.8-4.8,2.6c-8.8-0.6-17.4-2.4-26-4.8c-2.3-0.7-4.7-1-7.2-1.1
		c4.2,3.7,9.2,5.8,14.3,7.8c1.1,0.4,2.3,0.6,3.3,1.1c1.3,0.7,2.8,1.5,2.5,3.3c-0.4,2-2.1,1.9-3.6,1.9c-3.2,0-6.3-0.8-9.3-1.7
		c-1.6-0.5-3.2-0.9-4.8-1.3c-6.8-1.7-12.9-2.5-19.2,3c-5.5,4.8-12.9,3.8-19.3,0c-4.7-2.7-9.4-3.4-14.8-1.8
		c-5.7,1.7-11.1,0.4-16.2-2.8c-11.3-6.9-19.2-16.9-26.2-27.7c-2.8-4.4-6.2-6.8-11.4-7.9c-28.3-5.7-55.5-15.3-82.7-24.9
		c-14.2-5-27.4-12.1-40.6-19.2c-1.5-0.8-3-1.7-4.5-0.1c-5.6,6.4-12.1,4-18.4,1.9c-3.4-1.2-6.7-2.9-9.8-4.8c-2.1-1.3-2.7-1.2-4,1.1
		c-1.7,3-3.8,5.8-6.7,8c-5.5,4.1-9.7,4.2-15.4,0.3c-6.5-4.5-11.5-10.6-17-16.2c-2.9-3-6-4.2-10.1-4.3c-7.7-0.1-15.2,0.2-22,4.7
		c-3.7,2.4-8.2,3-12.6,2.3c-20.2-3.4-40.7-4-61-6.8c-4.7-0.7-9.4-2.2-14-3.7c-3.6-1.2-6.2-3.9-7.9-7.2c-1.2-2.4-0.7-4.2,2.4-4.7
		c3.7-0.6,7.2-1.2,11.1-0.2c7.2,2,14.8,0.1,22.2,1.5c3.1,0.6,6.3,2.4,10.6-0.1c-6.4-1.3-12-2.6-17.6-3.6c-2-0.3-4.1-0.3-5.8-1.2
		c-6.8-3.5-14-5-21.5-5.6c-3.6-0.3-8.4-5.5-7.9-9.4c0.6-4,3.8-6.9,7.9-8c6.3-1.6,12.7-2.8,18.9-4.6c17-4.9,34.4-7.7,51.8-10.7
		c46.2-8.1,92.4-8.7,138.5,1.3c14.3,3.1,28.2,8,42.1,12.4c35.4,11.2,69,27.4,104.7,37.9c17.6,5.2,35.2,10.1,53.1,14.1
		c19,4.3,36.2,0.9,52.9-8.2c8.5-4.6,17.2-8.8,25.8-13.1c3-1.5,6.1-2.6,9.6-2.1c6.6,0.8,9.4,5.7,6.6,11.8c-1.6,3.5-2.1,4-8.4,9
		c7-1.8,13-5.7,18.3-10.5c11.4-10.3,14.8-24.3,16.5-38.6c1.6-13.5,5.2-26,12.9-37.3c6.3-9.2,16.1-12.6,26.1-15.3
		c12.4-3.4,24.7-3.1,37.4-0.4c27.1,5.9,53,14.1,75.6,30.9c11.5,8.6,22,18.2,32.1,28.3c2.5,2.5,6.7,7,5.4,8.7
		c-2.3,2.7-5.5-1.8-8.3-3.1c-10.7-4.8-21.4-9.2-33.1-10.8c-2.6-0.4-5.1-0.8-7.4,1.5c-2.2,2.1-5,0.5-7.6,0.5
		c-13.1-0.1-26.1-4.3-39.3,0.1c-5.5,1.8-11.6,0.6-17.4,0.3c-3.4-0.2-6.6-0.3-9.8,0.9c-1.5,0.5-3.3,0.8-4.9,0.7
		c-10.3-0.6-20.4,1.4-30.6,2.5c-13.2,1.4-21.8,9.2-23.6,22.3c-0.5,3.6-0.8,7.3-1.3,10.9c-2.1,15.5-10.7,26.9-23.5,36
		c4.8,2,9.4,1.4,13.9,1.6c1.4,0.1,3.3-0.5,4,1.3c0.5,1.5-1.2,2.2-1.9,3.2c-9,12.2-20.6,21.7-33.2,29.8c-5.9,3.8-12.7,5.4-20,3.3
		c-9.9-2.8-20-5.3-29.9-8C449,425.8,444.4,425.5,439.8,426.6z"/>
</g>
</svg>
