<?xml version="1.0" encoding="utf-8"?>
<!-- Generator: Adobe Illustrator 22.0.0, SVG Export Plug-In . SVG Version: 6.00 Build 0)  -->
<svg version="1.1" id="Layer_1" xmlns="http://www.w3.org/2000/svg" xmlns:xlink="http://www.w3.org/1999/xlink" x="0px" y="0px"
	 viewBox="0 0 534.4 534.4" style="enable-background:new 0 0 534.4 534.4;" xml:space="preserve">
<style type="text/css">
	.st0{fill:#073256;}
</style>
<g>
	<path class="st0" d="M239.9,345.8c2.6,3.7,5,6.9,7.1,10.3c1.1,1.7,3.2,3.7,1.4,5.8c-1.6,1.8-3.8,0.3-5.6-0.3
		c-8.3-3-16.7-5.8-24.8-9.2c-6-2.5-12-2.2-18.1-1.2c-3,0.5-2.6,1.9-1.2,3.7c3.2,4.2,6.4,8.5,9.7,12.7c3.3,4.3,2.6,6.6-2.8,7.3
		c-6.6,0.8-12.9-1.5-19-3.5c-8.8-3-17.4-6.8-24.8-12.7c-2.6-2.1-5.5-2.7-8.8-2.7c-19,0.1-38,1-56.9-0.9c-11.1-1.1-22.3-1.6-33.1-4.7
		c-5.5-1.6-10.9-3.3-14.9-7.6c-1.5-1.6-3.3-1.3-5.1-1.5c-12-0.9-23.7-3.2-35-7.7c-1.4-0.6-2.8-1.2-4-2c-5.1-3.3-5.2-6.6,0-9.9
		c6.9-4.4,14.3-7.9,21.9-10.9c35.9-14.3,72.7-26,110.3-35.1c17.3-4.2,34.7-8.1,52.6-9c3.6-0.2,5.7-2.1,7.4-5.1
		c3.9-6.9,6.3-14.4,8.6-21.8c3.6-11.4,8.9-21.9,15.3-31.9c2.8-4.4,6.8-7.8,11.4-10.3c5.1-2.8,8.1-1.9,9.9,3.8
		c3.2,10.2,5.8,20.5,9.1,30.6c4.4,13.6,11.5,25,26.8,28.1c6,1.2,12.2,1.5,18.4,1.5c23.3,0.2,46.7,0,70,0.1c4.1,0,7.8-0.9,11.3-3.2
		c6.2-4.1,12.6-8.1,19-12.1c2.3-1.4,4.6-2.7,7.1-3.5c3.2-1,5.3,0.4,4.9,4c-0.3,2.8-2,5.9,0.7,8c3.5,2.7,6.9,6.1,11.6,6.5
		c9.3,0.8,18.1-0.4,25.7-7c16.6-14.6,34-28.3,49.3-44.5c10.2-10.7,17.9-23.1,25.4-35.7c2.6-4.5,5.3-8.9,8.6-12.8
		c0.9-1.1,1.8-2.8,3.6-2c1.8,0.8,1.2,2.5,0.9,4c-0.8,4.9-1.7,9.8-1.5,14.9c0.1,1.2-0.1,2.4,0.3,3.5c1.9,4.7,4.7,9.4-3.9,10.3
		c-1.8,0.2-2.6,3.3-3.4,5.3c-7.7,19-17,37.2-26.9,55.2c-3.9,7.1-8.1,14.1-11.1,21.8c-2.2,5.8-2.2,11.3-0.3,17
		c2.3,7.2,5.3,13.9,9.3,20.4c4,6.6,2,9.8-5.6,9.3c-11-0.8-20.5-5.2-28.4-13.1c-7.1-7.2-14.3-14.4-22.3-20.7c-4.4-3.5-8.8-4-13.9-1.2
		c-5,2.8-10.1,5.2-14.3,9.1c-2.7,2.5-3,4.5,0.6,6.6c2.3,1.4,5.6,3,4.3,6.4c-1.4,3.6-5.1,4-8.5,3.5c-6.6-0.9-13.3-2.3-19.2-5.3
		c-9.2-4.6-17-0.5-24.6,3.3c-5.2,2.6-10.2,6.3-8.7,14.1c0.6,3-2.8,3.3-5.1,3.2c-4.7-0.3-9.3-1-13.7-2.7c-4.1-1.6-7.8-1.7-12.4-0.2
		c-11,3.6-22.5,6.1-33.7,9C273.9,337.3,257.1,341.5,239.9,345.8z"/>
</g>
</svg>
