<?xml version="1.0" encoding="utf-8"?>
<!-- Generator: Adobe Illustrator 22.0.0, SVG Export Plug-In . SVG Version: 6.00 Build 0)  -->
<svg version="1.1" id="Layer_1" xmlns="http://www.w3.org/2000/svg" xmlns:xlink="http://www.w3.org/1999/xlink" x="0px" y="0px"
	 viewBox="0 0 418.1 418.1" style="enable-background:new 0 0 418.1 418.1;" xml:space="preserve">
<style type="text/css">
	.st0{fill:#073256;}
</style>
<g>
	<path class="st0" d="M312,211.1c-0.1,2,1.7,1.2,2.1,2.7c-3.8,0.9-7.3,2.3-7.7,7.1c-0.1,1.3-2.2,1.3-3.5,1c-2.4-0.6-5-1-7.2-2.1
		c-12-5.9-24.7-4.4-37.3-4c-7.6,0.2-15.2,1.2-23.3,1.9c1,1.4,2.9,3-0.4,3.8c-4.7,1.1-8.3,4-11.4,7.6c-3,3.5-6.5,3.7-10.3,1.6
		c-0.7-0.4-1.6-0.7-2.1-1.3c-8-8-16.9-8.9-27.8-6.2c-20.9,5.3-42.5,5.9-64,5.2c-4.2-0.1-6.4,1.4-8.5,5.1c-4.2,7.4-5.8,15.6-7.9,23.6
		c-1.2,4.5-1.9,4.9-5.9,2.3c-5.9-3.9-9.4-9.8-13-15.6c-2.8-4.5-5.4-9.2-7.6-14.1c-1.4-3.1-3.4-4.5-6.7-5.2
		c-11.2-2.4-22.7-3.6-33.9-6.2c-10.7-2.5-21.1-7-31.5-10.8c-1.7-0.6-4.2-1.6-4.1-3.8c0.1-2.4,2.9-2.4,4.7-2.9
		c27.8-7.8,56-13.4,84.7-16.4c6-0.6,11.9-1.5,17.9-1.6c5.5-0.1,9.4-2.7,13.2-6.1c6.3-5.7,12.6-11.4,19.2-16.7c6.3-5.1,7.4-4.5,10,3
		c2.3,6.7,5.2,13.1,10.9,17.6c5.6,4.4,11.9,7.3,19,7.7c19.4,1.2,38.9,2.2,58.3,3.2c5.7,0.3,11.3,0.6,16.9,1
		c7.6,0.5,13.5-2.8,18.5-8.1c4.4-4.6,9.1-8.8,14.4-12.3c3.6-2.4,6.4-1.7,6.6,2.1c0.5,10.8,5.8,17.6,16,21c-1.8,2.4-4.2,0.7-6.3,2.2
		c14.2,0.5,27.8,3.7,41.6,1.1c9.4-1.8,17.8-6.6,26.6-10.1c12.1-4.9,24.3-9.2,37.5-10c1.7-0.1,3.3-0.1,5,0.2c3.1,0.4,4.4,2.2,2.1,4.7
		c-3.4,3.7-6.2,7.8-8.5,12.3c-1.4,2.8-4,2.3-6.2,1.6c-4.3-1.4-7.6-0.7-11.5,1.9c-6.5,4.5-13.5,8-16.5,16c-1.1,2.9-4,2.8-6.5,2.3
		c-3.9-0.8-7.9-1.7-11.5-3.3C341.8,208.1,326.9,211.2,312,211.1z M222.2,217.2c-4.1-4.3-9.4-4.5-15-4.7c-7.3-0.2-14.5,0-21.9-1
		c-8.9-1.1-18-1.1-27,0.6c-7.3,1.3-14.8,0.2-22,1.9c-1,0.2-1.9-0.3-2.8-0.9c-2.4-1.7-4.6-1.5-6.6,0.7c-0.6,0.6-1,1.6-1.9,0.8
		c-2.2-2.3-4.5-0.8-6.4,0c-3.4,1.4-6.6-1.9-10,0.1c-0.4,0.2-1.4-2.5-3.1-1.4c-0.6,0.4-1.1,1.4-1.1,2.2c0,2.1,2,1.7,3.3,2.3
		c5.5,2.6,11.3-0.3,16.9,1.1c3.7,0.9,8.1,2.1,11.2,0.8c5-2,9.8-1.4,14.6-0.8c5.5,0.6,10.8,0.5,16.3,0.3c5-0.2,8.8-3.8,13.8-3.9
		c6.1-0.2,12.9-1.3,17.9,2.2c3.1,2.2,5.6,2.5,8.8,2.6C212.5,219.8,217.6,219.3,222.2,217.2z"/>
</g>
</svg>
