<?xml version="1.0" encoding="utf-8"?>
<!-- Generator: Adobe Illustrator 22.0.0, SVG Export Plug-In . SVG Version: 6.00 Build 0)  -->
<svg version="1.1" id="Layer_1" xmlns="http://www.w3.org/2000/svg" xmlns:xlink="http://www.w3.org/1999/xlink" x="0px" y="0px"
	 viewBox="0 0 386.3 386.3" style="enable-background:new 0 0 386.3 386.3;" xml:space="preserve">
<style type="text/css">
	.st0{fill:#073256;}
</style>
<g>
	<path class="st0" d="M386.3,171.4c-7.4,12.1-18.8,19.1-30.8,25.6c-8.6,4.7-17.3,9.4-25.6,14.5c-3.8,2.3-7,5.6-10.2,8.7
		c-2.2,2.2-1.5,5.4-1.2,8.1c0.4,4,1.8,7.8,3.2,11.5c0.6,1.6,1.1,3.3-0.2,4.7c-1.5,1.6-3.4,1-5.1,0.4c-5.8-2.3-11-5.6-15.3-10.1
		c-2.8-2.9-5.7-5.6-8.3-8.6c-5.8-6.6-16-8.5-23.7-4.5c-1.7,0.9-2.5,2.1-2.6,3.9c-0.1,4.6-2.5,3.9-5.2,2.2c-2.9-1.9-6-3.6-8.7-5.8
		c-2.4-2-5-2.6-7.9-2.4c-9.1,0.7-18.3,0.8-27.3,2.3c-7.8,1.3-13.9,5.9-17.7,13.2c-2.3,4.5-4.4,5.3-8,1.7c-5.4-5.5-11.4-5.4-18.3-4.6
		c-18.7,2-37.3,5.1-56.1,5.3c-2.4,0-4,0.9-5.2,3.1c-1.9,3.7-4.2,7.2-7.3,10.1c-4,3.8-7.6,3.5-10.9-0.8c-2.3-3-2.8-6.7-3.5-10.3
		c-0.4-1.9-1-3.7-3.2-3.8c-16.6-0.5-33-3.4-49.7-6.1c2.5,4.6,2.6,4.6-2.1,6.2c-2.5,0.9-5,2-7.6,2.4c-6.1,1.1-16.2-4.4-19.6-10.3
		c-0.9-1.6-1.6-3.2-3.3-4.3c-4.6-2.7-5.1-7.6-4.6-11.8c0.5-4.5,1.5-9.2,3.8-13.3c0.3-0.4,0.5-0.9,0.7-1.3c0.8-2-0.9-4.8,2-6.2
		c3.5-1.7,7.1-3.1,11-2.8c4.6,0.4,9.2,1.3,13.6,3c2.8,1.1,4.9,2.7,1.3,6.7c11.8-3.2,22.6-5.9,33.2-8.9c15.9-4.5,31.9-8.4,48.1-11.6
		c3.6-0.7,5.8-2.4,7.7-5.6c7.2-12.2,14.6-24.3,24.8-34.2c2.5-2.5,5.2-6.4,9.1-4.7c3.7,1.6,3.5,6.2,3.7,9.8c0.3,6,0.2,12,0.2,18
		c-0.1,8.6,5.4,14.6,14.9,14.9c24.7,0.9,49.1,4,72.9,10.9c3.3,1,6.2,0.3,9.2-0.8c2-0.7,4.2-1.1,6.3-1.3c2.1-0.2,3.7,0.5,3.1,3.1
		c-0.9,3.8,1.4,5.5,4.5,6.6c5.8,2,11.6,4.1,17.4,6.1c1.4,0.5,2.8,1,4.2-0.1c12.3-9.4,27-12.9,41.7-15.6c16.7-3.1,33.3-6.8,49.1-13.3
		C383.7,171,385,170.1,386.3,171.4z M186.2,219.2c0.6-1.2,3-0.1,2.9-2c-0.1-1.6-1.7-1.9-2.9-2.4c-1.2-0.5-2.7-0.2-3.9-0.4
		c-4.8-0.8-9,2.5-13.8,1.4c-17.2-4-34.7-2.7-52-3.1c-1.3,0-2.8-0.1-3.5,1.4c-0.7,1.5,0.4,2.4,1.3,3.4c2.5,2.7,5.4,3.8,9.1,4.3
		c8.4,1.1,16.2-3.4,24.9-1.1c2.9,0.8,7.6,1.1,11.5,0.4c1.7-0.3,3.3,0.9,4,2.7c-2.3,1.7-5.2-0.2-7.4,2.2c1.9,1,3.8,0.8,5.5,0.6
		c5.8-0.7,11.6-2.4,17.3-2.1c4.7,0.3,8.3-0.3,11.3-3.8C189.7,218.9,187.6,220.1,186.2,219.2z M35.2,209.1c-0.1,0-1.3-0.6-1.7,0.7
		c-0.4,1.4,0.5,2.2,1.7,2.7c0.9,0.4,1.9,1,2.8,0.9c6.3-0.6,11.1,6,17.8,3.5c1-0.4,1.5,1.2,2.3,1.6c1.8,1.1,3.4-0.1,3.3-2.4
		c-0.1-2.4-1.5-3.7-3.8-3.8c-1.2,0-2.4,0-3.4-0.5C48.3,208.9,42,210,35.2,209.1z"/>
</g>
</svg>
