<?xml version="1.0" encoding="utf-8"?>
<!-- Generator: Adobe Illustrator 22.0.0, SVG Export Plug-In . SVG Version: 6.00 Build 0)  -->
<svg version="1.1" id="Layer_1" xmlns="http://www.w3.org/2000/svg" xmlns:xlink="http://www.w3.org/1999/xlink" x="0px" y="0px"
	 viewBox="0 0 733.6 733.6" style="enable-background:new 0 0 733.6 733.6;" xml:space="preserve">
<style type="text/css">
	.st0{fill:#073256;}
</style>
<g>
	<path class="st0" d="M55.2,259.7c-2.2,5.1-1.2,9.2,2.6,13.1c9,9.5,20.3,15.5,31.9,21c25.7,12.3,52.5,22,79.1,32.2
		c7.9,3.1,15.9,6.1,24.1,8.4c5.6,1.6,7.5,4.1,7.6,10.1c0.2,11.1,1.8,22.2,4.7,33c0.2,0.6,0.3,1.3,0.5,1.9c2,5.3,7.4,10.6,10.8,9.8
		c5.2-1.2,7.1-5.8,8.3-10.3c2.1-7.9,4.8-15.6,7.4-23.3c1.6-4.6,3.9-4.8,7.8-3.8c16.6,4.3,30.5,12.3,42.7,25
		c21.3,22.2,42.6,44.5,65.4,65.2c14.2,12.9,29.5,24.4,47.3,32.2c3,1.3,6,2,9.2,1.4c5.3-1,6.8-4.3,4.2-9.1
		c-4.9-9.2-11.7-17.2-18.8-24.5c-18.5-18.8-32.5-40.9-47.3-62.4c-1.3-1.8-4.3-4-3.1-5.8c1.4-2.2,4.7-0.3,6.9,0.4
		c23.4,7.3,47.3,12.4,71.3,17.5c12.7,2.7,25.4,5.5,38.1,8c4,0.8,6.5,2.4,7.7,6.6c0.9,3.3,2.5,6.5,4.2,9.6c1.8,3.3,4.4,4,7.9,1.9
		c14.9-8.7,15.7-8.3,24.6,6.4c2.2,3.7,4,7.7,7.9,10.1c2.2,1.3,4.5,1.9,6.3-0.4c5.1-6.6,12.4-9.2,20.1-11.2c1.4-0.4,3.4-0.4,3.9-1.9
		c0.6-2-2.2-2.1-3.1-4c5.1,0.5,9.7,2,14.4,3.1c9.6,2.2,19.2,4.2,28.8,6.1c3.8,0.8,6.8,2.2,8.9,5.7c3.6,6,9.4,7,15.7,5.9
		c0.9-0.1,2.5-0.8,2.5-1.2c-0.1-5.1,3-2.1,4.5-1.6c11.3,3.3,22.2,8.1,33.8,10.5c2.5,0.5,1.7,1.8,1.5,3.3
		c-2.6,14.4-5.8,28.8-7.6,43.3c-2.3,18.3-3.9,36.8-3.6,55.3c0,3-0.3,7.9,2.7,8.3c2.4,0.3,3-4.8,3.8-7.7c8.9-32.2,20-63.5,36.6-92.6
		c11.5-20.2,23.9-39.9,33.7-61.1c1.5-3.2,3.5-6.1,7.7-6.4c1.6-0.1,3-1.2,2.9-2.9c-0.3-8.1,4.4-14.5,7-21.6c1.3-3.6,2.9-7.1,4.2-10.7
		c0.5-1.2,0.9-2.7-0.3-3.7c-1.2-1-2.5-0.2-3.7,0.3c-1.7,0.7-3.1,2-4.4,3.3c-21.1,21.8-40.8,44.8-60.9,67.5
		c-6.5,7.3-6.6,7.5-14.4,1.6c-5.9-4.6-12.7-8-18-13.4c-1.4-1.4-2.2-2.4-2.1-4.9c0.4-8.8-3.9-13.4-12.6-13.3
		c-6.9,0.1-12.1-3.3-17.2-7c-18.8-13.8-36.5-29-56.1-41.7c-15.9-10.4-32-20.3-48.3-30.1c-17.9-10.7-35.9-21-54.1-31.1
		c-2.7-1.5-1.2-3.7-2.5-5.3c-2.4-3-4.1-6.5-6.6-9.4c-7.5-9-6.6-19.3-5.8-29.9c1-13.2,5.2-25.8,6-39c0.1-2.2,0.5-4.3,0.5-6.5
		c0.1-9.7-4-12.9-13.6-10.7c-9.3,2.1-16.3,8.2-23.3,14c-9.9,8.1-19.7,16.4-29.3,24.9c-5.2,4.6-9.9,9.9-14.7,14.9
		c-2.7,2.8-5.5,3.8-9.4,2.9c-16.5-3.5-32.9-7.1-49.4-10c-37.1-6.4-74-13.6-111.4-17.7c-36.4-3.9-72.8-4.4-109.2-3.5
		c-21.3,0.5-42.5,2.6-63.6,5.6c-3.6,0.5-7,1.5-8.2,5.5c-1.2,3.9,1.7,6.1,4,8.5c13.2,13.9,29.4,23.3,46.8,30.7
		c4.5,1.9,9.6,2.6,14.4,4c1.2,0.3,2.8,0.5,3.2,2c0.2,0.9-0.3,1.7-1,2.1c-1.7,0.8-2.4-0.1-2.8-1.6c-0.3-0.9-0.9-0.7-1.5-0.2
		C60.1,263.8,57.7,262.1,55.2,259.7z"/>
</g>
</svg>
