<?xml version="1.0" encoding="utf-8"?>
<!-- Generator: Adobe Illustrator 22.0.0, SVG Export Plug-In . SVG Version: 6.00 Build 0)  -->
<svg version="1.1" id="Layer_1" xmlns="http://www.w3.org/2000/svg" xmlns:xlink="http://www.w3.org/1999/xlink" x="0px" y="0px"
	 viewBox="0 0 183.5 183.5" style="enable-background:new 0 0 183.5 183.5;" xml:space="preserve">
<style type="text/css">
	.st0{fill:#073256;}
</style>
<g>
	<path class="st0" d="M29.7,86.8c6.1-0.1,12-0.8,18-2.3c5.3-1.3,10.8-1.9,16.3-0.7c2.3,0.5,4.3-0.2,5.7-2.2c2-3,4-5.9,6-8.9
		c1.6-2.3,3.3-5,6.3-4.5c3,0.4,3.4,3.6,4,6.1c0.6,2.7,1.5,5.3,1.4,8.1c0,1.6,0.8,2.2,2.3,2.4c1.3,0.1,2.7,0.2,4,0.5
		c2.1,0.4,3.8,0,5.3-1.7c3.1-3.3,5.3-2.9,7.3,1.2c0.5,0.9,0.9,1.1,1.7,0.6c0.5-0.3,1-0.6,1.5-1c3.6-2.2,5-1.9,6.9,1.8
		c0.8,1.6,1.9,2.4,3.8,2.3c0.3,0,0.7,0,1,0c5.3,1.3,9.8,0.4,12.9-4.6c0.7-1.1,2-2.5,3.7-1.9c1.5,0.6,1.9,2.2,2.3,3.7
		c0.9,4,1,3.9,5,4.4c5.6,0.8,10.9,0.2,16.2-1.9c6.1-2.5,12.6-3.1,19-4.1c2.7-0.4,3.8,0.8,3.2,3.4c-0.4,1.6-1,3.2-1.7,4.7
		c-0.8,1.5-2.2,2-3.5,0.8c-1.4-1.2-2.5-0.9-4.1-0.4c-6.7,2.3-13.4,4-20.5,1.7c-2.6-0.8-5.2,0.6-7.9,0.9c-4.1,0.5-8.3,1-12.4,0.9
		c-4.4-0.1-8.8,0.5-13.2,0.5c-2.5,0-3.2,1.9-4.2,3.4c-2.1,2.9-3.3,3.6-6,1.4c-3.9-3.2-7.8-3.3-12.3-2.4c-2.7,0.5-5.5,0.3-8.2,0.4
		c-1.6,0.1-2.3,0.8-2.4,2.5c-0.3,3.7-1.2,7.2-2.7,10.6c-1.7,3.6-3.9,4-6.8,1.4c-3.5-3.2-5.5-7.3-7.5-11.4c-1.2-2.4-2.6-3.5-5.4-3.4
		c-7.3,0.3-14.4-1.3-21.3-3.5c-5-1.6-10.2-1.6-15.3-1.7c-5.7-0.1-11.2-1.1-16.9-1.1c-2.8,0-5.7-0.1-8.5-0.3c-1-0.1-2.5,0-2.4-1.5
		c0.1-1.3,1.5-1.2,2.4-1.3C11.5,88.4,20.5,86.8,29.7,86.8z"/>
</g>
</svg>
