<?xml version="1.0" encoding="utf-8"?>
<!-- Generator: Adobe Illustrator 22.0.0, SVG Export Plug-In . SVG Version: 6.00 Build 0)  -->
<svg version="1.1" id="Layer_1" xmlns="http://www.w3.org/2000/svg" xmlns:xlink="http://www.w3.org/1999/xlink" x="0px" y="0px"
	 viewBox="0 0 192.6 192.6" style="enable-background:new 0 0 192.6 192.6;" xml:space="preserve">
<style type="text/css">
	.st0{fill:#073256;}
</style>
<g>
	<path class="st0" d="M76.6,79.5c4.6-0.4,6.8-2.8,8.9-5.3c6.9-7.8,9.5-8.3,18.2-2.5c5.7,3.8,11.7,7.1,15.7,12.9
		c1.8,2.6,4.9,2.6,7.7,2.8c13.2,1,26.4,3.4,39.7,3.7c2.9,0.1,5.6-1,8.2-1.8c3.8-1.2,7.7-2.3,11.7-2.6c2.7-0.1,5.9,0.2,5.8,3.8
		c-0.1,3.4-0.6,7.8-4.6,8.3c-3.9,0.5-5,2.5-5.9,5.5c-0.4,1.3-0.7,2.6-1.4,3.7c-1.9,3.5-4.2,3.6-6.4,0.3c-1.2-1.8-2-3.8-3.1-5.7
		c-1.1-1.9-1.5-5-4.6-4.5c-2.8,0.5-6.4,0.1-7.5,4.4c-0.8,3.3-3.5,3.4-5.9,1.3c-4.6-3.9-8.9-5.2-13.2,0.3c-1.1,1.4-2.7,0.7-4.1,0
		c-7.1-3-12.6-1.6-16.5,4.9c-4.6,7.7-11.8,12.5-19,17.3c-3.7,2.4-6.9,0.8-10.2-1.4c-3.5-2.3-5.8-6.3-10.2-7.9
		c-0.1,1.9,1.3,2.5,2,3.6c4.4,6.6,3.3,12.5-3.3,16.7c-4.3,2.8-8.8,5.4-13.1,8.2c-2.9,1.8-5.7,1.7-8.3-0.4
		c-10.1-7.8-21.8-13.7-30.2-23.6c-1.4-1.6-3.3-2.2-5.2-2.8c-6.9-2.1-12.5-6.4-17.4-11.4c-6.8-6.8-5.8-19.9,1.7-25.9
		c5.3-4.2,11.1-7.4,17.8-8.8c2.8-0.6,4.9-1.9,6.8-3.8c8.6-8.8,19.3-14.7,29-22.1c2-1.5,4.4-1.9,6.6-0.7c5.5,3.1,11.3,5.8,15.9,10.2
		c6.4,6.1,6.5,12.1,0.1,18.4C80.9,76.4,79.1,77.6,76.6,79.5z"/>
</g>
</svg>
