<?xml version="1.0" encoding="utf-8"?>
<!-- Generator: Adobe Illustrator 22.0.0, SVG Export Plug-In . SVG Version: 6.00 Build 0)  -->
<svg version="1.1" id="Layer_1" xmlns="http://www.w3.org/2000/svg" xmlns:xlink="http://www.w3.org/1999/xlink" x="0px" y="0px"
	 viewBox="0 0 454.4 454.4" style="enable-background:new 0 0 454.4 454.4;" xml:space="preserve">
<style type="text/css">
	.st0{fill:#073256;}
</style>
<g>
	<path class="st0" d="M120.2,195.3c15.2,1,29.2,1.9,43.2,2.8c4.9,0.3,9.8,0.2,14.6-1.4c2.7-0.9,5.8-2.3,7.2,2.1
		c0.1,0.3,1.3,0.2,2,0.3c5.1,0.8,10.3-0.5,15.2,1.8c1.2,0.6,2.3-0.2,3.3-0.9c8.9-6.5,19.3-9.5,29.7-12.3
		c16.2-4.3,32.7-7.4,49.1-11.2c14.1-3.3,28.4-5.7,42.7-8.1c12.4-2.1,25-2.9,37.4-4.8c14-2.2,28.1-3.4,42.2-4.5
		c14.4-1.1,28.9-3,43.4-2.7c0.5,0,1,0,1.4,0.1c1.2,0.3,3.2-0.1,2.7,1.9c-0.4,1.5-2.1,3.3-3.8,2.5c-4.9-2.5-9.8-0.7-14.5-0.2
		c-18,2.2-36,4-53.7,7.6c-30.7,6.3-61.7,11.8-91.4,22.4c-15.8,5.6-31.7,11-46.1,19.9c-6.2,3.8-12.8,7.1-18.2,12.1
		c-4.1,3.9-5.7,8.4-5.3,13.9c0.2,2.1,0.9,4.8-1.3,5.9c-2.6,1.3-4.1-1.3-5.6-2.9c-4.3-4.6-7.5-9.9-10.2-15.6
		c-1.1-2.4-2.5-4.5-5.8-3.3c-1,0.4-1.6,0.5-1.8,1.8c-0.4,2.8-2.8,3.3-4.6,2.2c-4.9-3.2-10.2-2.1-15.4-1.7c-3.6,0.3-7.1,0.7-10.8,1
		c7.3,2,15,0.2,22.5,1.9c-4.5,0.5-8.9,0.7-13.3,1.2c-2.6,0.3-5.3,0.4-7.8,0.9c-3.8,0.7-6.8,4.3-7.1,8.5c-0.2,2.3,0,4.6-0.3,6.8
		c-0.2,1.3-0.2,3.1-1.9,3.6c-1.4,0.4-2.5-0.8-3.3-1.8c-2.4-2.8-4.7-5.7-6.9-8.7c-2.3-3.1-5-5-9.1-4.2c-17.7,3.1-35.5,3.1-53.4,2.9
		c-3.2,0-4.2,1.7-4.3,4.5c-0.2,6.4,0.5,12.7,1.2,19c1.1,9.6,3.5,19.1,3.2,28.9c-0.1,2.4-0.4,4.8-1.4,7c-1.7,3.7-4.4,4.6-7.8,2.3
		c-3.8-2.6-6-6.4-7.7-10.6c-6.4-15.5-10.7-31.6-12.6-48.2c-0.3-2.8-1.6-3.5-4.1-3.6c-9.5-0.5-18.9-1.4-28-4.3
		c-2.5-0.8-5-1.6-7.1-3.3c-2.9-2.2-6.5-2.2-9.8-3.4c-2.5-0.9-6.3-1.1-6.6-4.1c-0.3-2.6,3.3-3.4,5.4-4.6
		c14.6-8.4,30.3-13.6,46.9-16.5c12.7-2.3,25.5-3.1,38.2-4.1c5-0.4,8-2.6,9.5-7.3c1.1-3.4,2.5-6.7,3.8-10.1c0.4-1,0.8-2,1.4-2.9
		c1.7-2.6,3.5-6,6.9-5.4c3.2,0.6,2.6,4.5,3,7.1c1,5.8,2.7,11.2,6.3,15.9C122.6,192.8,122.9,194.1,120.2,195.3z M99.5,234.3
		c4.1-0.2,8.5-0.6,12.9-0.7c5.2-0.1,10.3-0.2,15.4-1.2c4.8-1,9.7-2.2,14.4-2.3c4.9-0.1,8.9-2.1,13.3-3.1c1.1-0.2,2.1-0.8,2.6-1.8
		c0.9-2.1,2.7-2.3,4.7-2.5c7.9-0.4,15.8-0.8,23.7-1.6c5-0.5,10-0.9,14.8-2.6c1-0.4,2.4-0.7,2.3-2c-0.1-1.5-1.7-0.8-2.7-1
		c-4-0.7-7.7,1.2-11.7,1.2c-1.9,0-3.7-0.5-5.7-0.1c-7.6,1.6-15.2,3.6-22.9,4.1c-11.5,0.7-22.7,3.4-34.2,3.6
		c-7.5,0.2-15,1.3-22.5,1.3c-11.4,0-22.9,0.6-34.2-1.5c-0.8-0.1-1.9-0.4-2.2,0.6c-0.4,1.4,1,1.4,1.9,1.5c3.5,0.7,7.1,1.2,10.5,2.1
		c2.1,0.6,5.5,0.1,4.6,4.3c-0.2,0.9,1,0.8,1.7,0.9C90.6,233.9,94.9,234.1,99.5,234.3z M17.9,226.2c2,1.7,4.1,2.1,6,2.7
		c9,2.7,18.2,4.2,27.6,4c1,0,2.4,0.6,2.9-0.6c0.4-1.2,0.4-2.7-0.4-3.8c-0.8-1.3-2.2-1.6-3.5-0.9c-0.9,0.5-1.6,0-2.3,0.1
		c-4.2,0.4-8-1.3-12-1.9c-8.7-1.4-17.5-2.8-26.2-4.1c-1.2-0.2-2.5-0.9-4.2,0.3c5.6,1.8,10.9,3.2,17.5,3.1
		C21.1,226.3,19.8,226.1,17.9,226.2z"/>
</g>
</svg>
