<?xml version="1.0" encoding="utf-8"?>
<!-- Generator: Adobe Illustrator 22.0.0, SVG Export Plug-In . SVG Version: 6.00 Build 0)  -->
<svg version="1.1" id="Layer_1" xmlns="http://www.w3.org/2000/svg" xmlns:xlink="http://www.w3.org/1999/xlink" x="0px" y="0px"
	 viewBox="0 0 364.9 364.9" style="enable-background:new 0 0 364.9 364.9;" xml:space="preserve">
<style type="text/css">
	.st0{fill:#073256;}
</style>
<g>
	<path class="st0" d="M205.2,188.7c3.9,1.8,4.4,3,1.3,4.2c-2.5,1-5.1,2-7.1,3.6c-6.5,5.3-13.3,4.9-20,1c-4.9-2.8-9.5-2.9-14.8-1.2
		c-9.5,3.1-19.6,4-29.5,5.2c-11,1.3-17,6.6-19,17.5c-0.6,3.4-1,6.9-1.6,10.4c-1.2,8.2-5.3,9.9-11.8,4.6c-5.2-4.2-8.9-9.9-12.3-15.6
		c-1.6-2.7-3.6-5.4-4.5-8.4c-1.8-6-6.1-7.9-11.7-9.2c-14.3-3.2-29.3-2.4-43.3-7c-9.1-3-18.1-6.6-27.1-10.1c-2.1-0.8-4.4-2.4-3.9-5.2
		c0.4-2.5,2.9-3.1,5-3.6c29.9-6,58.8-16.3,89.1-20.1c7.1-0.9,14.4-0.7,19.7-6.8c0.3-0.4,0.9-0.6,1.1-1c4.3-7.1,11.9-10.5,17.7-16
		c6.1-5.7,11-4,12.6,4.3c1.5,7.8,5.7,13.2,12.7,17c-2.4,2.4-4.9,1.8-7,2.8c12.1,0.8,24.3,1.4,36.4,2.3c10.5,0.8,20.9,1.4,31.3,2.8
		c8,1.1,14.7-1.6,21.3-5.5c5-3,9.7-6.3,15.9-6.1c4.2,0.2,5.1,1.2,3.5,5c-3,7.2,1.2,14.1,8.9,14.7c8,0.6,15.9,1.3,23.8,2.3
		c4.1,0.6,7.4-0.8,10.9-2.6c11.8-5.9,22.7-13.3,34.2-19.7c6.4-3.6,13-6.7,20.2-8.5c2.2-0.5,4.9-1.4,6.7,0.5c1.8,1.9-0.1,4.2-1,5.9
		c-5.1,9.1-10.6,17.9-19.2,24.4c-3.9,2.9-7.4,6.6-11,10c-3,2.7-2.9,7.1-1.6,10.8c1.4,3.7-0.6,6.8-1.2,10c-0.4,2.1-2.8,2-4.7,2
		c-5.8,0.2-10.1-3.2-14.3-6.4c-4-3-7.7-6.4-11.2-9.9c-3.7-3.7-8.2-5.3-13.2-4.5C260.2,186.7,233.8,189,205.2,188.7z M214.5,178.8
		c-2.2,1.7-4.5,1.4-6.8,1.3c-2.2-0.1-3.4,1.4-3.5,3.4c0,2.2,1.9,1.8,3.4,1.8c4.1,0,8.3-0.4,12.4-0.1c4.4,0.4,8.7,0.1,13-0.3
		c6.6-0.6,13.2-1.2,19.8-1.9c1.9-0.2,3.7,2,5.2,0.8c4.4-3.4,9.5-1.1,14.2-2.3c0.8-0.2,2.1,0.6,2.3-0.9c0.2-1.1-0.7-1.9-1.6-2.3
		c-1.2-0.5-2.6-0.9-3.8-0.9c-9.6-0.3-19.1-0.4-28.7-0.8c-6.2-0.3-12.4,0.7-18.7-1.2c-3.3-1-7.5-2.2-10.7,1.1
		C211.6,178.1,213.6,177.2,214.5,178.8z M146.5,197.9c3-0.4,5.2-0.9,7.5-1.1c3.5-0.3,3-2.3,2-4.5c-1.8-3.7-5.5-3.1-8.3-3
		c-12.9,0.5-25.8,1.4-38.7,2.4c-1.6,0.1-3.9,0.2-4.1,2.7c-0.2,2.5,1.7,2.6,3.4,3.4c3.7,1.7,6.7-2,10.2-1
		C127.9,199.6,137.7,194,146.5,197.9z"/>
</g>
</svg>
