<?xml version="1.0" encoding="utf-8"?>
<!-- Generator: Adobe Illustrator 22.0.0, SVG Export Plug-In . SVG Version: 6.00 Build 0)  -->
<svg version="1.1" id="Layer_1" xmlns="http://www.w3.org/2000/svg" xmlns:xlink="http://www.w3.org/1999/xlink" x="0px" y="0px"
	 viewBox="0 0 404.1 404.1" style="enable-background:new 0 0 404.1 404.1;" xml:space="preserve">
<style type="text/css">
	.st0{fill:#073256;}
</style>
<g>
	<path class="st0" d="M286.6,209.3c2,1.3,2.6,3.3,3,5.5c0.5,2.8,1.2,5.5,2.4,8.1c1.9,4,0.7,5.8-3.8,6.2c-3.6,0.3-7-0.6-10.2-2.1
		c-5.8-2.7-10.9-6.4-15-11.4c-3.3-4-7.1-5.8-12.6-5c-9.5,1.3-19.2,1.8-28.8,2.5c-3.4,0.2-6.1,1.1-8.1,3.9c-2.5,3.5-5.4,6.8-8,10.2
		c-4.7,6.3-8.6,7.7-15.9,4.6c-5.2-2.2-10.2-4.9-15-7.9c-7.9-4.9-15.5-0.4-23.3,0.3c-1.4,0.1-1.3,1.5-1.3,2.8
		c0.6,13.1,0.7,26.3,2.3,39.4c1.8,15-4.1,17.3-17.4,12.4c-11.2-4.2-19.6-12.5-27.4-21.2c-8-9-15.7-18.1-23.4-27.3
		c-2.3-2.8-4.9-4-8.5-4.2c-14.8-0.9-29.4-3.7-44.3-3.4c-6.1,0.1-12.1-2.4-17.7-5c-5.4-2.5-8.4-7.7-12.2-11.8
		c-2.3-2.5-1.5-5.9,0.8-8.2c8.8-8.8,17.3-18.2,28-24.7c6.8-4.2,14.9-5.6,23.1-4.4c3.1,0.5,5.9-0.1,8.8-1.1c10.5-3.7,21-7.8,32.3-8.3
		c2.3-0.1,4-1.2,5.6-2.9c5.4-6.1,11.7-11.4,16.1-18.4c0.6-0.9,1.4-1.9,2.9-2.2c1.4,2.6-1.9,4.4-1,7.1c4.8-5.4,8.9-11,14.7-15.1
		c2.6-1.9,5.3-3.5,8.4-4.4c6.2-1.8,9.8,0.7,10.1,7.1c0.3,7.5,1.1,14.9,3.3,22.1c0.4,1.3,0.8,2.5,1.3,3.8c2,5.5,5.1,8.7,11.7,9.4
		c16.2,1.8,32.3,4.5,48.4,7.1c4.7,0.7,8.5-0.6,12.1-3.3c4.5-3.4,8.7-7.7,13.7-9.9c8.1-3.6,15.9-8.1,24.9-9.4
		c4.5-0.7,6.6,1.8,5.6,6.9c-1.2,6-1.2,11.9-0.9,17.9c0.3,7.4,1.2,11.8,10.7,13c10.4,1.3,20.7,3.6,30.9,6c9.5,2.2,17.4-0.4,24.7-6.1
		c12.4-9.8,25.2-19.2,39-27c5.7-3.2,11.4-6.2,17.7-8.2c2.1-0.7,4.2-1.2,6.4-0.7c2.9,0.7,4.4,2.3,3.1,5.4c-0.9,2.1-2,4.2-3,6.3
		c-3.3,6.9-3.9,14.3-4.2,21.7c-0.4,8.8-4.2,11.9-13,10.1c-11.1-2.4-10.7-2.3-14.1,8.6c-2.7,8.5,1.1,15.7,3.7,23
		c2.3,6.7,0.8,9.7-6.4,10.1c-11.6,0.6-21-4.6-29.7-11.2c-3.4-2.6-6.8-5.4-9.7-8.6c-5.2-5.8-11.6-8.1-19.1-8.2
		C300.9,209.2,293.8,209.3,286.6,209.3z"/>
</g>
</svg>
