<?xml version="1.0" encoding="utf-8"?>
<!-- Generator: Adobe Illustrator 22.0.0, SVG Export Plug-In . SVG Version: 6.00 Build 0)  -->
<svg version="1.1" id="Layer_1" xmlns="http://www.w3.org/2000/svg" xmlns:xlink="http://www.w3.org/1999/xlink" x="0px" y="0px"
	 viewBox="0 0 384 384" style="enable-background:new 0 0 384 384;" xml:space="preserve">
<style type="text/css">
	.st0{fill:#073256;}
</style>
<g>
	<path class="st0" d="M384,128.6c-3.7,5.3-6.3,10.6-8.2,16.3c-0.4,1.3-1.5,2.6-2.9,2.3c-4-0.9-5.5,2-7.7,4.2
		c-4.4,4.6-9,8.9-13.6,13.2c-9.9,9.2-18.6,19.5-27,30.1c-3.8,4.8-4.6,9.8-2,15.3c1.9,3.9,3.7,7.8,5.3,11.9c1.5,3.9,0.2,5.4-3.9,4.5
		c-6.5-1.5-11.8-5.6-16.5-9.9c-4.2-3.8-8.8-7.2-12.2-11.8c-1-1.3-2.3-2.8-4.1-2.3c-5,1.4-10.2,1.2-15.9,2c1.6,1.7,3.2,0.1,4.5,1.2
		c-0.2,0.3-0.3,0.9-0.6,1c-4.4,1.4-7.2,3.8-6.8,9c0.3,3.7-2.6,3.4-4.9,2.6c-4-1.3-7.7-3.4-10.8-6.2c-5.9-5.2-12.2-3.6-19.4-2.1
		c2.8,1.3,5.6,0.8,7.6,3c-2,1.9-4.4,1.7-6.6,1.7c-7.5,0.1-13.7,2.2-18.9,8.3c-6.3,7.3-9,7.5-16.2,1.1c-6.1-5.4-12.3-6.6-20.1-5
		c-14.2,2.9-28.8,3.2-43.2,4.3c-4.2,0.3-6.2,2.4-7.2,6.2c-2,7.8-2.7,15.8-2.3,23.8c0.4,7,1.1,13.9,1.5,20.9c0.2,2.5,0.8,5.6-1.7,6.9
		c-3,1.5-4.9-1.5-6.5-3.3c-8.1-9.4-14.6-19.8-20.3-30.8c-3.8-7.2-7.1-14.7-10.3-22.2c-1.4-3.4-3.4-4.7-7-5.1
		c-15.2-1.8-30.8-2.3-45.3-7.2c-12.6-4.3-25.3-8.7-37.8-13.4c-1.6-0.6-3.3-1.4-3.1-3.4c0.3-2.4,2.5-2.9,4.4-3.5
		c12.7-4.1,25.4-8.2,38.1-12.1c21.5-6.5,42.9-13.4,64.8-18.6c3.5-0.8,5.7-3.3,7.7-6c8.2-11.1,15.2-23.1,23.9-33.9
		c5.1-6.2,10.2-12.4,16.5-17.3c1.5-1.2,3.2-2.9,5.4-1.7c2,1.1,2.3,3.3,2.2,5.3c-0.4,9.1-0.6,18.3-1.4,27.4
		c-0.4,4.8-0.1,9.7-0.6,14.5c-0.7,7,2.8,10.9,8.6,13.7c1.6,0.8,3.6,0.9,4.9,3.2c-3.6,0-6.9,0-10.3,0c0,0.2,0,0.5,0,0.7
		c25.4,3.7,50.7,7.3,76.1,11.1c6.7,1,12.5-1.4,18.2-4.2c4.4-2.1,7.7-2.4,11.1,2.2c3.9,5.3,10.6,5.7,16.4,7.6
		c5.1,1.7,8.2,0.2,12.1-3.8c9.9-10.2,22.3-17.3,34.6-24.4c14.6-8.4,28.6-17.8,43.6-25.5C378.5,129.5,380.6,128.1,384,128.6z"/>
</g>
</svg>
