<?xml version="1.0" encoding="utf-8"?>
<!-- Generator: Adobe Illustrator 22.0.0, SVG Export Plug-In . SVG Version: 6.00 Build 0)  -->
<svg version="1.1" id="Layer_1" xmlns="http://www.w3.org/2000/svg" xmlns:xlink="http://www.w3.org/1999/xlink" x="0px" y="0px"
	 viewBox="0 0 729.2 729.2" style="enable-background:new 0 0 729.2 729.2;" xml:space="preserve">
<style type="text/css">
	.st0{fill:#073256;}
</style>
<g>
	<path class="st0" d="M400.5,411.8c3.2,4.4,6.5,7.2,9.9,9.9c1.3,1,2.3,2.4,3.2,3.8c0.9,1.2,2.2,2.7,1.2,4c-1.3,1.8-3,0.2-4.5-0.4
		c-6.6-2.7-11.7-7.6-17.2-11.8c-5.3-4.1-10.7-5.6-17.1-2.6c-4,1.9-7.7,0.9-10.5-3c-4.3-5.9-8.9-11.6-13.1-17.6
		c-3.3-4.7-7.3-6.6-13.4-6.8c-10.1-0.3-20.1-2.4-30.2-3.6c-9.9-1.2-19.8-2.3-29.8-3.3c-1.6-0.2-3.5,0.1-4.8,0.9
		c-10.2,6.5-22.4,8.4-32.7,14.7c-5.5,3.4-9.7,8.1-14.2,12.4c-6.2,5.9-12.8,5.7-18.7-0.5c-9-9.4-15.8-20.1-20.9-32
		c-1.4-3.2-3.9-3.7-6.8-3.8c-10.1-0.4-20.3-0.2-30.4-0.8c-14.8-0.9-29-4-43.1-7.9c-4.8-1.3-9.7-2.7-14.6-3.3
		c-9.6-1.2-18.2-5.4-27-8.8c-2.5-1-4.6-2.7-5.7-5.4c-1.1-2.7-0.7-5.1,1.8-6.5c3-1.7,6.3-2.7,8.6-5.6c1-1.3,2.4-0.2,3.5,0.7
		c2.9,2.2,6,1.4,9.1,0.5c0.8-0.2,1.7-0.7,1.6-1.7c-0.1-1-1-1.2-1.9-1.3c-16.5-3-31.9-9.6-47.5-15.3c-10.9-3.9-20.9-9.5-29.6-17.2
		c-8.3-7.4-6.8-15,3.7-19.1c13.5-5.3,27.7-5.4,41.8-6.5c26.2-2,52.4-3.9,78.7-5.5c11.6-0.7,23.3-1.8,34.9-0.8
		c6.8,0.6,13.6-0.5,20.4-0.2c39.7,2,78.1,10.6,116.1,21.5c16.7,4.8,32.5,12.1,48.4,18.8c8.6,3.6,17.9,4.8,26.1,9.6
		c11,6.5,22.6,12,33.8,18.3c3.1,1.7,5.3,2,8.1-0.1c5.6-4.2,11.5-8,18.3-9.9c2.4-0.7,5.2-1.5,7,0.8c2,2.4,0.2,4.7-1,6.9
		c-5.6,10.6-4.8,15.5,3.9,23.6c16.9,15.9,36.6,27.7,57.4,37.7c5.7,2.7,11.5,5.4,17.2,8c15.4,7,31.5,6.7,47.4,2.8
		c16.1-4,32.6-4.6,48.9-6.4c16.4-1.9,33-0.6,49.3-3.2c17.7-2.8,35.4-6.1,52.2-13c2.4-1,4.6-2.6,6.9-4c1-0.6,1.8-1.7,3.1-1
		c1.4,0.8,1.4,2.3,1,3.6c-0.5,1.7-1.2,3.4-2,5.1c-3.4,6.7-6.8,13.3-11.7,19.1c-2,2.3-4.4,3.6-7.5,2c-1.7-0.9-3.2-0.3-4.8,0.3
		c-29.4,11.3-60.1,17.4-91.2,21.5c-7.4,1-14.8,2.1-22.2,3.4c-6.2,1.1-10.6,4.6-12.6,10.8c-1.6,4.9-3.5,9.7-5,14.6
		c-1.3,4.4-4,4.7-7.7,3.4c-6.7-2.4-12.5-6.2-18-10.5c-1.3-1-2.5-2.2-3.6-3.4c-6.3-6.1-13.3-10.4-22.5-11.6c-9-1.1-17.9-3.7-26.7-6.4
		c-5-1.6-9.4-1.4-14,0.7c-3,1.4-6.3,2.4-9,4.3c-5.5,3.9-10,2.6-14.9-1.2c-7.9-6.1-15.2-13-24.5-17c-4.8-2-9.5-3.7-14.9-3.4
		C411.3,413.1,406.3,412.2,400.5,411.8z"/>
</g>
</svg>
