<?xml version="1.0" encoding="utf-8"?>
<!-- Generator: Adobe Illustrator 22.0.0, SVG Export Plug-In . SVG Version: 6.00 Build 0)  -->
<svg version="1.1" id="Layer_1" xmlns="http://www.w3.org/2000/svg" xmlns:xlink="http://www.w3.org/1999/xlink" x="0px" y="0px"
	 viewBox="0 0 667 667" style="enable-background:new 0 0 667 667;" xml:space="preserve">
<style type="text/css">
	.st0{fill:#073256;}
</style>
<g>
	<path class="st0" d="M295.9,333.9c-25.5-5.2-50.2-13-75.2-20.2c-15.5-4.5-31-9-45.8-15.5c-2.7-1.2-5.8-2.9-8.9-0.1
		c-1.4,1.2-3.1,0.3-4.1-0.6c-16-13.3-36.9-15.5-54.9-24.2c-12.1-5.9-24.6-11-36.3-17.7c-6.2-3.6-13.1-5.8-19.2-9.7
		c-3.7-2.4-7.3-4.6-10.1-8c-1.4-1.7-3.3-2.7-5.4-3.5c-11.3-5-22.3-10.5-31.5-19c-0.7-0.7-1.5-1.3-2.2-2c-3.9-4.5-3-7.4,2.9-8.6
		c10.6-2.1,21.4-3,32.2-4.2c28-3.3,56.2-3.5,84.3-2.8c20.8,0.5,41.4,3.6,62,7c18.7,3.1,36.5,9.1,54.6,14.2c4.2,1.2,7.2,0.5,10.3-2.5
		c14.2-13.6,30.9-22.4,50.4-25.5c12.3-1.9,14.5,0.9,10.7,12.7c-2.7,8.5-6.5,16.8-6.8,26c-0.3,9.1,3.6,15.2,11.9,19.3
		c26.5,13.2,52.6,27.3,78.5,41.7c15.6,8.7,31.3,17.1,46.9,25.6c4.2,2.3,8.8,1,13.3,1c3.7,0,6.2,0.3,6.8,5.1c0.4,3.3,3.1,6.3,6.3,8
		c9.5,4.9,19,9.7,28.5,14.4c2.7,1.3,5.7,1.9,7.7,4.4c1.6,2,3.7,1,5.6,0.4c16.8-4.9,33.9-8.7,50.8-13c13.8-3.5,27.8-4.9,41.8-6.8
		c16.5-2.3,33.1-3.4,49.8-2.3c4.7,0.3,9.3,1,13.8,2c1.1,0.3,2.4,0.6,2.4,2.1c0,1.2-0.9,1.9-1.8,2.2c-9.8,3.1-16.2,10.8-23.5,17.3
		c-1.6,1.4-3.5,2.1-5.5,1.2c-3.5-1.6-6.3-0.4-9.4,1.2c-19.4,10-37.5,22.3-56.6,32.9c-3.2,1.8-4.7,4.5-5.4,8c-3,16.5-6,33.1-9,49.6
		c-1.6,8.8-4.4,17.5-4.2,26.6c0,1.4-0.6,2.9-1.1,4.3c-0.9,2.5-2.5,3-4.6,1.2c-1-0.9-2.1-1.7-2.8-2.8c-5.8-9.1-11.9-18-17-27.6
		c-11.5-21.3-18.4-44.2-23.6-67.7c-1.8-8.1-3.7-8.7-12.3-8.6c-8.3,0.1-16.4-2.2-24.6-4c-2.4-0.5-4.9-0.7-7.4-1.1
		c2.9,3.2,1.9,4.3-1.7,4.4c-0.8,0-1.7,0.2-2.4,0.6c-5.6,3.6-9.6,2.1-12.5-3.6c-1-2-3.2-2.2-5.2-2.6c-22.4-4.2-44.7-9-67.4-11.2
		c-5.3-0.5-8.9,1.7-12,5.6c-2.4,3-4.3,3.9-9.2,2.9c-9.2-1.9-12.7-9.1-18.4-14.4c-1.1-1-1.8-2.8-3.5-2.4 M263.3,318.8
		c0.8-2.1-0.4-4.6,2.1-5.5c0.9-0.3,1.6,0.2,2.1,0.9c5.9,7.1,14.2,3.8,21.3,4.3c7.4,0.5,14.9-0.4,22,2.1c3.3,1.2,6.1,3.3,9.7,1.4
		c0.8-0.4,1.9-0.2,2.2,0.6c2.4,7.5,10.1,5.4,14.8,8.4c4.9,3.2,11.3,0.2,15.2,5.1c0.1,0.2,0.9,0,1.3-0.2c6.3-2.8,12.7-3.4,19.1-0.3
		c1.2,0.6,2.6,0.4,3.9,0.1c3.3-0.8,9.7,2.1,10.6,5.2c1,3.4,3.6,4.7,6.5,4.1c6.5-1.4,12.5,0.4,18.7,1.6c2.8,0.5,3.6-0.3,3.6-3
		c0-3-2.2-3.2-4.2-4.2c-2.8-1.4-4.6-5.1-8.8-2.7c-1.2,0.7-4.5,1.6-4.6-2.1c0-0.3-0.8-0.7-1.2-0.7c-5.9-0.5-11.2-2.8-16.5-5.3
		c-6.1-2.8-12.9-2.8-19.4-4c-12-2.2-23.9-5.4-35.8-8c-12.3-2.7-23.8-7.7-36.3-9.9c-8.5-1.5-16.4-6.2-25.1-7.8
		c-3.6-0.6-7.7-0.8-10.5-2.7c-8.5-5.6-18.3-7.7-27.6-11.1c-5.9-2.2-11.4-0.7-14.9,4.3c-1.7,2.4-3.8,3.4-6.7,3.4
		c0.8,1.9,3,3.3,1.9,4.8c-4.4,6.2,2.6,5.3,3.9,5c8.4-1.8,14.9,3.5,22.4,5.1c0.8,0.2,1.6,0.6,2.2,1.2c5.5,4.7,12,5.6,18.9,5.8
		c2.1,0,3.3-0.8,4.8-2.5C259.1,315.5,260.8,317.2,263.3,318.8z M74.8,235.4c-8-4.4-16.2-2.4-24.3-1.1c-1.4,0.2-3.4,0.1-3.5,2.1
		c-0.1,1.6,1.1,2.9,2.5,3.4c3.8,1.6,7.5,3.4,11.6,4.5c15.5,4.3,31.2,7.9,46.1,14.1c3.4,1.4,6.9,2.8,10.9,3.1c2.5,0.2,6.1,0.4,7.4,3
		c1.8,3.6,3.5,4.9,7,3.4c1.2-0.5,2.6-1.7,3.6-0.5c4.6,5.3,8.4,0.3,12.5-0.8c1.5-0.4,1.9-1.8,1.5-3.2c-0.4-1.3-1-2.6-2.8-2
		c-2.7,0.9-4.4-0.7-6.1-2.3c-1.1-1-1.9-2.2-3.7-2.1c-4.7,0.3-7-4.9-11.5-5.2c-0.3,0-0.6-0.8-0.7-1.2c-2.2-5.8,0.1-11.9,3.1-15.3
		c2.4-2.7,3.8-7.1,8-8.6c1.2-0.4,2.7-2.3,2.5-4.3c-1.7-0.6-3.3,0.9-4.6-0.2c-3.6-3-5.2-0.3-7,2.2c-3.9,5.5-4.7,12-6.3,18.3
		c-1.5,5.7-1.4,5.7-6.2,2.8c-1.3-0.8-2.7-1.6-4.1-1.7c-5.9-0.6-9.5-4.4-12.8-8.7c-1.5-2-3.3-3.7-5.1-5.4c-1.1-1.1-2.8-2-3.9-0.3
		c-1.9,2.9-3.9,1.4-6.1,0.8c-4.6-1.3-8.4-4.2-13.1-5.6c-11.8-3.5-24.9-4.7-34.3-15.2c2.4,4.5-0.3,5.5-3.1,4.7
		c-4.6-1.3-10.2,0.8-13.7-4.2c-0.3-0.4-1.3-0.7-1.8-0.5c-3,1.2-6.5,0.2-9.5,1.9c0.5,1.6,1.8,2,3,2.6c9.2,4.3,18.3,8.7,27.4,13.1
		c0.9,0.4,2,1.4,2.7,0.5c3.7-4.6,8.7-2.3,13-2.5C61.7,224.7,68.7,229,74.8,235.4z M199.8,246.1c1.1,2.4,3,3.2,4.8,4
		c3.6,1.6,7.8,2.6,10.8,4.9c12.2,9.4,27.3,7.6,40.9,11.4c2.8,0.8,4.7-2.3,4.9-5.1c0.2-2.4-0.8-4.1-3.9-3.4c-1.5,0.3-2.8-0.9-3.8-2.1
		c-3.6-4.4-9.8-2.5-14-6.3c-2.4-2.2-7.3-1.7-10.9-2.6c-7.4-1.9-14.7-3.9-22.3-4.7c-1.1-0.1-3.2-1.1-2.5,1.4
		C205.1,248.4,201.6,245.6,199.8,246.1z M440.9,350.4c-1.8-1-2.6-2.3-3.1-3.7c-1.2-2.9-4-3.7-6.1-2.8c-2.1,0.8,0.2,3.2,0.3,4.9
		c0,0.2-0.4,0.4-0.7,0.6c-2.1-1.2-1.8-3.7-2.9-5.5c-1.2-1.9-2.9-2-4.8-1.9c-1,0.1-1.3,0.8-1.3,1.7c-0.4,4.6,2.2,8,7,8.8
		c1.1,0.2,2.2,0.6,3.4,0.9c7.1,1.6,14.2,3.4,21.4,4.8c10.8,2.3,22.2,0.4,32.8,4.5c1,0.4,2.6,1,2.9-0.6c0.3-1.5-1.4-1.6-2.3-2.1
		c-4.8-2.4-10.3-2.1-15.1-4.6c-2.8-1.5-5.7-3.2-9.3-3c-6.8,0.3-12.3-4-18.5-5.4c-0.9,2.3,1.9,4,1.3,6.5c-3.7-1.2-2.4-5.8-5.2-7.8
		C439.5,347.5,441.1,348.5,440.9,350.4z M152.2,222.4c-0.1-1.3-0.9-1.9-1.7-1.6c-2.7,0.8-5.7,0.4-8.1,2.8c-3.8,3.9-6,8.7-7.8,13.6
		c-0.7,1.9-2.7,4.3-0.6,5.8c1.9,1.3,4-0.9,5.7-2.1c0.9-0.6,1.7-1.6,2.2-2.6c2.4-5,5.5-9.4,8.9-13.7
		C151.2,223.8,151.7,223,152.2,222.4z M363.2,345.5c-7.1-2.5-14.2-5.1-21.5-7.4c-4-1.3-8.6,0.1-12.5-2.4c-1.7-1.1-2.3,0.4-2.9,1.7
		c-0.8,1.9,0.8,2,1.8,2.1c1.3,0.1,2.6-0.2,3.9-0.5c4.2-0.8,7.3,0.3,9.9,3.9c2.5,3.3,3.2,6.8,2.2,11.9
		C349.6,347.9,355.7,345.7,363.2,345.5z M159.4,224.8c0.6-1.7,0.2-2.2-0.4-2.5c-1.5-0.5-2.6,0.4-3.5,1.4c-5.3,5.7-10.3,11.5-13,19
		c-0.5,1.3-2.1,3-0.3,4c1.6,0.9,3.7,0,4.9-1.4c0.9-1,1.3-2.6,1.7-4.1c0.9-3,0.7-7.1,5.9-5.4c0.6,0.2,1.5-0.2,1.5-0.9
		C156.4,230.8,161.9,228.6,159.4,224.8z M262.7,261.5c3.1,2.4-0.6,5.3,1.6,7.8c3.2,3.6,8.7,1.2,11.7,5.1c0.2,0.2,1.7-0.1,2.2-0.6
		c2.2-2.2,0.9-8.8-2.1-9.3C271.7,263.8,267.5,262.9,262.7,261.5z M119.7,215.8c-3.8-0.3-6.1-0.3-8.3-0.7c-2.1-0.4-4.5-1.6-5.9,0.7
		c-1.3,2.2-0.8,4.8,0,7.2c1.1,3.5,5,1.9,7.1,4c0.6,0.6,1.6-2.4,2.2-3.9C115.7,220.7,116.6,218.2,119.7,215.8z M275.6,211.2
		c-2.4,0.3-3.8,2.7-3.3,5.7c0.4,2.2,3.8,5.6,4,5.3c2.5-3.5,3.1,0,4,1c2.3,2.4,3.1-0.3,4.4-1.2c1.6-1.1,2.2-2.6,0.2-3.9
		c-1.6-1.1-2.8-2.3-3.4-4.1C280.8,211.6,278.8,211.4,275.6,211.2z M190.6,251.3c1.5-0.2,4.2,0.7,4.7-1.2c0.6-2.4-2.3-3.3-4.1-4.1
		c-2.5-1.1-5.5-0.4-7.9-2.3c-1.2-1-3-1.8-4.5-0.4c-1.4,1.4-0.7,3.1-0.2,4.7c0.5,1.7,1.5,3.1,3.5,2.7
		C184.9,250.1,187.6,251.3,190.6,251.3z"/>
</g>
</svg>
