<?xml version="1.0" encoding="utf-8"?>
<!-- Generator: Adobe Illustrator 22.0.0, SVG Export Plug-In . SVG Version: 6.00 Build 0)  -->
<svg version="1.1" id="Layer_1" xmlns="http://www.w3.org/2000/svg" xmlns:xlink="http://www.w3.org/1999/xlink" x="0px" y="0px"
	 viewBox="0 0 464.8 464.8" style="enable-background:new 0 0 464.8 464.8;" xml:space="preserve">
<style type="text/css">
	.st0{fill:#073256;}
</style>
<g>
	<path class="st0" d="M46.6,243.3c-5.2,0.2-10.1-1.4-15.1-2.7c-0.5-0.1-1-0.3-1.4-0.6c-7.4-5.3-16.3-7.3-24.1-11.6
		c-1.1-0.6-2.3-1-3.3-1.7c-3.6-2.4-3.7-5.9,0.1-7.9c3.5-1.9,7.2-3.5,11-4.7C48,203.5,82,192.5,117.6,188c11.3-1.4,22.6-2.6,33.9-3
		c9.9-0.4,18.1-4.2,25.8-9.8c9.1-6.5,18.7-12,29.2-16c7.6-2.9,9.2-1.9,9.6,6.4c0.1,2.1,0.1,4.3,0.4,6.4c1,7.7,3.7,14.5,11.5,18.9
		c-3.8,1.6-7.4,0.2-11.1,2.1c4.7,0.9,8.8,1.7,12.8,2.6c17.1,3.8,34.2,7.5,51.2,11.6c7.2,1.7,13.5,0.7,19.7-3.1
		c7.4-4.6,14.7-9.4,23-12.6c1.3-0.5,2.6-1,3.9-1.4c5.4-1.5,7.2,0.3,5.8,5.6c-0.4,1.6-0.8,3.1-1.3,4.7c-1.9,6.8,0.1,12.5,4.6,17.6
		c0.6,0.7,1.6,1.2,1.6,2.7c-3.4,0.9-6.8-1.2-10.7,0c10,1.9,19.6,3.1,29.2,3.8c0.7,0.1,1.5-0.2,2.1-0.5c22.9-9.3,46.2-16.8,70.7-20.7
		c9.8-1.5,19.7-1.5,29.4,1c1.6,0.4,3.1,1,4.6,1.6c1.6,0.7,1.8,1.8,0.3,2.7c-4.9,3.1-9.3,6.8-13.4,10.8c-2,1.9-4.2,0.9-6.2-0.4
		c-0.9-0.6-1.6-1.6-2.9-0.5c-5.3,4.4-12,6.1-18,9c-9.1,4.4-18.4,8.5-26.9,14c-4.5,2.9-5.3,5-3.5,10c1,2.8,2.4,5.5,3.6,8.2
		c0.7,1.7,2,3.5,0.5,5.3c-1.4,1.7-3.5,1.7-5.6,1.5c-6-0.8-11.7-2.9-16.8-6.1c-7.5-4.7-15.1-9.4-21.3-15.8c-1.2-1.3-2.7-2.4-4.5-2.5
		c-8.7-0.2-17.4-1.3-26.2-0.1c4,0.7,7.9,1.3,12.8,2.1c-2.7,1.7-4.5,2.8-6.3,4.1c-4.1,2.9-4.5,5.4-1.8,9.5c0.8,1.1,1.7,2.2,2.5,3.3
		c0.6,0.9,1.2,2,0.5,3.1c-0.7,1.1-1.9,1.1-3,0.9c-3.6-0.6-7-1.8-10.2-3.5c-7.2-3.8-13.9-8.3-19.6-14.3c-4.1-4.4-8.7-6.7-15-5.5
		c-4.7,0.9-9.6,0.8-14.4,1.6c2.1,0.3,4.2,0.5,6.2,0.8c2.4,0.3,3.2,1.5,1.7,3.5c-4.3,6-7.4,12.4-8.3,19.8c-0.4,3.3-3.2,4.2-6.7,2.4
		c-4.1-2.1-7.8-5-11.2-8.1c-3.4-3-6.6-6.1-9.9-9.1c-4.2-3.9-9-6-14.9-5.3c-22.8,2.4-45.6,2.4-68.5,2.3c-1.2,0-2.5-0.4-3.9,0.8
		c3.2,2.4,2,5,0.2,7.4c-10.4,13.5-15,28.6-12.4,45.7c0.2,1.3,0.2,2.6-1,3.4c-1.4,1-2.7,0.2-3.9-0.4c-6.2-3.4-10.6-8.7-14.5-14.4
		c-8.4-12.4-14.4-26-19.9-39.8c-1.3-3.2-3-4.2-6.4-4.3c-14.2-0.3-28.4-1.9-42.5-3C50.2,244.5,48.2,244.3,46.6,243.3c1,0,2-0.1,3-0.1
		c1.9,0.1,3-0.5,2.4-2.6c-0.4-1.6-1-3.6-3.2-2.5c-2.9,1.4-5.6,0.9-8.4,0.3c-2-0.4-3.8,0.1-5.6,1.4C38.8,241.8,43.1,241.3,46.6,243.3
		z M226.2,245.9c-6.1-2.2-59.9,0.2-64.4,2.3C183,248.6,204.1,247.4,226.2,245.9z M150.9,248.2c1.3-0.4,3.7,1.5,3.9-0.7
		c0.1-1.9-2.5-1.7-4.3-1.8c-1.6-0.1-3.2-0.4-4.8-0.7c-1.7-0.3-3.5-0.6-1.6-2.9c0.6-0.7,0.7-1.5-0.4-1.6c-3.6-0.4-7.2-0.3-10.6,1.3
		c-0.9,0.4-1.7,1.8,0,2C139.3,244.4,144.6,248.2,150.9,248.2z M89.3,245.3c-1.2-0.9-2.5-0.9-3.9-0.9c-2,0-4.1,0.1-5.9-0.6
		c-5.2-2.1-5.6-2.3-10.6-0.1c-0.7,0.3-1.4,0.4-2.9,0.9C74.3,246.2,81.8,245.3,89.3,245.3z"/>
</g>
</svg>
