<?xml version="1.0" encoding="utf-8"?>
<!-- Generator: Adobe Illustrator 22.0.0, SVG Export Plug-In . SVG Version: 6.00 Build 0)  -->
<svg version="1.1" id="Layer_1" xmlns="http://www.w3.org/2000/svg" xmlns:xlink="http://www.w3.org/1999/xlink" x="0px" y="0px"
	 viewBox="0 0 720.5 720.5" style="enable-background:new 0 0 720.5 720.5;" xml:space="preserve">
<style type="text/css">
	.st0{fill:#073256;}
</style>
<g>
	<path class="st0" d="M502.9,443.7c5.9-2.2,11.7-4.6,17.6-6.7c17-6.1,33.1-13.9,49.4-21.5c2.3-1.1,4.4-1.2,6.8-0.8
		c12.6,2.4,25.2,2,37.7-0.9c2.5-0.6,6.5-0.9,6.7-3.4c0.3-2.8-3.7-2.4-5.9-3.2c-4-1.4-7.6-3.4-10.5-6.5c-2-2-2.3-3.6,0.8-4.8
		c6.3-2.4,12.3-4.9,18.8-0.1c4.2,3.1,9.8,3.1,14.8,3.9c1.1,0.2,2.5,0.3,3.1-0.9c0.7-1.3-0.6-2.1-1.3-2.9c-0.9-1-1.9-1.9-2.8-2.9
		c-1.6-1.8-2.9-3.8-1.8-6.3c1.4-3.1,3.7-5.7,7.1-6.6c2.8-0.7,3,2.1,3.7,3.8c4.4,12,11,22.8,19,32.7c6.2,7.6,13.3,14,23.1,16.7
		c1.7,0.5,3.7,1.4,5.2-0.2c1.7-1.8,0.4-4-0.6-5.5c-11.5-16.3-12.7-35.9-17.7-54.2c-1.5-5.6,0.4-11.2,2.1-16.6
		c6.5-19.9,12.5-40,18.3-60.2c2.9-10.2,5.9-20.5,8.9-30.7c0.5-1.6,0.6-3.9,2.1-4.4c6-1.9,5.6-7.2,6.9-11.7c1.3-4.8,3-9.5,4.4-14.3
		c0.7-2.4,1.4-4.8,1.7-7.3c0.2-1.6,0.7-3.6-1.2-4.5c-1.9-0.9-3,1-4.1,2.1c-17.5,17.5-32.8,36.6-45.2,58.2
		c-9.5,16.5-18.6,33-25.8,50.7c-1.9,4.6-6.8,5.6-11.1,2.2c-3.2-2.5-5.8-5.5-6.8-9.6c-1.1-4.2-4.5-5.4-7.2-2.8
		c-7.9,7.9-16.5,4.5-25.1,2.5c-20.8-4.9-41.6-9.3-62.7-12.6c-8.6-1.3-17.1-2.6-25.7-3.7c-17.7-2.3-28.6-16.5-26.2-34
		c1.4-9.7,3-19.3,2.4-29.3c-0.5-7.1-2.7-13.3-6.7-19c-2.8-4-6.8-3.3-10.4-1.8c-6.8,2.9-13,6.7-17.7,12.6
		c-6.9,8.6-12.1,18.4-17.9,27.6c-6.8,10.7-13.5,21.4-20.3,32.1c-3.4,5.3-8.5,8-14.5,8.8c-32.2,4.4-64.1,10.7-95.6,18.3
		c-24.8,6-49.4,12.5-73.7,20.2c-13.8,4.4-27.8,8.2-41.5,12.9c-24.5,8.5-48.3,19-71.9,30c-18,8.4-36.2,16.1-54,24.8
		c-17.4,8.5-34.3,17.7-50.7,28c-0.7,0.4-1.5,0.8-2.1,1.4c-2.1,1.9-5,3.5-4.6,6.7c0.4,3.4,3.7,3.9,6.3,4.9
		c12.7,4.5,26.1,5.4,39.2,7.1c22.3,2.9,44.7,5,67.2,4.1c3.9-0.2,5.3,0.5,2.9,4.6c-2.4,4.1-1.1,6.4,4.3,7.7c9.3,2.2,18.9,2,28.3,2.7
		c19,1.5,38,0.2,56.9,1.3c28.1,1.7,55.9-1.5,83.7-4.1c6.3-0.6,11.4,0.1,15.9,5.6c5.6,6.8,13.2,11,22.1,12.6c4.4,0.8,7.4-0.2,9.6-4.3
		c3.1-5.7,6.2-11.4,10.2-16.6c2.6-3.4,5.8-5,10.1-5.5c30.2-3.8,60.7-5.4,90.7-11.3c8.7-1.7,17.2,1.2,25.8,1.8
		c21.9,1.7,43.8,3.9,65.7,5.5c14,1.1,27.9,0.3,41.8-1.1c3.2-0.3,6.3-0.9,9.2-2c1.6-0.6,3.2-1.6,3-3.5c-0.2-2.1-2.1-2.3-3.8-2.5
		c-15.2-2.2-30.4-4-45.5-6.1c-13.5-1.9-26.9-4.3-40.4-5.8C503,444.7,503,444.2,502.9,443.7z M230.7,442.3c11.8,0.5,23.3,1.6,34,7
		c1.6,0.8,3.6,0.9,5.2,1.7c1.9,1,5.3,1.8,4.1,4.5c-1,2.1-3.9,3.7-6.8,1.8c-0.4-0.3-0.8-0.7-1.3-0.8c-1.2-0.3-2.4,0.2-2.1,1.4
		c1.8,6.8-4.7,4.9-7.3,6.9c-2,1.5-4.8,0.5-5.5-2.3c-1-3.7-3.2-3.2-5.7-2.2c-5.1,2-10.1,4.5-15.4,5.8c-8.7,2.2-17.5,3.4-25.4-2.8
		c-1.3-1-2.7-1.1-4.3-1c-6.1,0.2-12.2-0.9-18.2-1.5c-7.1-0.7-14.1-1.7-21.2-2c-9.2-0.3-18.4,1.3-27.5-1.6c-0.2,0-0.3-0.1-0.5,0
		c-6.6,2.3-12-1.7-17.8-3.6c-1.5-0.5-3.5-0.8-3.2-3.1c0.3-1.9,2-2.5,3.6-3c5-1.6,10.2-1.9,15.3-1.5c3.7,0.3,7.3-1.2,10.9-0.4
		c9.8,2.2,19.4,0,29.1-0.7c6.4-0.4,12.9-0.7,19.2-2.6c1.8-0.6,3.9,0,5.9,0.8c4,1.5,8.1,2,11.9-0.6c1.2-0.8,2.3-1.5,3.1,0.5
		c1.3,3,3.6,2.7,6.3,2.1C221.6,444,226.1,443.2,230.7,442.3z M396.1,417.3c2.6-2.8,5.4-0.9,7.8-1.5c7.8-2.1,15.7,0.3,23.2,1
		c15.3,1.3,30.6-0.6,45.8,0.3c0.8,0,1.8,0,2.4-0.4c5.3-3.6,11.4-1.7,16.8-1.8c10.2-0.1,19.9-2.4,29.6-4.4c12-2.5,23.8-5.8,35.6-9.4
		c6.3-1.9,13.5-1.2,18.9-5.5c3.2-2.5,6-2.8,9.4-0.9c-1.3,1.8-4.8,2.3-3.6,5c1.4,2.9,4.1,0.8,6.3,0.5c3.3-0.5,6.4-2.5,10.4-1.9
		c-1.3,2.9-3.3,4.2-5.7,3.7c-4.4-0.8-8.2,0.5-12,2.2c-2.4,1.1-5.8,1.2-6.1,4.4c-0.3,3.4,3.9,2.4,6.2,4.8c-4.2-1-7.5-1.7-10.8-2.5
		c-5.4-1.3-10.6,0.2-14.7,3c-3.2,2.2-6.5,3.7-10,5.3c-7.4,3.4-15.5,1.5-23,3.4c-4.4,1.1-8.5,0.8-12.6-0.5c-1.6-0.5-3.4-1.3-4.9-0.6
		c-7.3,3.4-15.4,1.3-23,3.4c-5.8,1.7-11.8,3.4-18,3.3c-4,0-7.8,1-11.6,2.6c-3.9,1.6-8.9,2.5-11.7-0.7c-6-6.9-14.3-7.2-21.8-7.3
		C410.7,422.6,403.9,419.6,396.1,417.3z M313.6,444.3c-1.8-0.6-2.7,0.8-4,1.1c-1.3,0.3-2.8,0.1-2.5-1.4c0.4-2.7,0.5-6.3,3.7-7.1
		c5.9-1.5,11.9-3.3,18.1-2.1c1.2,0.2,2.8,1.6,2.8,1.7c-3.9,2.5,0.5,5.3-0.3,7.9c-0.5,1.6-0.7,3.5-2.4,4.1c-5.2,1.6-9.3,5.1-14.2,7.3
		c-1.6,0.7-3.1,1.5-4.5-0.2c-1.1-1.4-0.4-2.8,0.4-4.2C311.8,449.1,313.8,447.1,313.6,444.3z M564.4,381.2c0.6-1.8,2-1.9,3.3-1.9
		c7.3-0.2,14.2-2.8,21.4-3.9c5.1-0.8,10-2.7,15.3-2.2c1.9,0.2,4.9-0.6,5,1.9c0.1,2.6-0.4,6-3.8,6.8c-2.4,0.5-4.2,1.7-6,3.3
		c-1.1,1-2.7,1.8-4.1,1.3C585.3,383,574.4,385.1,564.4,381.2z M287.2,444.4c-1.7,2.2-4.4,3-5.6,5.5c-1.6,3.2-3.5,3.5-6.2,1
		c-1-1-2.6-1.4-3.9-2.1c-1.1-0.6-1.9-1.3-1.7-2.7c0.2-1.4,1.4-1.6,2.5-1.9C277.2,443,282.1,444.1,287.2,444.4z"/>
</g>
</svg>
