<?xml version="1.0" encoding="utf-8"?>
<!-- Generator: Adobe Illustrator 22.0.0, SVG Export Plug-In . SVG Version: 6.00 Build 0)  -->
<svg version="1.1" id="Layer_1" xmlns="http://www.w3.org/2000/svg" xmlns:xlink="http://www.w3.org/1999/xlink" x="0px" y="0px"
	 viewBox="0 0 530.5 530.5" style="enable-background:new 0 0 530.5 530.5;" xml:space="preserve">
<style type="text/css">
	.st0{fill:#073256;}
</style>
<g>
	<path class="st0" d="M340.1,212.9c-3.1-6.6-3.8-13.6-4.1-20.8c1.6,0.5,1.5,1.7,1.6,2.5c1,19,11.9,30.4,28.3,38.2
		c20.9,9.9,39.6,23.2,56.7,38.7c3.7,3.3,6.5,4,10.1,0.3c1.4-1.5,3.5-3.3,5.7-2c2.6,1.5,1.7,4.2,1,6.3c-1.9,5.7-0.9,10.4,4,14.2
		c1.5,1.1,2.6,2.1,4.2,0.2c9.6-11.7,21.9-20.4,33.4-30c11.8-9.9,22.7-20.5,33.5-31.4c3-3,6.6-5.1,10.2-7.1c1.5-0.9,3.4-2.3,5.1-0.9
		c1.8,1.5,0.3,3.4-0.3,5c-1.7,4.5-3.5,9-5.1,13.5c-0.6,1.5-1.4,3.4-1,4.8c1.4,4.8-1.2,6.4-5.1,6.8c-3.3,0.4-4.8,2.5-6.5,4.9
		c-11.3,16.7-21,34.4-30.7,52.1c-0.8,1.5-1.5,3.1-2.5,4.3c-7.6,9.1-8.3,20-8.5,31.1c-0.2,11.3-1.4,22.6-2.7,33.8
		c-0.2,1.9-0.2,4.4-2.5,5c-2.3,0.6-3.5-1.6-4.7-3.1c-7.4-9.4-12.1-20.3-15.7-31.6c-2.3-7.2-3.6-14.5-4.7-21.9
		c-0.1-1,0.1-2.7-1.7-2.4c-1.3,0.2-1.9,1.4-1.9,2.6c0,1.5,0.2,3,0.4,4.5c0.2,2,0.9,4.2-1.3,5.4c-2.1,1.1-3.9-0.2-5.4-1.5
		c-1.9-1.6-3.5-3.5-5.3-5.3c-2.8-2.7-4.8-6.3-8.9-8.3c-0.6,3.6,0.9,6.5,1.2,9.6c0.2,2.3,0.6,5.1-1.7,6.4c-2.1,1.2-3.6-1.1-5.1-2.3
		c-4.2-3.3-8.3-6.7-12.4-10.1c-2.9-2.4-5.5-2.6-8,0.6c-1.8,2.2-3.9,4.1-6,6c-1.1,1-2,2.5-3.8,1.8c-1.6-0.6-2.2-2.3-2-3.7
		c0.7-6.2-2.7-7-7.8-6.8c-17.5,0.5-35-0.6-52.4-2.5c-4.5-0.5-5.2,0.3-3.5,4.6c4.6,11.2,6.8,23,9.1,34.7c0.9,4.5,0.9,9-1.1,13.2
		c-2,4.2-4.5,4.8-7.6,1.3c-4.1-4.8-7.8-10-11.7-14.9c-10.8-13.5-21.2-27.4-33.9-39.3c-1.6-1.5-3.2-2.6-5.6-2.9
		c-9.4-1-18.9-2.1-28.2-3.6c-5-0.8-8.7,0.8-12.1,4.2c-7.9,7.9-13.4,17.3-17.2,27.8c-1.5,4.2-3.3,8.4-5.7,12.2
		c-2.5,3.9-5.2,3.7-8.2,1c-6.3-5.7-10.6-12.9-13.9-20.6c-4.5-10.5-9.4-21.1-10.4-32.7c-0.3-3.2-2.7-3.4-4.9-3.9
		c-16.3-4.1-33.1-6.5-48.9-12.4c-18-6.8-36.6-12.6-53-23.1c-2.4-1.6-4.6-3.4-5.5-6.3c-0.5-1.6-1.7-2.3-3.1-3
		c-9.4-5.1-18.7-10.3-28-15.3c-6.9-3.7-13.2-8.3-19.1-13.5c-2.7-2.4-6-5.2-5.1-9.2c0.9-4,5-4.9,8.6-5.9c18.2-5.1,36.7-8.1,55.3-11.3
		c24-4.1,48-8,72.3-9.4c21.4-1.2,42.9-1.8,64.3-1.2c18.8,0.5,37.6,1.4,56.2,4.3c7.2,1.1,11-2.4,15.2-7c10.8-12,20.2-25.3,33.1-35.2
		c7.1-5.5,9.2-5.1,16.3,0.3c11.6,8.9,12.7,21.2,11.8,34.1c-0.4,6.2-0.3,12.3,0.8,18.4C334.8,208.2,336.8,210.9,340.1,212.9z"/>
</g>
</svg>
