<?xml version="1.0" encoding="utf-8"?>
<!-- Generator: Adobe Illustrator 22.0.0, SVG Export Plug-In . SVG Version: 6.00 Build 0)  -->
<svg version="1.1" id="Layer_1" xmlns="http://www.w3.org/2000/svg" xmlns:xlink="http://www.w3.org/1999/xlink" x="0px" y="0px"
	 viewBox="0 0 587.4 587.4" style="enable-background:new 0 0 587.4 587.4;" xml:space="preserve">
<style type="text/css">
	.st0{fill:#073256;}
</style>
<g>
	<path class="st0" d="M258.8,252.4c14.5,0.4,28.9,2.2,43.2,4.1c23.4,3.2,46.7,7.1,70.1,10.7c7.7,1.2,15.5,3,23.2,3.2
		c7.9,0.2,16-0.8,22.6-6c5.2-4.1,11.2-3.6,17.1-3.3c2.1,0.1,3.3,2,4.6,3.6c3.1,3.7,6.1,7.5,10.3,10.1c1.3,0.8,3.5,1.5,3.1,3.4
		c-0.4,1.9-2.7,1.5-4.2,1.8c-0.6,0.1-1.3,0.2-1.9,0.5c20.3,3.6,39.9,4.2,58.1-8.8c22.6-16.2,46-31.2,69.1-46.7
		c0.3-0.2,0.5-0.4,0.8-0.6c3.2-1.7,6.5-4.6,10.1-2.1c3.7,2.5,2.2,6.6,1.4,10.2c-0.7,3.1-1.1,6.3-0.3,9.4c1.7,7.4-0.3,13.9-4.1,20
		c-2.5,4.1-4.1,8.2-4.6,13c-0.8,7.5-3.7,8.6-9.9,4.6c-0.8-0.5-1.7-1-2.5-1.7c-3-2.4-4.7-2.1-6.7,1.7c-3.5,6.7-10.6,10.1-16.4,14.3
		c-11.5,8.3-14.2,18.4-9.9,31.4c2.5,7.4,0.1,9.7-7.4,8c-13.4-3.1-25.2-9.8-35.9-18c-10.2-7.8-20.6-10.7-33.5-8.4
		c-21.8,3.9-43.9,5.3-67.5,6.6c6.3,1.5,11.1,2.7,15.9,3.8c-0.1,2.1-1.4,2.3-2.4,2.6c-9.9,3.5-17.2,10.1-22.4,19
		c-2,3.3-3.9,3.5-6.9,1.9c-7.1-4-14.4-7.7-21.4-11.8c-3.7-2.2-7.4-2.2-11.5-1.3c-12.4,2.7-24.8,5.3-37.3,7
		c-5.8,0.8-11.6,1.2-17.4,1.4c-21,0.7-41.9,1.5-62.9,1.8c-11.8,0.1-23.6-0.6-35.4-1.3c-8.4-0.5-11,1.7-12,10.1
		c-0.7,6.3-1,12.7-3.3,18.6c-2,5.1-4.1,5.8-8.7,2.7c-11.6-8.1-21.8-17.6-29.4-29.6c-3.6-5.8-8.1-8.7-15.2-9.4
		c-14.1-1.5-28.6-2.4-41.6-8c-17.1-7.5-35.5-9.3-52.9-14.9c-6.3-2-12.5-4.5-18.8-6.8c-1.9-0.7-4.1-1.4-4-3.8
		c0.1-2.5,2.4-2.9,4.3-3.6c24-8.5,48.5-15.6,73.1-22.1c25.9-6.8,51.7-14.4,78.2-18.5c18.4-2.9,34.2-11.8,50.7-19
		c1.3-0.6,2.2-1.5,3-2.6c6.5-9.1,16.1-13.3,26.3-16.1c7.7-2.1,10.2-0.7,12,7c3.5,14.9,15.2,20,27.5,24.7c2.5,1,7.2,0.8,6.8,3.6
		c-0.4,3.2-4.9,2.3-7.8,2.4c-5.1,0.2-10.3,0.1-15.4,0.1C258.8,251.6,258.8,252,258.8,252.4z"/>
	<path d="M434.4,371.7c0.4-0.6,1.1-1.1,1.6-0.5c0.7,0.8-0.3,0.9-0.8,1.2C435,372.1,434.7,371.9,434.4,371.7z"/>
	<path d="M434.4,374.3c-1-0.9-1.1-1.8,0-2.6c0.3,0.2,0.5,0.4,0.8,0.6c0,0.4-0.1,0.8-0.1,1.2C434.9,373.8,434.7,374,434.4,374.3z"/>
	<path d="M435.1,373.5c0.5,0.3,1.5,0.4,0.9,1.2c-0.4,0.6-1.2,0.2-1.6-0.4C434.7,374,434.9,373.8,435.1,373.5z"/>
</g>
</svg>
