<?xml version="1.0" encoding="utf-8"?>
<!-- Generator: Adobe Illustrator 22.0.0, SVG Export Plug-In . SVG Version: 6.00 Build 0)  -->
<svg version="1.1" id="Layer_1" xmlns="http://www.w3.org/2000/svg" xmlns:xlink="http://www.w3.org/1999/xlink" x="0px" y="0px"
	 viewBox="0 0 369.5 369.5" style="enable-background:new 0 0 369.5 369.5;" xml:space="preserve">
<style type="text/css">
	.st0{fill:#073256;}
</style>
<g>
	<path class="st0" d="M356.1,184c-5.1,0-8.4,4.3-12.6,6.7c-2.6,1.4-4.7,3.7-7.1,5.4c-4.6,3.4-7.1,7.6-6.9,13.6
		c0.3,5.9-1.4,6.8-7.3,5.9c-5.5-0.8-9.8-4-14.3-6.9c-2.1-1.3-4.2-2.8-6-4.5c-6.8-6.3-14.7-7.8-23.6-6.1c-3.7,0.7-7.7,1-11.4,0.8
		c-12.5-0.8-20.8,6.5-29,14.2c-6.7,6.4-8.5,6.7-15.5,0.6c-6.2-5.4-12.6-7.1-21-5.7c-24.2,4.1-48.6,5.3-73.2,4.5
		c-10.7-0.4-10.7-0.4-15.1,9.8c-2.7,6.3-4.9,7-10.6,3.2c-5.3-3.5-9.8-7.9-13.8-13c-2.5-3.1-5.3-5-9.5-5.5
		c-12.7-1.7-25.5-1.5-38.3-2.4c-2.5-0.2-5.1-0.2-6.8-2.5c-0.6-0.8-1.2-1-2.1-0.9c-10.4,0.9-19.2-4.7-28.9-6.7
		c-1.4-0.3-3.2-0.9-3.1-2.7c0.1-2.1,2-2.4,3.6-2.9c6.2-1.9,12.4-4,18.7-5.6c22.1-5.5,43.2-14.7,65.9-18.3c8.4-1.3,16.8-2.5,25.2-3.6
		c5.3-0.6,9.9-2.7,14.2-5.7c5.5-3.9,11.1-7.8,16.8-11.5c7.3-4.8,12.8-3.6,16.7,4.3c3.9,7.8,9.9,12.9,17.4,16.6
		c4.8,2.3,10.4,2.2,15.6,3c15.3,2.3,30.7,4.1,46,6.7c7.6,1.3,13.7-0.5,19.3-5.5c7.1-6.3,12.4-5.4,17.9,2.2
		c6.6,9.1,17.7,14.6,29.6,11.2c11.9-3.5,23.2-8.2,34.7-12.6c6.8-2.6,13.8-5,21-6.4c2.2-0.4,4.9-1.2,6.5,1.1c1.4,2.1-0.2,4.1-1.1,6
		c-1.4,3-2.6,6.1-4.1,9.1C362.3,182.9,360.6,185.6,356.1,184z"/>
</g>
</svg>
