<?xml version="1.0" encoding="utf-8"?>
<!-- Generator: Adobe Illustrator 22.0.0, SVG Export Plug-In . SVG Version: 6.00 Build 0)  -->
<svg version="1.1" id="Layer_1" xmlns="http://www.w3.org/2000/svg" xmlns:xlink="http://www.w3.org/1999/xlink" x="0px" y="0px"
	 viewBox="0 0 718.7 718.7" style="enable-background:new 0 0 718.7 718.7;" xml:space="preserve">
<style type="text/css">
	.st0{fill:#073256;}
</style>
<g>
	<path class="st0" d="M565.5,281.5c-4.5,1.8-8.8,0-13.1,3c8.9,0,17-0.1,25.1,0.1c2.1,0,2.9-1.2,4-2.5c12.8-14.9,25.5-29.9,39.8-43.5
		c14.4-13.7,30.3-25.4,47-36.3c12.6-8.2,25.3-16.2,39.3-21.7c0.6-0.2,1.2-0.6,1.8-0.8c2.8-0.9,6.1-2.9,8.4-0.1
		c2.8,3.2-1,5.4-2.6,7.6c-4.7,6.4-9,12.9-9.8,21c-0.4,4.6-3,5.8-6.9,4.5c-4.1-1.3-6.2-0.3-7.1,4c-0.9,4-3.9,6.9-6.2,10.1
		c-13.6,19.7-27,39.5-40.4,59.4c-1.7,2.6-2.3,6.1-4.2,8.4c-9,10.8-5.3,21.2,0.2,31.9c3.7,7.2,8.7,13.4,13.9,19.4
		c2.1,2.5,4.3,5.1,2.6,8.5c-1.5,3-4.6,1.9-7.2,2.1c-13.9,1.1-24.6-5.8-34.6-14.2c-9.6-8-19.2-16-27.5-25.4c-2.1-2.4-4.3-2.7-7.2-1.6
		c-5.5,2.1-10.6,4.6-15.6,8.2c2.5,0.9,4.3-1.6,7.4,0c-5.9,3.5-8.7,8.9-11.7,14.2c-2,3.6-2.3,6.6,1.1,9.8c3,2.8,2.1,5.3-1.9,6.4
		c-4.9,1.2-9.6,0-14.3-1.1c-3.4-0.8-6.7-1.8-10.1-2.9c-6.7-2.2-12.4-0.6-17.3,4.4c0.2,0.3,0.4,0.8,0.5,0.8c6.5-0.5,6.5-0.5,4.5,6
		c-1.3,4.1-2.8,8.2-3.9,12.4c-1.6,5.9-1.7,11.8,0.3,17.7c0.8,2.2,1.8,4.5-0.3,6.5c-2.1,2-4.4,0.6-6.6,0c-7.6-2.1-15-4.5-22.2-7.7
		c-5.6-2.5-10.8-2.2-15.9,1.7c-15.7,11.8-33,20.6-51,28.2c-6.5,2.7-13.4,4-20,6.3c-2.9,1-5,2.1-4.8,5.9c0.2,3.7-2.9,6.4-4.9,9.1
		c-5.1,6.9-4.2,14.1-1.6,21.4c2.6,7.1,6.6,13.5,10.9,19.6c9.7,13.5,19.7,26.7,29.7,40.1c2.2,3,3.8,6.3,5.3,9.6
		c2.6,5.7,0.2,9.2-6.1,8.5c-5.8-0.6-11.4-2.4-16.8-4.5c-16.2-6.3-30.1-16.5-43.6-27c-20.8-16-37.9-35.9-55.7-55
		c-4.9-5.3-9.9-10.4-14.8-15.6c-2.4-2.6-5.1-3.4-8.9-3.1c-16.3,1.1-32.6,1.9-48.9,2.5c-3.5,0.1-6.1,1.2-8.4,3.7
		c-2.7,3-6,5.3-9.3,7.6c-3.7,2.6-7.4,1.9-8.5-2.1c-2.6-9.2-9-9.4-16.8-9.4c-18.1-0.2-36.3-1-54.4-2.1c-6.6-0.4-13.2-1.8-19.4-4.5
		c-3.6-1.6-6.4-3.7-7.1-7.7c-0.6-3-2.6-3.5-5.1-3.6c-23.6-0.7-46.6-5.4-69.2-11.9c-12.7-3.7-25.9-6.5-37.2-14.1
		c-0.8-0.6-1.8-0.9-2.6-1.5c-7.5-4.7-7.8-10.4-0.8-15.9c5-3.9,10.9-6.6,16.7-8.9c19-7.6,37.9-15.5,57.3-22.2
		c18.7-6.5,37-14,56.1-19.7c11.7-3.5,23.4-6.3,35.3-9c18.6-4.3,37.2-9.1,55.9-13.3c22.1-4.9,44.6-7.7,66.9-11.7
		c8.4-1.5,16.6-3.6,25.1-4.3c3.7-0.3,6.2-3,8.4-5.7c9.8-11.9,15.7-26.2,23.5-39.4c8.5-14.7,16.5-29.7,27.1-43c3-3.8,6-7.6,11.3-8.4
		c3.6-0.6,5.7,0.6,6.2,4.5c1.1,8.1,0.1,16.3,0.2,24.4c0,14.5,3.3,28.3,10.2,40.8c7.2,13.2,18.8,21.6,34.5,22.2
		c21.5,0.8,42.9-0.9,64.4-1.2c4.1-0.1,7.7-1.8,10.5-5c3.3-3.7,7.3-6.9,11.6-9.4c2.5-1.5,5.3-2.1,7.2,0.5c6.5,9,15.6,11.9,26.1,12.2
		c1.3,0,2.6,0.5,3.9,0.8C563.9,280.4,564.3,280.8,565.5,281.5z M478.4,359.3c2.4-2.3,6.4-1.9,8.8-4.1c6.1-5.7,14-8.1,21.1-11.9
		c8-4.3,17.4-5.5,24.6-11.6c2.5-2.1,7-3,5.6-7.9c3.6-1.3,7.3-2.5,10.3-5c0.3-0.2,0.5-0.4,0.8-0.6c9.7-6.5,20.2-11.4,31.6-14.2
		c1.6-0.4,3.3-0.7,4.9,0.1c6.6,3.4,13.2,2.5,20,0.6c1.8-0.5,3.9-0.6,4.4-2.7c0.6-2.5-3-0.8-3.2-3.4c5.4,1.8,6.8-2.5,9.4-6.3
		c-6.7-0.3-12.5,2.2-18.1,4c-4.9,1.5-10.2,4.2-14.7,4.4c-8.6,0.5-15.6,4.1-23,7.1c-2.6,1-4,4.3-6.9,5.5c-6.5,2.7-12.2,7.4-19.7,7.5
		c-0.9,0-1.8,1.4-2.8,1.9c-4.5,2.4-8.5,7-13.5,7.2c-6.4,0.3-11.3,4-17.3,4.9c-1.6,0.2-3.6,0.5-4.7,1.6c-6.6,6.3-15.7,7.2-23.7,9.2
		c-7.5,1.9-13.8,8.2-22.4,6.1c-0.4-0.1-1.2,0.9-1.8,1.5c-0.6,0.7-1.5,1.2-2.1,0.5c-2-2.3-3.4-1.7-5.1,0.5c-1,1.3-2.8,1.3-4.2,0.9
		c-5.6-1.5-11-2.6-15.6,2.6c-0.7,0.8-2.5,0.5-3.8,0.7c-3.5,0.5-7.1,1.1-10.6,1.6c0.1,0.5,0.1,0.9,0.2,1.4c6.3,0,12.6,0,18.9,0
		c6.1,0,12.2,0.2,17.9,2.4c0,0.5-0.1,1.1-0.1,1.6c-7.4,0-14.7,0-22.1,0c0,0.7,0,1.3,0,2c14.4,0,28.9,0.1,43.3,0
		c3.9,0,7.6,0.6,11.4,1.2c1.3,0.2,2.1,1,2.2,2.3c0.1,0.9-0.2,2.1-1,1.9c-4.5-0.8-8.5,3.5-13.1,1.2c-1.7-0.8-3.2,0-4.8,0.7
		c-3.4,1.6-6.4,4.9-9.3,5.7c-6.8,1.9-13,6.2-20.4,6c-2-0.1-3.9,0.5-5.8,1.2c-10.8,4.1-22,6.8-33.3,8.7c-13.4,2.2-26.8,4.9-40.4,5.8
		c-0.7,0-1.2,0.6-0.8,2.1c2.7-0.6,4.6,2.5,6.1,2.9c4.9,1.4,9.3,4.4,14.4,4.9c0.7,0.1,1.6-0.4,2.3-0.9c2.2-1.6,5-2.6,5-6
		c2.8,0.5,5.1,3,8.3,2.3c3.7-0.7,7.7-0.4,11.4-1.2c8.6-1.7,17.3-2.3,25.8-5.3c8.6-3,17.1-6.2,25.9-8.9c7.1-2.1,14.6-3.6,21.2-6.9
		c4.7-2.4,8.8-4.6,14.2-1.1c-0.1-2.5-0.7-4.4,2.2-5.1c12.4-3.2,20-13,29-21.3C503,359.5,490.9,360.9,478.4,359.3z M256,406.2
		c-9.5,0.3-18.5,1-27.4-1.3c-2.5-0.6-5.4-0.1-7.8,1.2c-1.9,1-3.8,0.9-5.8,0.6c-11.4-2.1-22.8-0.1-34.3,0c-3.5,0-6.1,3.8-9.9,2.8
		c-4-1.1-8-0.5-12.1-0.5c-6.5,0-12.8,0.6-19.2,1.1c-1.5,0.1-2.5,0.9-2.9,2.3c-0.3,1.1,0,2.5,1,2.3c2.7-0.3,4.9,1.5,7.7,1.2
		c4.6-0.6,9.4-1,14.1,0.5c2.2,0.7,3.8,1.2,5.7-1c2.6-2.9,4.8-0.6,6.9,1.3c1.7,1.5-1.8,1.8-0.7,3.2c1.8,2.3,14.3,2.7,16,0.1
		c2.4-3.7,5.9-3.5,9.2-3.6c4.1-0.2,8.2,0.5,12.3,1.7c5.2,1.5,10.4,2.1,14.9-2.1c1.2-1.1,2.7-1.6,4.1-1.3c6.2,1.2,11.9-0.1,17.7-2.2
		C249.5,411,253.1,409.9,256,406.2z M202.2,399.8c0.9,1.8,1.8,1.6,2.6,1.6c10.7,0.1,21.3,0.9,31.8,2.8c1.8,0.3,3.7,0.2,5.5,0
		c5.1-0.8,10.1-1.5,15.2,0c2.7,0.8,5.8-1.5,8.6,0.6c0.2,0.2,1.3-0.3,1.6-0.7c0.6-0.7,0.3-1.6-0.2-2.3c-0.8-1.1-2-1-3.1-1.3
		c-1-0.2-2.2-0.4-2.1-1.7c0.1-1.3,1.5-1.2,2.4-1.1c3.3,0.4,3.4-1.7,3.4-4.1c0.1-2.8-0.7-5.3-2.4-7.4c-0.9-1.1-0.9-3.5-2.7-3.1
		c-1.7,0.4-3.8,1.8-3.5,3.7c0.5,3.8-3.8,5.8-2.9,9.6c0.2,1-0.8,1.2-1.7,1.2c-3.9,0-7.4,1.1-11,2.6c-2.3,0.9-4.9,1-7-1
		c-1.5-1.5-3.4-2-4.9-0.3c-3.1,3.6-7.2,3.5-10.5,2.1C214.9,398,208.9,400.4,202.2,399.8z M301.9,398.9c1.3,6.8,7.2,12,13.3,11.3
		c8.3-1,16.5-3.1,24.8-4.8c0.8-0.2,1.6-0.6,2.3-0.9c1.2-0.4,2.2-1,1.8-2.5c-0.3-1.4-1.6-1.6-2.8-1.6c-1.2,0-2.3,0.3-3.5,0.2
		c-5.5-0.5-10.9,0.8-16.5,0.1c-3.2-0.4-7.2-0.2-9.8,1.3c-5.3,3.2-5.1,3.6-8.3-1.4C303,400.1,302.4,399.5,301.9,398.9z M135.1,429.1
		c13.3,0.8,26.1-3.1,39.2-4.2C160.8,422.7,148,426.3,135.1,429.1z M293.5,410c1.3-9,2.6-17,2.3-25.1c0-1.2,0.3-3-1.6-3.1
		c-1.7,0-2.1,1.6-2,2.9c0.1,6.3-0.7,12.5-1.1,18.8C290.9,405.4,291.3,407.5,293.5,410z M594,314.9c8.3,2.9,15.5,1,21.9-4.7
		c1.3-1.2,2.8-2,1.5-4c-1.6-2.4-2.9-0.3-4.1,0.5C607.4,310.5,601.7,314.9,594,314.9z M285.9,395.4c0-3.5,0.1-6.2,0-8.8
		c-0.1-1.4,0.7-3.7-1.2-3.7c-2.3,0-2.5,2.4-2.2,4.2c0.8,4.8,0.5,9.6-0.3,14.4c-0.3,1.8-0.1,3.6,0.1,5.4c0.1,0.9,0.5,2.1,1.8,2
		c1-0.1,1-1.2,1.2-1.9C286.3,402.9,285.7,398.7,285.9,395.4z"/>
</g>
</svg>
