<?xml version="1.0" encoding="utf-8"?>
<!-- Generator: Adobe Illustrator 22.0.0, SVG Export Plug-In . SVG Version: 6.00 Build 0)  -->
<svg version="1.1" id="Layer_1" xmlns="http://www.w3.org/2000/svg" xmlns:xlink="http://www.w3.org/1999/xlink" x="0px" y="0px"
	 viewBox="0 0 417.5 417.5" style="enable-background:new 0 0 417.5 417.5;" xml:space="preserve">
<style type="text/css">
	.st0{fill:#073256;}
</style>
<g>
	<path class="st0" d="M164.7,157.8c-0.3,3.3-0.6,6.6-1.1,9.9c-1.1,7.6,4,14.7,11.8,15.3c27.2,2.2,54.1,7.1,81.2,10.6
		c4.2,0.5,7.9-0.7,11.7-1.8c3.2-0.9,5.8-0.8,8.1,1.9c6.1,7.1,14.6,7.1,22.9,7.7c1.2,0.1,2.7-0.6,3.7-1.3
		c15.5-10.8,33.3-16.6,50.5-23.8c15.5-6.5,31.1-12.9,46.6-19.4c4.5-1.9,9.1-3.2,14.1-2.6c1.3,0.2,2.8,0.3,3.3,1.8
		c0.4,1.6-1,2.4-2.1,3c-5.5,3.2-10.7,6.8-14.1,12.4c-0.7,1.1-1.9,1.7-3,1.3c-3.8-1.1-6.3,1.1-9.1,2.9c-16.9,11.5-34.6,22-50.1,35.5
		c-1.4,1.2-2.8,2.4-4.1,3.7c-5.1,5.1-5.2,6.8-0.6,12.1c2.9,3.3,4.9,7.1,6.3,11.3c1.4,4.3,0,6-4.5,5.6c-8.5-0.9-15.3-5.4-21.6-10.7
		c-0.5-0.4-1.1-0.9-1.4-1.4c-8.1-12.1-19.9-14.1-33.3-12.6c-3.3,0.4-3.1,3.2-5.2,4.4c-1.9,1.1,1,2,1.8,3c1.5,1.9,0,2.2-1.3,2.7
		c-4.8,1.6-9.4,0.2-13.5-2c-6.1-3.2-12.6-4-18.9-2.2c-8.1,2.3-17,2.7-23.8,9.2c-2.7,2.6-7.2,1.5-10.6,0.3c-6.2-2-12.3-1.7-18.6-0.5
		c-20,3.9-40.3,5-60.6,5.3c-1.6,0-3.6-0.8-4.6,0.9c-1.1,1.8,0.9,3,1.7,4.3c3.8,6.1,7.7,12.1,10.3,18.8c0.7,2,1.8,4.3-0.2,6
		c-1.8,1.5-3.9,0.3-5.6-0.6c-9.7-4.8-18.8-11.1-24.1-20.4c-6.6-11.5-16.7-15.4-28.5-17.4c-9.5-1.6-19.1-3.1-28.6-4.7
		c-6.9-1.2-13.4-3.3-19.8-6.4c-6.7-3.2-14.2-4.6-21.4-6.9c-1.1-0.3-2.2-0.7-3.3-1.2c-2.1-1-4.8-1.6-4.9-4.4
		c-0.1-2.9,2.8-3.5,4.8-4.4c7.5-3.3,15.6-4.6,23.5-6.7c25.3-6.8,50.8-12.3,77.1-13.6c4-0.2,7.9-0.9,11.9-1.2
		c6.3-0.4,10.9-3.7,14.6-8.5c4.9-6.3,9.2-13.1,15-18.7c3-2.9,6.4-5.3,10.4-6.7c5.1-1.7,6.8-0.5,7,4.8c0.1,1.7,0,3.3,0,5
		C164.5,157.7,164.6,157.8,164.7,157.8z M125,215.4c0.8-2.5,2.7-1.9,4.3-2.2c6.3-1.2,12.6-1,18.9-1c2.7,0,5.7-2,7.8-0.4
		c4.5,3.4,8.8,1,13.3,0.6c4.1-0.3,7.6-5.1,12.2-1.5c1,0.7,3.2-0.2,3.4-2c0.2-2-1.7-1.7-2.9-1.7c-3.2-0.1-6.3-0.2-9.5,0.1
		c-13.3,1.1-26.7,2.1-39.8,0.5c-10-1.3-18.8,3.7-28.4,2.7c-0.3,0-0.7,0.1-1,0.2c-1.2,0.6-2.8,1.4-2.6,2.7c0.2,1.7,2.1,1.5,3.3,1.2
		c4-0.9,7.5,0.6,11.2,1.4c6.4,1.5,12.9,4.3,19.9,1.6C132,215.8,128.4,216.1,125,215.4z"/>
</g>
</svg>
