<?xml version="1.0" encoding="utf-8"?>
<!-- Generator: Adobe Illustrator 16.0.0, SVG Export Plug-In . SVG Version: 6.00 Build 0)  -->
<!DOCTYPE svg PUBLIC "-//W3C//DTD SVG 1.1//EN" "http://www.w3.org/Graphics/SVG/1.1/DTD/svg11.dtd">
<svg version="1.1" id="Layer_1" xmlns="http://www.w3.org/2000/svg" xmlns:xlink="http://www.w3.org/1999/xlink" x="0px" y="0px"
	 width="1000px" height="1000px" viewBox="0 0 1000 1000" enable-background="new 0 0 1000 1000" xml:space="preserve">
<g>
	<path fill="#103356" d="M530.74,459.42c1.94-1.27,3.88-1.77,6.15-1.77c8.31-0.25,16.5-0.76,24.81-0.76c8.09,0,16.29,0,24.38,0.51
		c6.04,0.38,12.19,0.13,18.23,0.25c9.92,0.38,19.85,0.76,29.88,1.14c6.04,0.25,12.08-0.13,18.23,0.25
		c9.71,0.51,19.41,1.01,28.91,2.28c1.19,0.13,2.48,0.26,3.67,0.13c5.83-0.26,11.54,0.51,17.15,1.65c1.94,0.38,3.99,0.76,5.82,0.13
		c6.47-2.15,13.05-0.76,19.63-0.51c4.96,0.25,10.14,0.25,14.67,1.39c8.95,2.41,18.34,1.27,27.5,2.66
		c7.77,1.14,15.96,1.14,24.05,0.51c12.19-1.01,23.3-4.56,33.66-9.75c2.8-1.39,5.93-2.41,8.52-4.05c1.29-0.89,2.7-0.38,4.1,0
		c3.88,1.27,7.44,1.27,11-1.01c6.47-4.05,13.16-7.98,19.74-11.91c1.51-0.89,2.8-1.9,3.45-3.42c0.54-1.14,1.83-1.52,3.02-2.03
		c0.97-0.51,2.05-0.89,1.83-2.03c-0.11-1.14-0.86-1.9-2.16-2.28c-2.91-0.89-6.04-1.27-9.06-1.27c-13.81,0-27.29,1.27-40.77,3.8
		c-4.96,0.89-10.35,0.63-15.32,1.52c-7.98,1.27-15.64,3.55-23.41,5.57c-2.91,0.76-5.93,1.52-8.95,2.03
		c-7.44,1.27-14.78,2.91-22.33,4.05c-11.11,1.65-22.22,1.27-33.33,0.13c-9.71-0.89-19.52-1.27-29.34-2.15
		c-12.84-1.14-25.67-2.4-37.86-5.95c-1.08-0.38-2.8-0.38-2.91-1.52c-0.11-1.01,1.4-1.52,2.37-2.03c2.91-1.65,6.04-2.53,9.6-2.03
		c1.51,0.13,3.02,0.13,3.78-1.14c0.86-1.27,0.54-2.53-0.75-3.67c-0.97-0.89-1.83-1.9-2.8-2.66c-4.75-3.42-6.04-7.72-5.93-12.67
		c0.11-4.31,1.3-8.74,0.11-13.05c-1.08-3.8-1.62-4.05-6.36-4.31c-8.31-0.51-13.27,3.8-18.45,7.85c-5.39,4.18-8.74,9.63-13.27,14.31
		c-2.7,2.79-5.82,5.32-8.52,8.11c-4.64,4.68-11.65,5.32-18.55,5.44c-11.97,0.26-23.73-1.14-35.38-2.78
		c-15.64-2.03-31.28-3.55-47.03-4.18c-13.27-0.51-26.54-1.27-39.91-2.02c-4.86-0.26-9.6-0.89-14.46-1.65
		c3.99-1.9,8.41-1.77,12.84-1.65c1.83,0,4.42,1.01,5.18-0.25c0.86-1.39-1.4-2.66-2.7-3.8c-6.69-5.96-9.92-13.05-10.25-21.03
		c-0.11-2.66-0.97-5.19-0.65-7.85c0.21-1.27-0.86-2.15-2.27-2.66c-3.34-1.14-6.79-1.52-10.35-1.39c-1.29,0-2.59,0.51-3.34,1.14
		c-2.05,1.77-4.75,2.66-7.23,3.67c-8.84,3.42-14.24,9.63-19.42,15.83c-2.27,2.66-4.21,5.45-6.69,7.98
		c-3.56,3.8-8.84,5.19-14.45,5.83c-10.14,1.14-20.39,0-30.53-0.13c-11.76-0.13-23.52,0.51-35.27,1.01
		c-12.51,0.51-24.92,1.14-37.32,1.9c-11,0.64-21.9,2.03-33.01,2.66c-5.18,0.25-10.14,1.9-15.21,3.17
		c-10.36,2.53-19.96,6.59-30.2,9.37c-7.77,2.15-15.96,2.15-24.16,2.53c-11.22,0.51-21.9,2.66-31.07,8.61
		c-5.07,3.29-11.22,4.31-17.69,4.94c-9.71,0.89-19.31,0.63-29.02,0.25c-4.21-0.13-8.41,0.38-12.62,0.51
		c-12.51,0.13-24.92,0.13-37.43-0.25c-11.33-0.38-22.65,0-33.98-0.13c-6.04,0-12.19,0-18.23,0.25c-0.86,0-1.73,0.13-2.37,0.38
		c-1.29,0.51-3.45,0.38-3.02,2.15c0.32,1.52,2.05,1.77,3.67,1.77c6.47,0.25,13.05,0.38,19.52,0.51c10.57,0.25,21.03,0.5,31.6,0.76
		c8.52,0.25,17.15,0.5,25.67,0.76c6.04,0.25,12.19,0.51,18.23,0.76c3.34,0.13,4.53,1.52,4.42,4.31c-0.22,6.21-0.43,12.29-0.54,18.49
		c0,0.76,0,1.52-0.32,2.15c-0.65,1.52,0.22,2.53,1.94,4.05c0.75-9.88-0.11-19.25,2.16-28.5c0.97,12.29,0.86,24.58,0,37.24
		c1.73-0.89,1.73-1.9,1.51-2.91c-0.43-2.28-0.21-4.56,0.54-6.84c0.86-2.91,0.11-5.83,0.54-8.87c0.75-5.45,0.65-11.02,0.86-16.59
		c0-1.52,0.86-2.15,2.59-2.15c8.41-0.13,16.72-0.13,25.02,0.76c1.62,0.12,1.29,1.26,2.27,1.65c0.97-0.13,0.75-0.63,0.97-1.14
		c0.22-0.51,0.43-1.01,1.19-1.01c0.76,0,0.97,0.51,1.29,1.01c0.32,0.63,0.65,1.27,1.08,1.77c1.29,1.77,3.67,1.9,5.39,0.38
		c0.65-0.51,1.08-1.14,1.73-1.9c0.43,0.63,0.65,1.14,1.19,1.9c1.62-2.16,2.59-2.03,4.1,0.13c0.86,1.14,3.67,1.52,5.29,1.65
		c10.57,0.88,20.6,4.94,31.28,4.31c8.63-0.51,17.26,0,25.89-1.27c3.88-0.64,7.98-0.51,11.97-0.76c5.82-0.25,11.76-0.88,17.58-0.76
		c4.85,0.13,9.6,0.38,14.45,0.25c1.51,0,2.16,0.76,2.48,1.77c1.62,5.57,2.8,11.15,5.18,16.47c1.51,3.17,2.7,6.59,4.85,9.63
		c1.29,1.65,1.19,3.67,2.48,5.32c5.29,6.33,9.92,13.05,16.94,18.49c3.56,2.79,7.01,5.57,10.79,8.11c0.65,0.5,1.4,0.89,2.27,1.27
		c6.36,2.15,9.38,0.88,11.76-4.43c0.86-2.03,1.19-4.05,1.62-5.96c0.76-3.54,4.75-5.57,6.37-8.61c1.29-2.53,3.13-4.81,4.53-7.22
		c0.97-1.78,2.48-3.55,4.42-4.94c5.5-3.8,4.75-7.47,0.75-11.91c-4.31-4.81-11.11-6.71-16.83-9.88c-3.13-1.65-5.72-3.55-7.66-5.95
		c-1.4-1.77-0.76-2.66,2.05-2.66c4.85,0,9.71,0.51,14.56,0.25c11.11-0.38,22.22,0.76,33.33-0.25c7.33-0.63,14.89,0,22.22,0.13
		c11.22,0.12,22.44,0.25,33.76,0.5c9.06,0.13,18.23,1.14,27.18,0.63c10.35-0.63,20.39,1.27,30.53,1.27c3.77,0,6.9,1.39,9.49,3.29
		c5.07,3.8,11,6.59,15.96,10.39c3.99,3.04,9.6,4.18,15.1,4.31c4.1,0.13,7.33-1.9,9.17-4.69c2.48-3.67,6.36-5.45,11.43-5.83
		c2.8-0.25,5.5-0.88,7.66-2.41c1.73-1.14,1.94-2.02,0.54-3.8c-2.7-3.29-7.22-3.67-11.22-4.69
		C538.4,462.85,534.3,461.83,530.74,459.42z"/>
</g>
<g>
	<path fill="#103356" d="M435.49,538.19c22-0.36,43.27-2.88,64.91-8.29c19.11-4.69,38.94-6.85,58.78-2.52
		c8.29,1.8,15.51-0.72,20.55-7.93c7.21-10.82,14.42-21.28,21.64-32.09c5.77-8.29,11.9-18.03,22.72-16.23
		c10.82,1.44,12.26,12.98,14.42,22c2.16,9.74,5.41,19.11,5.05,29.21c0,5.77,2.89,7.93,8.29,8.66c4.69,0.36,9.74,0.72,14.42,1.8
		c7.57,1.44,13.7,0,19.11-6.13c11.18-11.9,19.11-10.46,26.32,4.33c1.8,3.25,3.25,3.97,6.13,2.16c1.8-1.08,3.61-2.16,5.41-3.61
		c12.98-7.93,18.03-6.85,24.88,6.49c2.88,5.77,6.85,8.65,13.7,8.29c1.08,0,2.52,0,3.61,0c19.11,4.69,35.34,1.44,46.52-16.59
		c2.52-3.97,7.21-9.01,13.34-6.85c5.41,2.16,6.85,7.93,8.29,13.34c3.25,14.42,3.61,14.06,18.03,15.87
		c20.19,2.89,39.31,0.72,58.42-6.85c22-9.02,45.44-11.18,68.51-14.78c9.74-1.44,13.7,2.88,11.54,12.26
		c-1.44,5.77-3.61,11.54-6.13,16.95c-2.88,5.41-7.93,7.21-12.62,2.88c-5.05-4.33-9.02-3.25-14.79-1.44
		c-24.16,8.29-48.32,14.42-73.92,6.13c-9.38-2.88-18.75,2.16-28.49,3.25c-14.78,1.8-29.93,3.61-44.71,3.25
		c-15.87-0.36-31.73,1.8-47.6,1.8c-9.02,0-11.54,6.85-15.15,12.26c-7.57,10.46-11.9,12.98-21.64,5.05
		c-14.06-11.54-28.13-11.9-44.35-8.65c-9.74,1.8-19.83,1.08-29.57,1.44c-5.77,0.36-8.29,2.88-8.66,9.01
		c-1.08,13.34-4.33,25.96-9.74,38.22c-6.13,12.98-14.06,14.42-24.52,5.05c-12.62-11.54-19.83-26.32-27.04-41.11
		c-4.33-8.66-9.38-12.62-19.47-12.26c-26.32,1.08-51.93-4.69-76.81-12.62c-18.03-5.77-36.78-5.77-55.17-6.13
		c-20.55-0.36-40.39-3.97-60.94-3.97c-10.1,0-20.55-0.36-30.65-1.08c-3.61-0.36-9.01,0-8.65-5.41c0.36-4.69,5.41-4.33,8.65-4.69
		C369.86,543.96,402.31,538.19,435.49,538.19z"/>
</g>
</svg>
