<?xml version="1.0" encoding="utf-8"?>
<!-- Generator: Adobe Illustrator 22.0.0, SVG Export Plug-In . SVG Version: 6.00 Build 0)  -->
<svg version="1.1" id="Layer_1" xmlns="http://www.w3.org/2000/svg" xmlns:xlink="http://www.w3.org/1999/xlink" x="0px" y="0px"
	 viewBox="0 0 399.6 399.5" style="enable-background:new 0 0 399.6 399.5;" xml:space="preserve">
<style type="text/css">
	.st0{fill:#073256;}
</style>
<g>
	<path class="st0" d="M399.6,138.1c-6.1,2.2-9.3,8-14.8,10.9c-3.2,1.7-3.5,5.4-6,7.8c-9.3,8.9-18.3,18-27.4,27.1
		c-3.9,3.9-7.9,7.6-11.3,12c-2.3,3-2.7,5.8-0.5,9.1c3.4,5.3,6.6,10.8,9.8,16.3c0.6,1.1,1.7,2.5,0.8,3.7c-1.1,1.5-2.8,0.5-4.1,0.1
		c-6.1-2.1-11.4-5.7-16.2-9.8c-5.5-4.8-11.5-9.2-15.9-15.1c-1.6-2.2-3.6-2.8-6.4-2.6c-6.1,0.5-11.9,1.6-17.3,4.2
		c-3.7,1.8-3.8,3.1-0.3,6.6c-6.5,1.2-12.5,1.1-18-1.9c-8.3-4.5-16.8-6.3-26.1-1.9c2.4,1,5.5,0.2,7.9,2.9c-7.2-0.3-9.4,4.5-11.1,9.7
		c-1.1,3.3-3.6,3.3-6.1,2.5c-4.2-1.5-8.5-3-12.5-5.1c-4.1-2.2-8-2.5-12.5-1.6c-16.3,3.5-32.5,7.6-49.2,8.5
		c-12.8,0.7-25.4,3.2-38.3,3.4c-6.4,0.1-7.9,1.3-8.2,7.9c-0.3,7.8,0,15.7,0,23.5c0,4.1,1.1,9.9-2.6,11.4c-4,1.6-6.9-3.9-9.2-7
		c-7.1-9.5-12.6-20-17.2-31c-1.8-4.3-4-6.9-9.3-7.2c-15.7-0.8-31-3.7-46.3-7.6c-5.2-1.3-10.1-3.3-15-5.3c-1-0.4-2.7-1.4-2.7-2
		c0.6-5.5-4.3-5.3-7.1-7.2c-0.5-0.4-1.4-0.4-1.8-0.9c-1.8-1.9-4.8-3.4-4.7-6.1c0.1-3.2,3.6-3.5,6.1-4.3
		c32.1-9.6,64.8-17.1,98.2-20.3c10.9-1,19.1-4.9,25.9-13.4c7.2-8.9,15.1-17.5,25.9-22.3c1.8-0.8,3.7-2.3,5.6-1
		c2.1,1.4,0.6,3.7,0.3,5.6c-1.1,6.4,0.1,12.7,1.5,18.8c1.5,6.7,7.3,8.5,13.1,10.1c1.6,0.4,3.4-0.2,4.9,1.3c-1,2.1-3.3,0.8-5,1.7
		c24.1,1.3,47.7,4.6,71.3,7.7c7.3,1,13.7,0.2,19.9-4c6.7-4.5,6.9-4.3,12.3,1.7c2.6,2.9,5.9,4.3,9.6,4.9c2.1,0.3,4.3,0.4,6.2,1.6
		c-1.1,1.4-2.6,0.3-3.7,1c0.1,0.1,0.3,0.3,0.5,0.3c2,0.1,4.1-0.2,6,0.4c9,3,15.8-0.6,23.3-5.5c22.7-14.7,46.6-27.2,71.1-38.5
		C395,138.2,396.9,137,399.6,138.1z M148.1,211.2c3.4,0.7,6.2-3,8.9-2.1c6.7,2.2,10.5-2.2,15-5.3c2.2-1.5,0.3-2.9-1.1-3.1
		c-8.4-0.9-16.8-1.3-25.2-0.6c-3.6,0.3-7.2-0.5-10.9,0.5c-1.4,0.4-10.4,4.8-10.9,6.4c-0.4,1.5,0.7,2.1,1.7,2.7
		c1.9,1.2,4.2,1.6,6.2,1.3C137.3,210.2,142.7,210.6,148.1,211.2z M177.2,217.5c-0.1-0.8-0.1-1.7-0.2-2.5
		c-18.3,1.7-36.5,5.4-55.1,4.4c0.1,1,0.2,2.1,0.2,3.1C140.7,223.3,158.9,220,177.2,217.5z M244.7,200.8c-2-1.3-4.4-1.8-6.5-1.6
		c-10.2,0.8-20.2-0.1-30.2-1.3c-2.9-0.4-5,2.5-7.9,2.2c0.1,0.5,0,1.2,0.2,1.3c2.8,1.7,5.7,2.4,8.9,1.5c2.7-0.8,5.3-1.9,8.2-1.3
		c1.1,0.2,2.7,0.1,2.2,1.8c-1.3,4.2,1.4,1.9,2.4,1.4c6.1-2.9,12.3-3.6,18.8-2.3C242.3,202.7,243.7,202.9,244.7,200.8z M48.7,215.8
		c1.6,1.7,2.9,1.9,3.8,1.3c4-2.9,8.2-1.8,12.4-0.6c3.2,0.9,6.2-0.4,9.3-0.8c1.1-0.1,2.5-0.7,2.4-2.1c-0.1-1.7-1.7-1.1-2.7-1.3
		C65.1,210.2,57.4,214.1,48.7,215.8z"/>
</g>
</svg>
