<?xml version="1.0" encoding="utf-8"?>
<!-- Generator: Adobe Illustrator 22.0.0, SVG Export Plug-In . SVG Version: 6.00 Build 0)  -->
<svg version="1.1" id="Layer_1" xmlns="http://www.w3.org/2000/svg" xmlns:xlink="http://www.w3.org/1999/xlink" x="0px" y="0px"
	 viewBox="0 0 345.1 345.1" style="enable-background:new 0 0 345.1 345.1;" xml:space="preserve">
<style type="text/css">
	.st0{fill:#073256;}
</style>
<g>
	<path class="st0" d="M344.9,82.8c1,6.3-1.8,11.4-4.3,16.6c-6.3,12.5-12.4,25.1-17.1,38.3c-2.3,6.6-2.2,12.6,0.4,18.9
		c2.8,6.9,5.5,13.9,9.3,20.4c0.7,1.2,1.9,2.7,0.7,4.1c-1.1,1.3-2.8,0.9-4.2,0.8c-2.4-0.2-4.4-1.5-6.4-2.8
		c-8.8-5.6-16.7-12.2-24-19.5c-3.4-3.4-6.9-5.2-12-3.7c-6.9,2.1-14.6,1.3-21,5.8c-1.2,0.9-2.7,1.4-3,3.1c-0.8,3.9-3.6,3.8-6.1,2.5
		c-14.2-7.3-26.5,0.4-39.1,4.9c-3.8,1.4-5.9,4.9-4.5,9.4c1.1,3.6-0.8,4.9-3.9,5.4c-4.3,0.7-8.7,0.4-12.9-0.4
		c-4.4-0.8-8.3-0.8-12.8,1.5c-10,5.2-20.8,8.9-30.9,13.9c-3.5,1.8-6.2,3-4,7.6c0.7,1.4,0.8,3.4,0.5,4.9c-1.5,7.6,1.9,13.7,5.6,19.7
		c3.9,6.4,7.6,12.9,10.6,19.8c1,2.3,2.6,4.9,0.6,7c-2.1,2.3-5,0.8-7.5-0.1c-10.3-4.2-19.1-10.7-27.4-18
		c-6.5-5.7-12.9-11.6-20.1-16.5c-3.4-2.3-6.9-2.9-10.9-1.9c-22.4,6.1-45.4,6.6-68.3,6.3c-15.1-0.2-27.8-10.8-31.4-25.4
		c-2.2-9-0.1-15.2,8-19.8c18.3-10.3,36.8-20.2,56.7-27.2c3.6-1.3,5.7-2.8,4.8-7c-0.4-2.2-0.3-5,2-6.3c2.2-1.2,3.6,1.2,5.1,2.3
		c4.4,3.2,8.7,3.6,14,1.6c15.1-5.9,30.8-9.3,46.8-12c5.1-0.9,10-2.1,15-3.3c4.5-1,7.7-3.6,10.2-7.5c3.8-6.1,7.7-12.1,12.5-17.4
		c2.6-2.9,5.2-6,9.6-5.1c4.6,0.9,5.3,5,6.2,8.8c0.6,2.4,1.2,4.9,2,7.2c3.8,12,8.3,15.3,20.8,15.6c6.6,0.2,13.3,0.8,19.9,1.4
		c4.8,0.4,9.1-0.1,13.1-3.3c4.7-3.8,6.5-3.5,9.7,1.4c3.9,5.9,10,6.8,16.1,7.8c9.9,1.7,18.3,0.4,24.5-9.4
		c5.8-9.1,14.2-16.3,22.6-23.2c4.9-4,9.8-8,14.8-11.9C340.2,94.2,342.1,88.3,344.9,82.8z"/>
</g>
</svg>
