<?xml version="1.0" encoding="utf-8"?>
<!-- Generator: Adobe Illustrator 22.0.0, SVG Export Plug-In . SVG Version: 6.00 Build 0)  -->
<svg version="1.1" id="Layer_1" xmlns="http://www.w3.org/2000/svg" xmlns:xlink="http://www.w3.org/1999/xlink" x="0px" y="0px"
	 viewBox="0 0 399.3 399.3" style="enable-background:new 0 0 399.3 399.3;" xml:space="preserve">
<style type="text/css">
	.st0{fill:#073256;}
</style>
<g>
	<path class="st0" d="M320.3,191c10.5-0.4,19.6-4.5,29.1-6.9c13.1-3.3,26.1-7.1,39.7-7.3c3.4-0.1,8-1.3,9.7,2
		c1.9,3.6-2.3,6.4-4.2,9.4c-2.4,3.8-5.7,5.4-10.2,3.4c-2.9-1.3-5.1-0.5-7.4,1.9c-2.9,3.1-6.6,5.6-10.7,7.3c-4,1.6-7.8,3.7-11.4,6.2
		c-3.3,2.3-5.1,5.5-4.3,9.4c0.9,4.9-1.8,5.2-5.1,4.2c-3.8-1.1-7.5-2.7-10.9-4.8c-1.6-1-3.2-1.9-4.5-3.1c-9.8-8.8-21-10.7-33.5-7.8
		c-6.1,1.4-8.1,3.2-7.8,9.3c0.2,4-2.2,4.2-4.8,3.5c-3.4-0.8-6.7-2-9.5-4.2c-3-2.4-6.3-3.4-10.2-3.6c-18.1-0.8-35.9,2.4-53.8,3.4
		c-3.5,0.2-5.9,2.4-7.3,5.4c-2.1,4.9-6.2,5.7-9.9,3.4c-10.9-6.8-22.4-4.4-33.9-3.1c-15.6,1.7-31.2,2.9-46.8,3
		c-4.4,0-6.4,1.2-6.4,5.9c-0.1,3.3-0.6,6.6,0,9.9c0.4,1.9,0.8,4.1-1.3,5.5c-2.1,1.4-4.2,0.5-6.1-0.7c-6.6-3.8-10.7-10-14.7-16.1
		c-2.4-3.8-5.4-5.4-9.8-5.4c-17.4-0.3-34.3-4.5-51.4-7c-1.7-0.2-3.2-0.9-4.5-2.1c-1.2-1-2.7-2.2-4-1.7c-4.7,2-7.7-1.7-11.2-3.2
		c-4.1-1.8-4.2-5-0.5-7.6c2-1.4,4.4-2.4,6.8-3.1c30.2-8.5,60.7-15.8,92-18.2c12.9-1,23.3-6,32.9-13.8c4.2-3.4,8.8-6.1,13.7-8.1
		c5.4-2.2,8.3-0.4,9.3,5.2c2.3,12.8,6.7,17.2,19.5,18.7c13.9,1.7,27.9,2.6,41.8,2.7c8,0.1,15.9,1.5,24,0.7c9.5-1,16.9-5.8,23.6-12
		c3.1-2.9,6.2-5.6,10.3-7c3.7-1.3,5.9,0,5.9,4.1c0,1.8-0.1,3.7-0.4,5.5c-1,6.5,0.1,8.6,5.9,11.5c6,3,12.6,2.9,19,3.7
		C311.5,190,316.1,190.5,320.3,191z"/>
</g>
</svg>
