<?xml version="1.0" encoding="utf-8"?>
<!-- Generator: Adobe Illustrator 22.0.0, SVG Export Plug-In . SVG Version: 6.00 Build 0)  -->
<svg version="1.1" id="Layer_1" xmlns="http://www.w3.org/2000/svg" xmlns:xlink="http://www.w3.org/1999/xlink" x="0px" y="0px"
	 viewBox="0 0 369.6 369.6" style="enable-background:new 0 0 369.6 369.6;" xml:space="preserve">
<style type="text/css">
	.st0{fill:#073256;}
</style>
<g>
	<path class="st0" d="M313.6,193.5c-6.6,0.8-13.4,0.1-19.8,1.3c-5.7,1.1-11.4,3.1-17.3,4.1c-4.9,0.8-9.9,1.2-14.8,2
		c-7.5,1.3-14.1,3.7-16.8,11.9c-0.8,2.3-2.9,2.1-4.6,1c-1.4-0.9-2.5-2.1-3.8-3.2c-2.7-2.4-5.7-4-9.5-3.1c-25.8,5.6-51.9,8.4-78.3,8
		c-6.5-0.1-7.1,0.6-6.8,7.2c0.2,5.8,2.9,10.9,4.4,16.3c0.4,1.6,1.3,3.3-0.2,4.7c-1.6,1.5-3.5,0.8-5.2,0.1
		c-5.9-2.4-10.9-6.3-15.7-10.6c-3.5-3.1-6.7-6.5-10-9.8c-1.5-1.5-2.9-2.1-3.2,0.8c-0.5,4.3-3,3.4-5.3,1.9c-3.9-2.4-6.8-5.9-8.8-10
		c-1.2-2.6-2.8-3.7-5.6-4.1C79.1,210.4,66,208,53,205.2c-6.5-1.4-12.9-3.3-19.1-5.7c-2.9-1.1-6.6-1.9-5.5-6.8c0.5-2-1.9-1.3-3-1.3
		c-7.8-0.1-14.5-3.3-21.1-6.9c-1.8-1-4.5-1.9-4.2-4.4c0.3-2.4,3-2.9,5-3.6c14.7-5.1,29.7-8.6,45.1-11.2c26.3-4.4,52.9-6.3,79.4-8.1
		c5-0.3,8.7-1.7,11.6-6.2c4.6-7.1,10.1-13.7,17.1-18.8c2.4-1.8,4.9-3.5,7.6-4.7c2.5-1.1,5.3-3.4,7.9-1.7c2.7,1.8,0.6,4.9,0.6,7.4
		c-0.1,5.5-0.4,11,0,16.5c0.4,7,5.5,11.9,14,13.4c11.5,1.9,23.1,3.4,34.6,4.8c15.4,1.9,30.5,5.6,45.8,7.7c7.4,1,14.5-0.3,22.2,3.8
		c6.9,3.8,16.5,2.6,24.9,3.7c3,0.4,4-1.7,5.2-3.7c8.1-12.5,17.3-24.1,29.7-32.8c4.3-3,8.7-5.6,13.6-7.3c1.5-0.5,3.3-1.8,4.7-0.6
		c1.7,1.4-0.1,3-0.5,4.5c-0.4,1.7-1.4,2.9-2.4,4.2c-8.7,10.9-13.7,23.5-15.9,37.2c-0.8,4.8,0.1,9.6,2.1,14.2c3,7.2,6.6,14.2,10.5,21
		c0.9,1.6,3.1,3.3,1.5,5.3c-1.5,1.8-3.8,0.6-5.7,0.1c-9.4-2.2-16.7-8.1-23.6-14.5c-4.7-4.3-9.1-8.8-13-13.8
		C319.7,194.3,317.2,192.6,313.6,193.5z"/>
</g>
</svg>
