<?xml version="1.0" encoding="utf-8"?>
<!-- Generator: Adobe Illustrator 22.0.0, SVG Export Plug-In . SVG Version: 6.00 Build 0)  -->
<svg version="1.1" id="Layer_1" xmlns="http://www.w3.org/2000/svg" xmlns:xlink="http://www.w3.org/1999/xlink" x="0px" y="0px"
	 viewBox="0 0 204.2 204.2" style="enable-background:new 0 0 204.2 204.2;" xml:space="preserve">
<style type="text/css">
	.st0{fill:#073256;}
</style>
<g>
	<path class="st0" d="M107.6,111.1c2.4,3.1,0.3,5.7-1.3,7.8c-1.8,2.4-4.5,1.1-6.3-0.3c-4.1-3.2-8.6-3.2-13.3-2.1
		c-8.8,2-17.9,1.1-27,2c0.6,1.8,1.4,3.4,0.4,5.3c-1.8,3.7-1.9,7.7-1.2,11.7c0.2,1.3,0.7,2.8-0.8,3.6c-1.6,0.9-2.9-0.2-4-1.3
		c-3.8-3.7-6-8.3-7.9-13.2c-1.2-2.9-1.3-6.9-4.4-8.1c-4.9-1.8-10-3.7-15.4-3.5c-2.9,0.1-1.8,2.3-1.5,3.7c1.5,8.2,3.9,16.2,4.2,24.6
		c0.2,6-1.2,8.1-6.4,8.5c-7.3,0.5-9.4-1.5-10.4-7.4c-1.8-10-1.7-20.5-8.1-29.4c-7-9.7-4.2-19,2.3-27.6C9,82,10.5,78.3,11,74.2
		c0.6-5.5,3-10.5,4.5-15.8c1-3.8,5-4.8,11.2-3.7c3.7,0.7,5.4,2.6,5.2,6.5c-0.2,7.3-2.8,14-5,20.8c-2.9,9.3-1.1,11.7,8.7,11.6
		c5.9-0.1,11.5-1.9,17.3-2.5c2-0.2,3.5-1.8,4.9-3.2c4.2-4.5,8.3-9.1,11.7-14.3c3-4.6,6.9-8.1,12.5-9.3c1.5-0.3,3.1-0.4,4.1,1
		c1,1.3,0,2.5-0.5,3.7c-1.3,3.4-2.5,6.9-3.9,10.3c-1.4,3.5,0.3,5.9,1.7,9.1c1.9,4.4,5,3.3,7.7,3.6c10.1,1.1,20.2,1.7,30.3,2.5
		c3.1,0.2,5.9-0.8,8.6-2.1c2.1-1,4.5-2,6.3,0.6c3.3,4.9,8,4.5,12.5,2.8c9.7-3.6,19.2-7.7,28.7-11.5c6.8-2.7,13.7-5.2,21.1-5.8
		c2-0.2,4.4-0.4,5.4,1.7c1.1,2.1-1.4,3-2.4,4.4c-1.8,2.4-3.1,5.7-7.1,2.8c-1-0.7-2.2,0.5-3.1,1.1c-8.6,5.4-17.1,10.9-25.8,16.3
		c-3.3,2-4.5,4.2-1.9,7.7c1.1,1.5,1.9,3.5,0.2,5c-1.6,1.4-3.7,0.7-5.1-0.4c-2.4-1.8-4.4-4-6.7-6c-8.3-7.1-15.4-6.7-22.3,1.8
		c-1.8,2.2-3.2,1.7-5.2,1C116.1,110.5,116.1,110.5,107.6,111.1z"/>
</g>
</svg>
