<?xml version="1.0" encoding="utf-8"?>
<!-- Generator: Adobe Illustrator 22.0.0, SVG Export Plug-In . SVG Version: 6.00 Build 0)  -->
<svg version="1.1" id="Layer_1" xmlns="http://www.w3.org/2000/svg" xmlns:xlink="http://www.w3.org/1999/xlink" x="0px" y="0px"
	 viewBox="0 0 391.7 391.7" style="enable-background:new 0 0 391.7 391.7;" xml:space="preserve">
<style type="text/css">
	.st0{fill:#073256;}
</style>
<g>
	<path class="st0" d="M49.3,213.6c-1.1-2.8-2.2-5.6-3.4-8.3c-1.2-2.8-3.6-3-6.2-3.3c-9-0.7-17.7-2.6-26.4-5.3
		c-4.4-1.4-7.5-4.1-10.5-7.3c-4.2-4.6-3.8-9.5,0.9-13.5c1.5-1.2,3.3-2.5,5.1-3.1c14.7-4.3,28.4-11.6,43.8-13.6
		c11.8-1.5,23.6-2.3,35.4-1.1c9,0.9,17.2-0.1,25.1-4.5c3.9-2.2,8-4.2,12.1-5.9c5.8-2.4,9.6-0.5,11.6,5.5c0.1,0.2,0.1,0.3,0.1,0.5
		c3.3,10.1,3.3,10.2,13.9,8.8c7.1-1,14.1-2.4,21.1-3.8c4.2-0.9,7.5,0.6,10.3,3.6c2.4,2.5,4.5,5.1-1.9,8c14.3,0.8,26.7,0.8,39-1.1
		c36.7-5.6,73.2-12.4,110.2-16.1c18.2-1.8,36.4-4,54.8-1.5c3.1,0.4,6.3,0.9,7,4.5c0.9,3.9-1.2,7.1-4,9.7c-2.5,2.3-5.2,2.1-7.7,0.1
		c-2.3-1.8-4.7-1.5-7.1-0.6c-32.8,11.8-66.8,19.6-100.2,29.5c-12.4,3.7-25.1,6.8-37.6,10.2c-5.7,1.6-10.8,0.8-15.6-2.6
		c-3.9-2.7-8.3-4.3-12.9-5.3c-2.7-0.6-5.1-0.6-4.7,3.4c0.1,0.8-0.2,1.6-0.4,2.5c-1.7,8-5.7,10.4-12.9,6.6
		c-12.5-6.6-25.8-8.4-39.7-7.8c-0.6,0-1.2,0.1-2.2,0.2c6,3.3,6.1,3.7,1.2,8.5c-8.7,8.5-13.9,9.5-22.6,0.9
		c-9.6-9.6-20.8-8.9-32.5-8.6c-2.1,0.1-3.6,0.8-3.6,3.2c0,4.5-1,8.9-2.2,13.3c-0.8,3-4.7,16.6-7.8,20.4c-5.2,6.4-8.8,7-14.8,1.3"/>
</g>
</svg>
