<svg id="Layer_1" data-name="Layer 1" xmlns="http://www.w3.org/2000/svg" viewBox="0 0 437 303.7"><title>Oltrace_Beam_Trawl</title><path d="M468.18,345.12a34.05,34.05,0,0,0-1.22-4.37,17.48,17.48,0,0,1-.82-2.95,13.81,13.81,0,0,0-1.25-4.72c-3.48-7.52-13.93-11.54-28.55-17.15-11.73-4.5-26.09-10-41.32-18.67q-5.22-2.92-10.58-6.42A186.64,186.64,0,0,1,364.82,276a293.82,293.82,0,0,0-23.63-18.58l-2.88-2h0c-26.82-18.21-44-21.55-50.08-22.13h0c-20.3-7.49-63.46,11.27-83.53,25.49A126,126,0,0,1,183.82,271l9.37-13.89-16.9-11.38-20.51,30.44-1,1.5a6,6,0,0,0-2.21-.24c-.07,0-1.83.12-4.47,0-6.82-.28-19.44-2-23.24-10.71-4.21-9.66-2.9-42.35,99.77-136.79a6.09,6.09,0,0,0-8.25-9C135.49,195.37,101.89,244.64,113.7,271.62c6.33,14.48,23.39,17.47,33,18L95.35,365.87l-1.22,1.81c-.73-.1-1.69-.24-2.82-.45-10.42-1.88-36.08-8.79-44.63-32.11-11.15-30.39,3.5-94.36,136.6-226.56a6.09,6.09,0,1,0-8.6-8.63C64.09,209.78,17.18,290.35,35.28,339.41c10.15,27.52,37.5,36.52,51.37,39.38l-7.87,11.67,16.9,11.39,13.91-20.66q5.85-.29,11.42-.63h.55c10.86,0,26.81-.14,50.06-.52h0c14.9-.26,32.81-.65,54.31-1.17,22.3-.55,48.47-1.25,79.16-2.17h.19c7.89-.23,15.37-.49,22.49-.73h0c35.09-1.27,61-2.77,80.22-4.51h.09a.65.65,0,0,0,.2,0v0c22.82-2.05,36.24-4.42,44.48-7.05h0c8-2.56,11.12-5.36,13.21-8.35a13.5,13.5,0,0,0,2.13-10.92Zm-81.6-31.24c.52-.87,1-1.72,1.5-2.58a287.59,287.59,0,0,0,37.73,17.36,159.43,159.43,0,0,1-39.23-14.76Zm-48.25-39.14c5.07,3.77,10.48,8.12,16.22,13.1a195.94,195.94,0,0,0,23,17.15c-.49.88-1,1.79-1.57,2.71a172.72,172.72,0,0,1-15.18-10.84,242.81,242.81,0,0,0-23.95-16.94C337.43,278.11,337.91,276.39,338.33,274.74Zm14.88,31.64a177.29,177.29,0,0,0,16.19,11.5c-2.49,3.54-5.27,7.19-8.39,10.95a207.78,207.78,0,0,1-25.76-14.11c-3.74-2.42-7.54-4.65-11.33-6.71a122.82,122.82,0,0,0,8.6-16.43A226.66,226.66,0,0,1,353.21,306.38ZM298.4,251.93c7,2.51,16.78,7.05,29.16,15.22-.42,2-.94,4.17-1.62,6.54a132.33,132.33,0,0,0-31.07-12.08A36.42,36.42,0,0,0,298.4,251.93Zm23.48,33.42A109.56,109.56,0,0,1,313,302.5a227.25,227.25,0,0,0-38.94-13.87l.89-.94a182.3,182.3,0,0,0,12.88-15.08C294.84,273.85,306.51,277,321.88,285.35ZM305.8,312.64a138.19,138.19,0,0,1-25.86,25.05c-21.64-7.74-33.68-15.58-39.48-20.15a253.57,253.57,0,0,0,23.29-18.84A221.59,221.59,0,0,1,305.8,312.64Zm-92.07-41.09c11.2-7.94,27.44-15.73,42.38-20.35,17.8-5.5,25.44-4,27-3.13.06,1.31-.66,8.76-19.58,28.88-12.58,13.4-27.52,25.13-43.22,35.31a158.65,158.65,0,0,0-23.91-16.39c-4.67-2.7-9.36-5.21-13.8-7.47C191.27,285.32,201.66,280.1,213.73,271.55Zm-47.82,26c15.46,7.2,30,15.54,40.23,23.34-28.65,16.57-58.28,28.27-79.95,35.63Zm-7.48,63.89a429,429,0,0,0,59.63-29.25c2.14,2.92,3.15,5.57,2.77,7.81C220.34,342.86,214.82,354.45,158.43,361.48ZM233.69,363l-16.57.4c11.38-5.5,17.68-12.34,19.13-20.7a23.15,23.15,0,0,0-2.84-15.16c6.11,4.77,16.81,11.65,34.19,18.57A211.64,211.64,0,0,1,233.71,363Zm71.19-2q-21.88.65-40.77,1.17a195.2,195.2,0,0,0,17.71-10.92,337.36,337.36,0,0,0,35.35,9.37Zm-11.09-18.87A146.32,146.32,0,0,0,317,318.13c3.91,2.07,7.81,4.35,11.66,6.82a221.89,221.89,0,0,0,23.89,13.4c-4.28,4.53-9.06,9.16-14.39,13.82A369,369,0,0,1,293.79,342.18ZM383,357.64H383q-15.61-1.31-29.21-3.13,5.85-5.56,10.62-10.83a264.06,264.06,0,0,0,38,12.55C396.47,356.73,390,357.2,383,357.64Zm59.47-6.7h0c-21-2.47-45.41-7.45-69.73-17.08,2.66-3.32,5.08-6.59,7.28-9.76a176.53,176.53,0,0,0,69.33,20.33,6,6,0,0,1,4.66,2.72C455.33,349.26,454.73,351.79,442.5,350.94Z" transform="translate(-31.5 -98.15)" fill="#242c4d"/></svg>