<svg id="Layer_1" data-name="Layer 1" xmlns="http://www.w3.org/2000/svg" viewBox="0 0 408.82 290.08"><title>Oltrace_Beam_Trawl</title><path d="M422.55,240.92l.08,0a32.06,32.06,0,0,0-1.14-4.08,15.72,15.72,0,0,1-.77-2.76,13,13,0,0,0-1.17-4.42c-3.26-7-13-10.8-26.71-16-11-4.21-24.41-9.35-38.66-17.46q-4.89-2.73-9.9-6a175.71,175.71,0,0,1-18.36-13.88,274.65,274.65,0,0,0-22.1-17.39l-2.7-1.87c-25.09-17-41.16-20.16-46.85-20.7-19-7-59.38,10.54-78.15,23.84a276.45,276.45,0,0,1-24.44,15l14.9-22.39-9.05-6.93-10.86,12.45-16.32,18.11-1,1.25c-.87,0-1.16.05-2,.05-.06,0-1.74,0-4.21-.12-6.38-.26-18.19-1.87-21.74-10-3.94-9-2.72-39.62,93.34-128A5.71,5.71,0,0,0,187,31.15C111.36,100.8,79.93,146.9,91,172.14c5.53,12.67,19.85,15.93,29,16.71L59.07,258.74c-11-3.77-25-11.52-30.8-27.19-10.43-28.43,3.28-88.28,127.81-212A5.7,5.7,0,0,0,148,11.5C44.56,114.28.67,189.66,17.61,235.56,24.19,253.42,38.52,262.94,51,268l-9.6,11,27.28,20.93,16.74-25.17c3.87-.2,9.46-.51,12.39-.69h.51c10.16,0,25.08-.13,46.84-.48,13.94-.25,30.69-.61,50.81-1.1,20.86-.51,45.35-1.17,74.06-2h.18c7.38-.21,14.38-.46,21-.68,32.83-1.19,57.07-2.59,75.05-4.22h.28c21.35-1.92,33.9-4.14,41.61-6.6,7.49-2.39,10.4-5,12.36-7.81A12.62,12.62,0,0,0,422.55,240.92Zm-76.27-29.24c.49-.82.94-1.61,1.41-2.42A267.53,267.53,0,0,0,383,225.5a148.91,148.91,0,0,1-36.71-13.81Zm-45.14-36.62q7.11,5.28,15.18,12.25a183.8,183.8,0,0,0,21.51,16.05c-.45.82-.93,1.67-1.46,2.53a159.29,159.29,0,0,1-14.21-10.14,227.48,227.48,0,0,0-22.4-15.85C300.3,178.21,300.75,176.6,301.14,175.06Zm13.92,29.6a165.42,165.42,0,0,0,15.15,10.76c-2.33,3.31-4.93,6.73-7.85,10.24a192.19,192.19,0,0,1-24.1-13.2c-3.5-2.26-7.06-4.35-10.6-6.28a115.13,115.13,0,0,0,8-15.37A210.91,210.91,0,0,1,315.06,204.66Zm-51.28-50.94c6.55,2.34,15.7,6.59,27.28,14.24-.39,1.87-.88,3.9-1.51,6.11a124.33,124.33,0,0,0-29.07-11.3A33.88,33.88,0,0,0,263.78,153.72Zm22,31.26A101.63,101.63,0,0,1,277.44,201a212.86,212.86,0,0,0-36.43-13l.83-.88a170.51,170.51,0,0,0,12-14.11C260.45,174.22,271.37,177.17,285.75,185Zm-15,25.54A129.41,129.41,0,0,1,246.51,234c-20.25-7.24-31.51-14.57-36.94-18.85a236.37,236.37,0,0,0,21.79-17.63A208,208,0,0,1,270.71,210.52Zm-86.15-38.45h0c10.48-7.43,25.68-14.71,39.66-19,16.65-5.14,23.8-3.74,25.26-2.93.05,1.23-.62,8.2-18.32,27-11.77,12.54-25.75,23.52-40.44,33a147.86,147.86,0,0,0-22.37-15.33c-4.37-2.53-8.76-4.88-12.91-7C163.55,185,173.27,180.07,184.56,172.07ZM139.82,196.4c14.47,6.73,28.07,14.54,37.64,21.83-26.8,15.51-54.52,26.45-74.8,33.34Zm-7,59.81v0a401.4,401.4,0,0,0,55.79-27.36c2,2.73,2.94,5.21,2.59,7.3C190.75,238.79,185.58,249.63,132.83,256.21Zm70.41,1.42-15.5.38c10.64-5.15,16.54-11.55,17.89-19.37A21.6,21.6,0,0,0,203,224.46c5.71,4.46,15.72,10.9,32,17.37a198.6,198.6,0,0,1-31.71,15.8Zm66.6-1.87q-20.46.62-38.14,1.1a182.92,182.92,0,0,0,16.57-10.22,317.53,317.53,0,0,0,33.07,8.77ZM301,247.5a344.42,344.42,0,0,1-41.51-9.35v0a136.52,136.52,0,0,0,21.71-22.46c3.66,1.94,7.31,4.07,10.91,6.38a206.61,206.61,0,0,0,22.35,12.54C310.44,238.81,306,243.14,301,247.5Zm41.95,5.12q-14.6-1.23-27.33-2.93,5.47-5.2,9.94-10.13a248.25,248.25,0,0,0,35.55,11.74Q352.77,252,342.93,252.62Zm55.67-6.27h0c-19.64-2.31-42.48-7-65.24-16,2.49-3.11,4.76-6.17,6.82-9.13a165.16,165.16,0,0,0,64.86,19,5.62,5.62,0,0,1,4.36,2.54C410.61,244.78,410,247.14,398.6,246.35Z" transform="translate(-14.07 -9.84)" fill="#242c4d"/></svg>