<svg id="Layer_1" data-name="Layer 1" xmlns="http://www.w3.org/2000/svg" viewBox="0 0 444 276.76"><title>Oltrace_Set_Longline</title><path d="M388.36,207.14v34.53H301.91l44.8-44.8V147l0-.71c0-.11-1.18-11.11,4.7-17.56,3.14-3.44,8.05-5.11,14.59-5,4.87.11,8.48,1.62,11,4.6a20,20,0,0,1,3.89,8.34,6.08,6.08,0,0,0-7.54,9.45l18.61,18.62,1.71-12.06c.12-.83,2.74-20.28-7.37-32.19-4.87-5.73-11.62-8.73-20.06-8.92-10.27-.24-18.3,2.81-23.91,9-8.86,9.78-8,24-7.77,26.7v44.49L284.7,241.67H166.17L211,196.87V147l0-.71c0-.11-1.18-11.11,4.7-17.56,3.14-3.44,8.05-5.11,14.59-5,4.87.11,8.48,1.62,11,4.6a20,20,0,0,1,3.89,8.34,6.09,6.09,0,0,0-7.54,9.46l18.61,18.61,1.71-12.06c.12-.83,2.74-20.28-7.37-32.19-4.87-5.73-11.62-8.73-20.06-8.92-10.25-.24-18.3,2.81-23.91,9-8.86,9.78-8,24-7.77,26.7v44.49L149,241.67H111.64V207.83H28V292h83.64V257.31H220.56l50.86,50.86v44.49c-.25,2.7-1.09,16.92,7.76,26.7,5.42,6,13.1,9,22.85,9h1.06c8.45-.19,15.2-3.19,20.06-8.91,10.12-11.91,7.5-31.37,7.38-32.19l-1.71-12.06-18.61,18.61a6.08,6.08,0,0,0,7.54,9.45,20.07,20.07,0,0,1-3.89,8.34c-2.55,3-6.16,4.49-11,4.6-6.52.12-11.44-1.53-14.58-5-5.89-6.45-4.71-17.45-4.7-17.53l0-50.58-45.82-45.82h150.6v34H472V207.14Z" transform="translate(-28 -111.62)" fill="#242c4d"/></svg>