<svg id="Layer_1" data-name="Layer 1" xmlns="http://www.w3.org/2000/svg" viewBox="0 0 409.72 331.03"><title>Oltrace_Drift_Longline</title><path d="M382,184.27a35,35,0,0,0,13.26-8.54,38.9,38.9,0,0,0,11.45,2.19c.41,0,.84,0,1.24,0,16.29,0,31.61-10.71,45.6-31.86a8,8,0,0,0-13.29-8.78c-11.07,16.72-22.15,25-33,24.69a20.55,20.55,0,0,1-2.5-.25,64,64,0,0,0,5.49-26.5c0-28.48-16.94-50.78-38.57-50.78s-38.58,22.3-38.58,50.78a65.16,65.16,0,0,0,4.1,23.17,24.36,24.36,0,0,1-6.14.89c-19.2.21-35.31-22-35.47-22.22l-6.71-9.48-6.42,9.68c-10.14,15.27-20.55,23-30.87,22.73-18-.34-32.41-23.56-32.53-23.79l-5.95-9.83-7.11,9c-12.85,16.27-25.32,24-37,23.17a23,23,0,0,1-5-.92,65.32,65.32,0,0,0,3.82-22.41c0-28.48-16.94-50.78-38.57-50.78s-38.58,22.3-38.58,50.78a65,65,0,0,0,4.24,23.53,25,25,0,0,1-10.74.86c-15.35-2.28-23.72-20.07-23.79-20.21A8,8,0,1,0,45.86,146c.47,1,11.91,25.73,35.82,29.38a42.25,42.25,0,0,0,21.42-2.5,35.72,35.72,0,0,0,17.51,11.91v17.48C107.16,215.23,94.83,221,83.89,219.35c-16.32-2.43-25.06-21.06-25.14-21.23a6.19,6.19,0,1,0-11.28,5.11c.46,1,11.5,24.86,34.48,28.36,12.31,1.88,25.26-2.48,38.66-12.93v74.66l4.55,2.15a130.88,130.88,0,0,0,12.41,4.91l15.06,32.24v46.51c-.25,2.75-1.11,17.24,7.91,27.2,5.52,6.1,13.34,9.19,23.27,9.19h1.09c8.6-.19,15.48-3.25,20.43-9.08,10.3-12.13,7.63-31.95,7.52-32.79l-1.75-12.29-18.95,19a6.2,6.2,0,0,0,7.67,9.63,20.24,20.24,0,0,1-4,8.49c-2.59,3.05-6.27,4.58-11.24,4.69-6.66.12-11.66-1.55-14.86-5.06-6-6.57-4.79-17.77-4.78-17.86l0-50.33L153.54,305.3c18,4.89,44.11,10,77.27,11.14l14.45,17.08v45.61c-.26,2.75-1.11,17.24,7.9,27.2,5.53,6.1,13.35,9.19,23.28,9.19h1.08c8.61-.19,15.48-3.25,20.43-9.08,10.31-12.13,7.64-31.95,7.52-32.79l-1.74-12.29-19,19a6.2,6.2,0,0,0,7.68,9.63,20.24,20.24,0,0,1-4,8.49c-2.6,3.05-6.27,4.58-11.24,4.69-6.65.12-11.66-1.55-14.86-5.06-6-6.57-4.8-17.77-4.79-17.86l0-51.22-10.42-12.32a441.2,441.2,0,0,0,66.72-5.6l23.93,22.84v45.23c-.25,2.75-1.11,17.24,7.91,27.2,5.52,6.1,13.35,9.19,23.27,9.19h1.09c8.6-.19,15.48-3.25,20.43-9.08,10.3-12.13,7.63-31.95,7.52-32.79l-1.74-12.29-19,19a6.2,6.2,0,0,0,7.67,9.63,20.12,20.12,0,0,1-4,8.49c-2.59,3.05-6.27,4.58-11.24,4.69-6.66.12-11.66-1.55-14.86-5.06-6-6.57-4.79-17.77-4.78-17.86l0-51.61-21.18-20.2c15-2.89,30.77-6.62,47.16-11.4l5.74-1.67V224.23c6.78,5.29,15.15,9.56,24.77,9.88.39,0,.79,0,1.18,0,15.66,0,30.49-10.44,44.12-31a6.2,6.2,0,0,0-10.34-6.83c-11.42,17.27-23,25.9-34.51,25.48C396.87,221.4,388,214,382,207.28v-23Zm-10.3-78.55c8.2,0,17.33,12.13,17.33,29.54a43.34,43.34,0,0,1-2.87,15.9c-2.4,6.1-6.07,10.49-9.94,12.46a9.77,9.77,0,0,1-4.52,1.18c-2.83,0-5.78-1.45-8.44-4.07-3.33-3.31-6.18-8.47-7.72-14.94a45.81,45.81,0,0,1-1.18-10.53C354.35,117.85,363.5,105.72,371.69,105.72Zm-204,68.75c15,1.18,29.77-6,44.07-21.31,7.63,9.2,21.66,22.41,39.47,22.8,13.68.26,26.58-6.91,38.34-21.42,8.3,8.64,23.27,20.92,41.63,20.71a40.59,40.59,0,0,0,14.09-2.68c5.55,6.84,12.74,11.47,20.77,13v6.94l-2.52,3.73c-10.15,15-21.07,22.71-32.45,22.85h-.32c-20,0-36.45-22.74-36.61-23l-5.22-7.38-5,7.53c-10.36,15.6-21.1,23.51-31.94,23.51h-.44c-19-.37-33.87-24.4-34-24.64l-4.62-7.64-5.54,7c-13.25,16.75-26.21,24.81-38.55,23.84-18.44-1.4-30.65-22.5-30.76-22.71l-1.54-2.72v-7.73h0c7.63-1.84,14.41-6.57,19.67-13.29A41.49,41.49,0,0,0,167.69,174.47Zm-54-26.36a44.4,44.4,0,0,1-1.82-12.85c0-17.41,9.13-29.54,17.34-29.54s17.33,12.13,17.33,29.54a45.49,45.49,0,0,1-1,9.6c-1.38,6.55-4.11,11.84-7.38,15.31-2.78,3-5.93,4.63-9,4.63a11.46,11.46,0,0,1-7.2-3C118.6,159,115.54,154.24,113.72,148.11ZM136.54,283V214c7,7.42,17.59,15.65,31.28,16.71,14.91,1.19,29.67-6.31,44-22.24,7.06,8.92,21.24,23.33,39.43,23.72q20.53.39,38.19-22.34c7.7,8.41,22.91,21.9,41.72,21.64,12.57-.13,24.27-6.27,34.88-18.25v70.14C241.61,318,156.6,290.68,136.54,283Z" transform="translate(-45.14 -84.48)" fill="#242c4d"/></svg>