<svg id="Layer_1" data-name="Layer 1" xmlns="http://www.w3.org/2000/svg" viewBox="0 0 288 312.65"><title>Oltrace_Beach_Seine</title><path d="M316.27,406.32a8.68,8.68,0,0,1-7.09-3.64L107.63,121.15A8.72,8.72,0,1,1,121.8,111L323.35,392.54a8.71,8.71,0,0,1-7.08,13.78Z" transform="translate(-106 -93.68)" fill="#242c4d"/><path d="M393.45,180a92.69,92.69,0,0,0-3.93-19,86.85,86.85,0,0,0-11.13-22.8c-13.75-20.13-34.11-31.9-57-38.24a158.08,158.08,0,0,0-16.09-3.52A230.81,230.81,0,0,0,256.14,94q-6.94.31-13.71,1a415.86,415.86,0,0,0-84.56,17.21l-2.33.77-2.92,1-18.49,6.16,23.51,8.55A306.94,306.94,0,0,1,213.84,158c3.73,2.46,7.51,5.08,11.28,7.83,14.75,10.82,29.51,24,41.45,39.49.14.15.25.31.37.46a107,107,0,0,1,7.32,11.06,184.59,184.59,0,0,1,14.54,33.12q2.18,6.48,4.06,13.05c10.84,37.92,14,75.44,14.07,76l1.63,20.25,13.55-15.14C325.93,339.84,401.12,254.64,393.45,180ZM253.12,111.76c19.41-1.25,39.61-.65,58,3.55a62.19,62.19,0,0,1,.62,12.7,72.72,72.72,0,0,1-3.82,19.36q-23.08-16.35-58.06-25A111.18,111.18,0,0,0,253.12,111.76ZM238.71,113c-.66,2.09-1.39,4.26-2.24,6.49q-9.89-1.89-20.58-3.26C223.11,115,230.78,113.89,238.71,113Zm-14.63,30.74c-9.32-6.21-18.36-11.46-26.47-15.79q17.69,1.4,33.2,4.2C228.9,135.87,226.67,139.74,224.08,143.76Zm11.21,7.81A146.74,146.74,0,0,0,244.54,135q35.72,8.43,57.92,25.15c-5.09,10-12.64,20.93-23.5,32.7C266.07,176.56,250.62,162.81,235.29,151.57ZM304.48,242c-4.69-13.43-10.44-26.46-17.43-37.69q16.62-17.48,26-34.87A84,84,0,0,1,326.43,187a88.52,88.52,0,0,1,10.69,33.4v0A234.05,234.05,0,0,1,304.48,242Zm33.41-5.2c-.58,26.89-9.6,53.14-17.38,71a417.9,417.9,0,0,0-11.79-52.7A255.54,255.54,0,0,0,337.89,236.79Zm5.52,48.55c5.36-17.73,9.21-38.33,7.94-59.07v0a231.13,231.13,0,0,0,20-18.93c1.55-1.64,3-3.29,4.49-4.92C372.64,231.44,358.1,261.47,343.41,285.34ZM361,198.59c-3.76,4-7.69,7.84-11.74,11.5a99.79,99.79,0,0,0-11-29.76,98.56,98.56,0,0,0-19.11-23.89,89.89,89.89,0,0,0,6.1-27.89,77.41,77.41,0,0,0-.08-9.16c15.78,5.69,29.41,14.77,38.86,28.59a71.89,71.89,0,0,1,12,33A220.21,220.21,0,0,1,361,198.59Z" transform="translate(-106 -93.68)" fill="#242c4d"/></svg>