<svg id="Layer_1" data-name="Layer 1" xmlns="http://www.w3.org/2000/svg" viewBox="0 0 377.11 280.96"><title>Oltrace_Set_Gillnet</title><path d="M407.15,335.59V116.74a7.23,7.23,0,0,0-5.51-7,6.44,6.44,0,0,0-1.72-.21,7.22,7.22,0,0,0-7.22,7.22v61.68H107.3V116.74a7.23,7.23,0,0,0-14.45,0v109l.94.93-.94.93v36.33l.92.92-.92.91v69.82H61.45v54.89h77.26V335.59H107.3V303.1H116l.07,0,0,0H131.9l.07,0,0,0h22.18l.07-.06.06.06h15.76l.07-.06.06.06h22.18l.05,0,.05,0h15.77l.07,0,0,0h22.18l.06-.06.06.06h15.77l.06-.06.06.06h22.18l.05,0,.05,0h15.79l.05-.06.06.06h22.17L307,303l.07.06h15.76l.06-.06.07.06h22.18l.06-.06.06.06H361l.07-.06.06.06H392.7v32.49H361.31v54.89h77.24V335.59ZM379,192.86l-6.77,6.79-6.79-6.79ZM132,226.68l11.15-11.16,11.16,11.16L143.1,237.83Zm3.21,19.1L124,256.91l-11.15-11.15L124,234.62Zm27-11.16,11.16,11.16L162.2,256.93l-11.15-11.15Zm8-7.94,11.14-11.16,11.15,11.16L181.3,237.83Zm30.23,7.94,11.14,11.16-11.14,11.13-11.13-11.13Zm8-7.94,11.15-11.14,11.14,11.14-11.14,11.15Zm30.23,7.94,11.16,11.16-11.16,11.13-11.13-11.13Zm7.95-7.94,11.15-11.16,11.16,11.16-11.16,11.15Zm30.25,7.94,11.14,11.14-11.15,11.15-11.14-11.13Zm7.95-7.94,11.13-11.14L307,226.68l-11.14,11.14Zm30.22,7.94,11.15,11.16-11.14,11.13-11.15-11.15Zm7.94-7.94L334,215.52l11.15,11.16L334,237.83Zm30.25,7.94,11.14,11.14-11.15,11.15L342,245.78Zm7.95-7.94,11.14-11.14,11.13,11.14-11.13,11.14Zm-8-30.24,11.15,11.15-11.14,11.14L342,207.58Zm-12.3-3.58L334,199.63l-6.78-6.77Zm-25.87,3.58,11.14,11.14-11.15,11.15-11.14-11.14Zm-12.31-3.58-6.79,6.79-6.78-6.79Zm-25.88,3.58,11.15,11.15-11.14,11.14-11.15-11.15Zm-12.31-3.58-6.78,6.77-6.77-6.77Zm-25.86,3.58,11.14,11.14-11.16,11.15-11.13-11.14Zm-12.32-3.58-6.78,6.79-6.79-6.79Zm-25.88,3.58,11.16,11.15-11.16,11.14-11.15-11.15Zm-12.31-3.58-6.78,6.77-6.78-6.77Zm-25.87,3.58,11.14,11.14L162.2,218.73l-11.15-11.15Zm-12.32-3.58-6.78,6.77-6.77-6.77ZM124,196.44l11.14,11.14L124,218.73l-11.14-11.14Zm-16.72-3.58h4.41l-4.41,4.41Zm0,25,8.76,8.77-8.76,8.76Zm0,38.17,8.78,8.78-8.78,8.78Zm23.16,32.58H117.57l-4.7-4.7L124,272.8,135.18,284Zm1.51-23.8,11.13-11.14,11.16,11.15L143.12,276Zm36.67,23.8H155.77l-4.71-4.7,11.14-11.14L173.34,284Zm1.51-23.79,11.15-11.15,11.14,11.14L181.29,276Zm36.69,23.79H193.93l-4.7-4.7,11.15-11.16L211.54,284Zm1.49-23.8,11.14-11.14,11.15,11.15L219.48,276ZM245,288.66H232.13l-4.7-4.7,11.13-11.16L249.7,284Zm1.51-23.8,11.15-11.14,11.14,11.14L257.66,276Zm36.69,23.8H270.31l-4.7-4.7,11.14-11.16L287.9,284Zm1.49-23.8,11.15-11.16L307,264.86,295.84,276Zm36.67,23.8H308.49l-4.7-4.7,11.15-11.16,11.14,11.14Zm1.53-23.8L334,253.72l11.13,11.14L334,276Zm36.67,23.8H346.69L342,283.94l11.14-11.14L364.26,284Zm1.49-23.8,11.16-11.16,11.15,11.16L372.21,276Zm31.65,23.8h-7.85l-4.7-4.7,11.16-11.16,1.39-1.41Zm0-30.35-1.39-1.4-11.16-11.15,11.14-11.14,1.41-1.39Zm0-38.16-1.41-1.42-11.14-11.14,11.16-11.15L392.7,195Z" transform="translate(-61.45 -109.52)" fill="#242c4d"/></svg>