<svg id="Layer_1" data-name="Layer 1" xmlns="http://www.w3.org/2000/svg" viewBox="0 0 446 288.63"><title>Oltrace_Otter_Trawl</title><path d="M472.67,357a33.3,33.3,0,0,0-1.24-4.45,18.09,18.09,0,0,1-.83-3,14.06,14.06,0,0,0-1.28-4.8c-3.54-7.65-14.17-11.74-29.05-17.45-11.94-4.58-26.53-10.18-42-19-3.54-2-7.14-4.17-10.75-6.54a188,188,0,0,1-20-15.09,299.1,299.1,0,0,0-24.08-18.92c-1-.69-1.93-1.38-2.9-2h0c-27.31-18.54-44.79-21.93-51-22.53-20.65-7.61-64.58,11.48-85,25.95-15.47,10.95-27.6,16-36.19,18.28-7.8.09-15.68.14-23.1-.49a59.11,59.11,0,0,1-13.39-2.52c-4-1.34-7.44-3.33-9.44-5.72s-2.91-5.37-2.84-9.25a39.17,39.17,0,0,1,2.77-12.52c3.27-8.7,8.5-17.29,14.18-25.52s12.07-16.27,18.67-24.08,13.57-15.41,20.69-22.87C190,169.46,205,155.08,220,140.82l0,0a6.2,6.2,0,0,0-8.34-9.18c-7.92,6.86-15.77,13.8-23.46,21s-15.34,14.33-22.74,21.82-14.69,15.13-21.7,23.08a315.68,315.68,0,0,0-20.11,24.94c-6.2,8.83-12.08,18.09-16.29,28.86a53,53,0,0,0-3.93,17.86,31.8,31.8,0,0,0,1.34,10.25A28.24,28.24,0,0,0,110,289a32.28,32.28,0,0,0,8,6.75,44.22,44.22,0,0,0,8.71,4A71.65,71.65,0,0,0,143.91,303l2.37.14a9.1,9.1,0,0,0,1.67.87,353.93,353.93,0,0,1,39.55,18.56,175.06,175.06,0,0,1,17,10.66c-50.25,28.74-103,42.78-111.79,45-.35-.06-.73-.09-1.06-.15-.82-.1-1.65-.24-2.46-.39-1.65-.28-3.32-.63-5-1a78.84,78.84,0,0,1-9.65-3,59.55,59.55,0,0,1-17-9.76,41.77,41.77,0,0,1-11.37-14.83,40.58,40.58,0,0,1-3-9c-.41-1.54-.57-3.17-.84-4.76-.12-1.63-.35-3.24-.35-4.91-.44-13.28,3.15-27.14,8.36-40.33a198.61,198.61,0,0,1,8.93-19.58c1.59-3.22,3.42-6.35,5.14-9.54s3.59-6.29,5.54-9.37c15.25-24.82,33.35-48.08,52.43-70.49s39.43-43.87,60.25-64.85h0a6.19,6.19,0,0,0-8.75-8.77c-21.2,20.92-41.92,42.41-61.57,65S74.1,218.53,58,244.14c-2.06,3.17-3.92,6.48-5.88,9.72s-3.78,6.59-5.51,10a215.28,215.28,0,0,0-9.76,20.84C31.13,298.94,26.7,314.36,27,330.86c0,2.06.24,4.13.4,6.19s.52,4.14,1,6.2a57.4,57.4,0,0,0,19.13,32.48,74.71,74.71,0,0,0,21.27,12.63,95.55,95.55,0,0,0,11.57,3.72q2.92.75,5.93,1.31c1,.18,2,.36,3,.5s1.74.25,2.82.35a1.65,1.65,0,0,0,.32,0l.15,0H94.2c9-.34,17.45-.75,25.35-1.23h.39c11.05,0,155.6-3,186.83-3.93H307c8-.23,15.66-.49,22.9-.74,35.73-1.29,62.13-2.82,81.72-4.59a.75.75,0,0,0,.21,0c23.24-2.09,36.9-4.5,45.28-7.17,8.16-2.61,11.31-5.46,13.44-8.5a14.36,14.36,0,0,0,1.68-3.21A14.53,14.53,0,0,0,472.67,357Zm-81.52-34.42a292,292,0,0,0,38.37,17.66,162.26,162.26,0,0,1-39.87-15C390.18,324.33,390.68,323.46,391.15,322.59Zm-50.62-37.23c5.17,3.86,10.68,8.27,16.53,13.35a200.64,200.64,0,0,0,23.38,17.47c-.5.89-1,1.81-1.58,2.73a172.49,172.49,0,0,1-15.45-11A243.81,243.81,0,0,0,339,290.65C339.61,288.81,340.1,287,340.53,285.36Zm15.14,32.22a183.74,183.74,0,0,0,16.48,11.71c-2.52,3.59-5.35,7.33-8.52,11.16a211,211,0,0,1-26.24-14.39c-3.81-2.46-7.67-4.73-11.53-6.82a127.48,127.48,0,0,0,8.77-16.72A239,239,0,0,1,355.67,317.58Zm-55.76-55.41c7.1,2.57,17.08,7.18,29.65,15.47-.4,2-.94,4.25-1.64,6.67A134.75,134.75,0,0,0,296.32,272,37.46,37.46,0,0,0,299.91,262.17Zm23.9,34a113.13,113.13,0,0,1-9.07,17.43,235.76,235.76,0,0,0-39.63-14.14c.32-.3.6-.62.91-.93a184.89,184.89,0,0,0,13.12-15.34C296.28,284.47,308.17,287.73,323.81,296.2Zm-16.37,27.74a140.91,140.91,0,0,1-26.32,25.49h0c-22-7.87-34.28-15.84-40.17-20.48a260,260,0,0,0,23.71-19.18A224.31,224.31,0,0,1,307.44,323.94ZM195.12,308.62c-5.25-2.93-10.51-5.62-15.45-8,9.37-3.37,20.74-9.05,34.05-18.48,11.4-8.07,27.95-16,43.15-20.7,18.12-5.6,25.88-4.09,27.47-3.19.05,1.35-.67,8.91-19.93,29.39-13.16,14-28.83,26.23-45.31,36.79A166.1,166.1,0,0,0,195.12,308.62Zm21.93,35.92c2.81,3.49,3.82,6.23,3.52,8.11-.46,2.75-5.95,14.16-63.41,21.12A438.4,438.4,0,0,0,217.05,344.54Zm17,30.68-16.1.39c13.29-6.43,17.24-13.64,18.35-20.34q1.5-8.82-4.83-18c5.65,4.82,17,12.77,37.09,20.8a216.19,216.19,0,0,1-34.49,17.18Zm72.45-2q-22.26.66-41.46,1.18a198.18,198.18,0,0,0,18-11.1,342.15,342.15,0,0,0,36,9.53Zm33.87-9A378.35,378.35,0,0,1,295.22,354a147.36,147.36,0,0,0,23.59-24.51c4,2.11,7.95,4.43,11.87,7A227.2,227.2,0,0,0,355,350.12C350.64,354.72,345.77,359.44,340.35,364.18ZM386,369.75c-10.63-.87-20.53-1.95-29.78-3.19,4-3.76,7.55-7.44,10.79-11h0a268,268,0,0,0,38.65,12.75Q396.66,369.08,386,369.75Zm60.51-6.82c-21.4-2.52-46.22-7.59-71-17.36,2.71-3.4,5.17-6.72,7.42-10a180,180,0,0,0,73,20.89c.12.39.25.78.37,1.13.18.53.41,1.22.57,1.77C455.81,360.13,453.1,361.42,446.53,362.93Z" transform="translate(-27 -105.69)" fill="#242c4d"/><path d="M396.7,389.7v0a.82.82,0,0,1-.22,0A.82.82,0,0,0,396.7,389.7Z" transform="translate(-27 -105.69)" fill="#242c4d"/></svg>