<svg id="Layer_1" data-name="Layer 1" xmlns="http://www.w3.org/2000/svg" viewBox="0 0 411.96 314.51"><title>Oltrace_Drift_Gillnet</title><path d="M445.51,158a117.09,117.09,0,0,0,9.14-12.14,8,8,0,0,0-8.42-12.24c-3.5-23.6-19-40.86-38-40.86-17.66,0-32.22,14.77-37.06,35.66l-1.23-2.15L362.7,137c-9.86,14.6-20.35,22.05-31.18,22.2-19.33.28-35.51-22.12-35.67-22.34l-6.74-9.54L282.65,137c-10.2,15.36-20.72,23.08-31,22.83-18.12-.34-32.59-23.69-32.71-23.9l-6-9.88-7.16,9.06c-12.92,16.34-25.45,24.19-37.21,23.3C151,157.1,139.11,136.67,139,136.49l-5.5-9.77-2.19,2.48C126.66,107.89,112,92.75,94.09,92.75c-19.58,0-35.33,18.15-38.26,42.66a8,8,0,0,0-11.09,10.34,61.77,61.77,0,0,0,13.65,18.36c4.73,14.77,14.56,25.77,26.73,29.42v17.29c-.72,0-1.44-.11-2.14-.21-16.41-2.45-25.19-21.18-25.27-21.35a6.23,6.23,0,1,0-11.35,5.14c.46,1,11.57,25,34.67,28.51a37.43,37.43,0,0,0,4.09.37v184H417.05l-.09-56.4-.13-22.76-.16-25.93-.08-15.57,0-6.94-.09-15.86,0-8.7-.09-16v-.44l-.07-13.95v0c13-2.8,25.39-13,36.91-30.39a6.23,6.23,0,1,0-10.39-6.87q-13.22,20-26.59,24.4l-.11-17.93C430.4,190.11,441.63,176.27,445.51,158ZM408.19,114.1c8.24,0,17.42,12.19,17.42,29.71a45,45,0,0,1-1.73,12.56c-1.72,6-4.64,10.77-7.95,13.72a11.85,11.85,0,0,1-7.74,3.42c-2.8,0-5.68-1.39-8.28-3.9v0a30.28,30.28,0,0,1-7.67-14,45.84,45.84,0,0,1-1.5-11.76C390.74,126.29,400,114.1,408.19,114.1Zm-241,60.28c15.08,1.19,29.94-6,44.32-21.43,7.67,9.24,21.78,22.53,39.68,22.91,13.87.28,26.74-6.94,38.55-21.52,8.35,8.69,23.39,21,41.86,20.82,13.6-.14,26.14-6.9,37.45-20.14l1.54,1.88c3.63,18.71,14.94,33,29.42,36.88l.09,17.58h0c-14.88-5.57-25.28-23.43-25.4-23.64l-5-8.72-5.62,8.31c-10.2,15.11-21.18,22.84-32.63,23h-.32c-20.14,0-36.65-22.86-36.8-23.08l-5.25-7.43-5,7.57C273.71,203.06,262.91,211,252,211h-.44c-19.11-.37-34-24.53-34.2-24.77l-4.65-7.68-5.56,7c-13.32,16.85-26.36,24.95-38.76,24-18.54-1.4-30.82-22.62-30.94-22.82l-4.28-7.6-5.8,6.51c-9.25,10.4-18,17.61-26.24,21.58V194.05c15.71-3.65,27.87-19.37,31-39.87C139.11,162.46,151.15,173.12,167.23,174.38Zm-51,201,20.62-20.62,20.65,20.62-4.24,4.24-11.63,11.65h-9.52Zm52.59-52.59,20.64,20.65L168.77,364l-20.63-20.64Zm-32,9.31-20.62-20.63,20.64-20.62,20.63,20.62Zm43.29-20.63,20.64-20.64,20.63,20.64-20.63,20.63Zm52.59,11.32,20.64,20.63L232.69,364l-20.64-20.64ZM244,311.44l20.63-20.64,20.63,20.64-20.63,20.63Zm52.59,11.32,20.63,20.63L296.6,364,276,343.41Zm11.32-11.32,20.65-20.64,20.62,20.63-20.64,20.64Zm35.92-28h33.35l-16.68,16.68ZM296.6,300.11l-16.69-16.68h33.37Zm-63.91,0L216,283.43h33.37Zm-63.92,0-16.68-16.68h33.35Zm-63.91,0-3.72-3.73V283.43h20.39Zm-3.72,26.37h0l3.72-3.72,20.63,20.63L104.86,364l-3.72-3.72h0Zm67.63,60.19,4.56,4.57H164.2Zm11.32-11.32,20.64-20.62,20.63,20.62-4.24,4.24-11.63,11.65H196Zm52.6,11.34,4.55,4.55h-9.09ZM244,375.35l20.63-20.62,20.63,20.62-15.89,15.89H259.9Zm52.59,11.34,4.55,4.55h-9.09Zm11.34-11.32,20.63-20.64,20.62,20.62L345,379.59l-11.64,11.65h-9.51Zm52.57,11.3,4.57,4.57H356Zm-20.63-43.26,20.65-20.65,20.63,20.63L360.51,364Zm32-32,20.62-20.62,8.17,8.16.07,13,0,6.12,0,5.66h0l-.16.16-8.15,8.15Zm28.45-44H101.14V255.13h0V232.5h0V220.67c9.76-3.51,19.84-10.49,30.14-20.95,6.32,8.19,18.79,20.91,36.1,22.26,15,1.19,29.83-6.35,44.25-22.37,7.1,9,21.36,23.46,39.65,23.85,13.7.26,26.59-7.26,38.39-22.46,7.69,8.4,22.87,21.76,41.54,21.76h.41c13.61-.15,26.19-7.27,37.5-21.19,6,7.85,16.88,19.32,31.11,22.82v0l0,7.6,0,7.06.05,8.62,0,6.87v.53l0,5.09h0l-.16.16ZM76.67,143.81c0-17.52,9.18-29.71,17.42-29.71s17.42,12.19,17.42,29.71a43.8,43.8,0,0,1-.32,5.46c-1.23,10.82-6,19-11.46,22.42a9.65,9.65,0,0,1-11.28,0c-3.76-2.38-7.23-7-9.42-13.27A44.47,44.47,0,0,1,76.67,143.81ZM101.14,383l3.72,3.72,4.56,4.57h-8.28Zm286.57,8.29-15.88-15.89,20.64-20.64,8.39,8.38.05.05,0,28.1Z" transform="translate(-44.02 -92.75)" fill="#242c4d"/></svg>