<svg id="Layer_1" data-name="Layer 1" xmlns="http://www.w3.org/2000/svg" viewBox="0 0 365.03 360"><title>Oltrace_Purse_Seine</title><path d="M229.57,181.82a2.22,2.22,0,0,0,2,1.87H392.21a2.19,2.19,0,0,0,2-1.76l14.4-53.56c.5-1.76-.61-3.56-2.08-3.45L397,126l-2.55.29-48.71,5.32a48.72,48.72,0,0,0-25.47,9.87,41.41,41.41,0,0,0-8.87,8.7c-2.48,3.16-12.5,14-33.83,14H228.17c-1.41,0-2.38,1.69-2,3.38Zm150.64-36.24a6.88,6.88,0,1,1-6.86,6.89A6.87,6.87,0,0,1,380.21,145.58Zm-17.92,0a6.88,6.88,0,1,1-6.86,6.89A6.89,6.89,0,0,1,362.29,145.58Z" transform="translate(-67.48 -70)" fill="#242c4d"/><path d="M311.39,143a55,55,0,0,1,3.7-4.27,52.08,52.08,0,0,1,5.17-4.42,48.82,48.82,0,0,1,25.47-9.88l48.71-5.31-5-30.57a4.63,4.63,0,0,0-4.56-3.88H368.76a3.88,3.88,0,0,1-3.63-2.55L361,70H311.61l-7.29,12.75a3.74,3.74,0,0,1-3.24,1.87H281a3.81,3.81,0,0,0-3.77,3.27l-10.45,69h10.74C298.89,156.93,308.91,146.11,311.39,143Z" transform="translate(-67.48 -70)" fill="#242c4d"/><path d="M432.52,210.23a18.92,18.92,0,0,0-37.76-1.8c-37.26-14.49-102.81-19-143.51-19-19.13,0-43.75,1-68.34,3.55a18.93,18.93,0,1,0-32.57,4.43c-17.19,3-33,6.95-45.36,12.11a18.42,18.42,0,0,0,.35-3.58A18.93,18.93,0,1,0,83.1,224.57a17.63,17.63,0,0,0,.51,22.09l19.33,44.88-.55,1.22c.19.09.66.3,1.33.58l15.56,36.11-1.36,2.65c.32.17,1.38.69,3.13,1.45l28.51,66.19C153.05,423.56,214.5,430,251.25,430s98.19-6.44,101.68-30.26l65.95-153.08A18.31,18.31,0,0,0,423,235.28a17.24,17.24,0,0,0-1.84-7.72A18.92,18.92,0,0,0,432.52,210.23ZM342.27,381.6a73.76,73.76,0,0,0-18.19-7.74l8.33-28.3q13.24-1.95,27.34-4.54ZM151.84,273.39l6.85,20.28a295.68,295.68,0,0,1-40.31-9.17L109,262.59C121,267.14,135.87,270.68,151.84,273.39Zm18.85,2.77a673.14,673.14,0,0,0,76.56,4.94v18.7a555.64,555.64,0,0,1-69.76-3.5Zm93.53,23.28V281a660,660,0,0,0,71.08-5.26l-5.5,18.67C306,297.19,284.11,298.77,264.22,299.44Zm61.52,8.73-7.66,26c-19.46,2.5-37.41,4-53.86,4.65v-26C283,312.14,303.5,310.68,325.74,308.17Zm-85.47,5.06c2.29,0,4.63,0,7,0v26.09a447.44,447.44,0,0,1-56.2-2.81l-8.81-26.1A560.92,560.92,0,0,0,240.27,313.23Zm.92,39.46q3,0,6.06,0v12.57a335.4,335.4,0,0,0-45.3,3.56l-6.16-18.26C209.14,351.85,224.24,352.69,241.19,352.69Zm6.06,29.5V413c-11.41-.12-21.75-.77-31-1.75L207.44,385A309.13,309.13,0,0,1,247.25,382.19Zm17,.2a281.76,281.76,0,0,1,38.52,3.86l-7,23.82a294,294,0,0,1-31.51,2.73Zm0-16.94V352.19c15.32-.65,31.91-2,49.78-4.14L307.54,370A309.05,309.05,0,0,0,264.22,365.45ZM366.05,326.4q-15.26,3-29.52,5.18l7.56-25.67Q360,303.79,377,301Zm17.19-39.9q-18.15,3.19-35.06,5.53l5.57-18.9-.59-.18c15-2.65,29-6.05,40.38-10.36Zm-132-80.09c43,0,83.33,3.81,113.58,10.73,29.8,6.82,39.07,14.33,40.88,17.22L404.15,238c-3.85,3.56-14.41,9.75-39.32,15.44-1.26.29-2.57.57-3.86.84a18.92,18.92,0,1,0-28,4.81,588.86,588.86,0,0,1-61.73,4.79,18.92,18.92,0,1,0-30,.21,615.29,615.29,0,0,1-67.49-4.44,18.93,18.93,0,1,0-26.43-4.18c-3.32-.64-6.57-1.31-9.69-2-24.91-5.69-35.47-11.88-39.32-15.44l-1.56-3.62c1.81-2.89,11.08-10.4,40.88-17.22C167.91,210.22,208.24,206.41,251.25,206.41Zm-87.7,101.64,8.68,25.72A251.12,251.12,0,0,1,135.81,325l-10.6-24.61A339.2,339.2,0,0,0,163.55,308.05Zm13.55,40.14,8.05,23.86c-9.84,2.4-18.56,5.52-24.92,9.55L142.73,341A290.3,290.3,0,0,0,177.1,348.19ZM166.73,397.6c2.39-2.82,10.6-6.46,23.84-9.5l6.89,20.43C180.16,405.27,169.51,400.87,166.73,397.6Zm147.74,8.89L319.32,390c8.92,2.57,14.53,5.34,16.44,7.59C333.53,400.23,326.22,403.58,314.47,406.49Z" transform="translate(-67.48 -70)" fill="#242c4d"/></svg>