<svg id="Layer_1" data-name="Layer 1" xmlns="http://www.w3.org/2000/svg" viewBox="0 0 936.82 1000.77"><title>OLSPS OITrace Icons-02</title><path d="M392.16,242.22c-3.93,32.32-6.5,53.48-9.08,74.65l3.67,1.08c7.13-20.85,14.25-41.7,21.71-63.52l73.15,6.45c5.57,53.62,11.1,106.83,16.63,160l4.72.26c3-52.64,6-105.29,9.11-159.76,35.93-8.16,71.68-9.47,100.3,28.82,34.76,46.51,73.12,90.33,112,137.8C698,357.5,652.55,303.13,601.86,252.15c19.31-11.23,32.26-4.06,46.45,8.27,98.11,85.24,149,194.94,166.74,321.38,6.89,49.19,14.42,99,13.43,148.4C826.85,812,861.75,875.36,915,932.32c16.68,17.83,32.46,36.52,54.19,61.07-18.1,3.51-28.1,7.14-38.11,7.15q-435.16.47-870.33-.09c-9.46,0-18.92-5.12-28.37-7.85,4.31-8.83,7.17-18.83,13.18-26.28,26.9-33.31,56.38-64.65,81.78-99,38.56-52.23,34.51-115,38.22-175.5C170.65,609.39,181,528,210.73,450.18,239.48,374.82,284.52,311,346.52,259.7,357,251,373.18,249.2,392.16,242.22Z" transform="translate(-32.42 0)" fill="#073256" fill-rule="evenodd"/><path d="M433.78,175.47c-77.08,14.28-128-23-167.71-80.54-22.44-32.58-12.58-52.61,27.11-53,37.35-.41,74.76,4.93,113.24,7.82C449.3-24.36,559.26-8.74,585.61,51.23c32.19-3.67,64.37-10,96.53-9.95,17.87,0,41.84-2.53,53.59,16.49,0,24.72-9.69,38.49-21.28,51.92-19.37,22.44-41.63,45.7-67.67,58.1-23.77,11.31-54.18,8.66-85.14,12.62l4-38.6C554,181.87,523.65,182.12,489,182.64c-44.51.67-44.46-41.88-71.48-63.7Z" transform="translate(-32.42 0)" fill="#073256" fill-rule="evenodd"/><path d="M495.45,252c-42.36-6.23-83.63-12.84-125.06-18.18-21.93-2.83-18.76-18.19-18.58-32.54.22-17.2,12.53-14.7,23.79-14.68q120.33.19,240.66,0c11.06,0,23.72-3,23.86,14.43.1,14.16,3.94,29.78-18.18,32.65C579.67,239.12,537.55,245.79,495.45,252Z" transform="translate(-32.42 0)" fill="#073256" fill-rule="evenodd"/></svg>