<svg id="Layer_1" data-name="Layer 1" xmlns="http://www.w3.org/2000/svg" viewBox="0 0 986 997"><title>OLSPS OITrace Icons-03</title><polygon points="53.85 369.73 61.6 463 172 463 172 370.1 53.85 369.73" fill="#073256" fill-rule="evenodd"/><polygon points="62.55 484 171.59 484 181.23 592 73.67 592 62.55 484" fill="#073256" fill-rule="evenodd"/><polygon points="75.9 623 180.49 623 191.61 730 84.8 730 75.9 623" fill="#073256" fill-rule="evenodd"/><polygon points="87.03 762 191.61 762 203.11 869 98.15 869 87.03 762" fill="#073256" fill-rule="evenodd"/><polygon points="100.38 903 202.74 903 214.61 997 109.28 997 100.38 903" fill="#073256" fill-rule="evenodd"/><polygon points="190.84 369.73 199.57 463 308 463 308 370.1 190.84 369.73" fill="#073256" fill-rule="evenodd"/><polygon points="200.52 484 309.56 484 319.2 592 211.64 592 200.52 484" fill="#073256" fill-rule="evenodd"/><polygon points="213.87 623 318.46 623 329.58 730 222.77 730 213.87 623" fill="#073256" fill-rule="evenodd"/><polygon points="225 762 329.58 762 341.08 869 236.12 869 225 762" fill="#073256" fill-rule="evenodd"/><polygon points="238.35 903 340.71 903 352.58 997 247.25 997 238.35 903" fill="#073256" fill-rule="evenodd"/><polygon points="932.16 369.73 925.43 463 813 463 813 370.1 932.16 369.73" fill="#073256" fill-rule="evenodd"/><polygon points="924.48 484 815.44 484 805.79 592 913.35 592 924.48 484" fill="#073256" fill-rule="evenodd"/><polygon points="911.13 623 806.54 623 795.41 730 902.23 730 911.13 623" fill="#073256" fill-rule="evenodd"/><polygon points="900 762 795.41 762 783.91 869 888.87 869 900 762" fill="#073256" fill-rule="evenodd"/><polygon points="886.65 903 784.28 903 772.41 997 877.75 997 886.65 903" fill="#073256" fill-rule="evenodd"/><polygon points="795.18 369.73 787.46 463 677 463 677 370.1 795.18 369.73" fill="#073256" fill-rule="evenodd"/><polygon points="786.51 484 677.47 484 667.83 592 775.38 592 786.51 484" fill="#073256" fill-rule="evenodd"/><polygon points="773.16 623 668.57 623 657.44 730 764.26 730 773.16 623" fill="#073256" fill-rule="evenodd"/><polygon points="762.03 762 657.44 762 645.95 869 750.9 869 762.03 762" fill="#073256" fill-rule="evenodd"/><polygon points="748.68 903 646.32 903 634.45 997 739.78 997 748.68 903" fill="#073256" fill-rule="evenodd"/><path d="M988.55,290H924.18a633.12,633.12,0,0,0-91.37-119.13C790.91,128,744.86,93.84,696,69.31a440.51,440.51,0,0,0-56-23.42V5.39C640,2.94,637.85,1,637.15,1H358.09C357.38,1,356,2.94,356,5.39V47.13a452.65,452.65,0,0,0-52.91,22.16C253.54,93.8,206.57,128,163.48,170.78A658.75,658.75,0,0,0,68.73,290H11.45A4.31,4.31,0,0,0,7,294.27v57.87c0,2.45,2,4.86,4.45,4.86h977.1c2.46,0,4.45-2.41,4.45-4.86V294.27A4.31,4.31,0,0,0,988.55,290ZM90.11,290a645.84,645.84,0,0,1,86.06-106.45c41.71-41.46,87.09-74.48,134.9-98.13a435.91,435.91,0,0,1,45.72-19.48c.43.68.95,1.06,1.3,1.06H637.15a3.83,3.83,0,0,0,2.43-2.2,423.66,423.66,0,0,1,48,20.44C734.65,108.81,779,141.71,819.53,183A620,620,0,0,1,903,290Z" transform="translate(-7 -1)" fill="#073256"/><polygon points="327.23 371 482 371 482 463 332.34 463 327.23 371" fill="#073256" fill-rule="evenodd"/><polygon points="332.34 489 482 489 482 592 344.16 592 332.34 489" fill="#073256" fill-rule="evenodd"/><polygon points="482 623 482 730 356.62 730 341.49 623 482 623" fill="#073256" fill-rule="evenodd"/><polygon points="482 762 482 869 373.12 869 360.75 762 482 762" fill="#073256" fill-rule="evenodd"/><polygon points="374.68 903 482 903 482 997 383.24 997 374.68 903" fill="#073256" fill-rule="evenodd"/><polygon points="661.15 371 506 371 506 463 656.04 463 661.15 371" fill="#073256" fill-rule="evenodd"/><polygon points="656.04 489 506 489 506 592 644.22 592 656.04 489" fill="#073256" fill-rule="evenodd"/><polygon points="506 623 506 730 631.76 730 646.88 623 506 623" fill="#073256" fill-rule="evenodd"/><polygon points="506 762 506 869 615.26 869 627.63 762 506 762" fill="#073256" fill-rule="evenodd"/><polygon points="613.7 903 506 903 506 997 605.14 997 613.7 903" fill="#073256" fill-rule="evenodd"/></svg>