<?xml version="1.0" encoding="utf-8"?>
<!-- Generator: Adobe Illustrator 16.0.0, SVG Export Plug-In . SVG Version: 6.00 Build 0)  -->
<!DOCTYPE svg PUBLIC "-//W3C//DTD SVG 1.1//EN" "http://www.w3.org/Graphics/SVG/1.1/DTD/svg11.dtd">
<svg version="1.1" id="Layer_1" xmlns="http://www.w3.org/2000/svg" xmlns:xlink="http://www.w3.org/1999/xlink" x="0px" y="0px"
	 width="1000px" height="1000px" viewBox="0 0 1000 1000" enable-background="new 0 0 1000 1000" xml:space="preserve">
<path fill="#073256" d="M999.994,145c-96.553,0-197.438,0-293.99,0h-421.33c-41.696,0-83.387,0-125.082,0
	C106.595,145,53.458,145,0,145c0,48,0,84,0,120c333.328,0,664.466,0,999.994,0C1000.384,225,1000.285,209,999.994,145z"/>
<path fill="#073256" d="M46.831,319.166c26.696,158.892,53.31,317.842,80.585,476.564c7.816,45.484,33.154,58.666,66.24,58.575
	c205.983-0.582,411.968-0.252,617.956-0.635c42.144-0.077,60.056-19.107,69.076-72.104
	c19.635-115.343,38.908-230.858,58.262-346.277C946.584,389.741,954.04,344,962.159,295c-308.8,0-610.868,0-915.45,0
	C46.709,306,45.865,313.407,46.831,319.166z"/>
</svg>
