<svg id="Layer_1" data-name="Layer 1" xmlns="http://www.w3.org/2000/svg" viewBox="0 0 996.4 892.46"><title>OLSPS OITrace Icons-08</title><path d="M997.94,94c.13-28.2-7.35-38.82-37-38.69-225.52,1-451,.27-676.56,1.45-16.48.08-35.71,7.25-48.88,17.37C165.7,127.73,96.62,182.45,29.28,239.15c-12.61,10.62-22.82,31.9-23,48.35-1.55,206.07-.4,412.15-1.72,618.22-.21,31.81,10.84,39.34,40.51,39,120.52-1.37,241.07-.57,361.6-.56s241.07.83,361.58-.94c16.84-.24,37.16-9.31,49.6-21,51-47.83,98.57-99.33,149.54-147.21,21.56-20.25,30.7-41.25,30.56-70.71Q996.55,399.14,997.94,94ZM278.5,84.5H948.59c-39,40-74.91,70.21-104.34,106.27-38.36,47-82.39,63.55-143.7,61.37-139.49-4.95-279-1.35-422-1.35ZM247.62,443.7c-.2-27.51,11.55-40.73,39.11-40.66q120,.33,240,.16c28.12-.05,39.78,15.27,39,41.41-.76,26.65-14.92,39.41-42.12,38.93-38.7-.68-76.17-.17-116.17-.17v.14c-39,0-80-.3-120,.1C260.16,483.89,247.83,471.36,247.62,443.7Zm.88-345.33V250.5H69.76c-1.36-1-2.15-4.8-3.51-7.31C125.2,196.13,185.5,149.29,248.5,98.37Zm658.18,700c-32.55,26.37-57.87,61.65-86.44,92.94L810.16,885c-.7-10.83-2-21.67-2-32.5-.1-183.79.5-367.59-.62-551.38-.17-26.89,8-45.64,26.9-64.2,43-42.37,83.84-87,125.56-130.67l11.49,8c0,175.76-3.61,351.63,1.83,527.21C975.37,708.52,958.27,756.6,906.68,798.39Z" transform="translate(-3.1 -53.77)" fill="#073256" stroke="#073256" stroke-miterlimit="10" stroke-width="3" fill-rule="evenodd"/></svg>