<svg id="Layer_1" data-name="Layer 1" xmlns="http://www.w3.org/2000/svg" viewBox="0 0 990.19 982.7"><title>OLSPS OITrace Icons-07</title><path d="M962.18,705.76c-101.93-95-198.26-196-298.79-296.39,21.16-12.78,39.28-19.65,52-32.07Q830.59,264.54,943.5,149.43c30.16-30.8,34-72,15.59-109.76-13-26.78-29.87-37-61.87-29.69-172,39.35-344.58,75.91-516.6,115-19,4.32-38.81,15.65-52.81,29.3-86.64,84.56-168.64,174.15-258.53,255-51.35,46.18-72.8,96-61.86,161.47,2.45,14.64,7.54,31.76,17.44,41.79Q205.76,796,389.28,976.74c9.46,9.31,29.2,15.72,42,13,179.84-38,359.33-77.68,538.76-117.6,8.41-1.87,22.36-10.25,22.08-14.89C989,805.8,1012.24,752.41,962.18,705.76Zm-168.5-451c-32.32,32.09-64.29,64.51-96.62,96.59-24,23.82-50.49,27.55-84,7.39,17.28-18.09,32.81-34.88,48.91-51.09,46-46.28,94-90.66,137.67-139,32.37-35.87,74-36,119.24-37.54Q856.26,192.86,793.68,254.72ZM623.09,102.88q131.77-29,263.7-57.25c15.7-3.34,36.39-14.2,42.35,12.11,5.55,24.5-13.31,31.82-32.43,36q-220.26,48.3-440.64,96.05c-28.35,6.1-50.18-4.22-65.24-35.18C469.82,137,546.41,119.76,623.09,102.88ZM403.65,839.4C302.19,739.87,202.11,638.93,101.8,538.23c-1.49-1.5-1.41-4.55-.21-.26C214,440.46,319.37,341,407.9,228.6l358.57-71.71C701.91,221.64,645.09,279.45,587,335.94c-8,7.74-22,10.23-33.79,12.86-98.63,22.14-197.39,43.75-296.47,65.6-3.57,32.3,13.56,29.54,33.64,25,79.49-17.82,159.11-35.1,238.71-52.44,13-2.82,26.14-4.91,39.09-7.32,12.84,68.81,12.43,69.78-50.84,83.77C411.25,486.9,305.11,510,199,533.33c-10.67,2.34-21.17,5.43-32.05,8.24-2.91,28.38,11.21,29,31.35,24.49,113.26-25.2,226.93-48.6,339.81-75.4,32.33-7.68,54-3.76,77.92,21.36,72.32,76,147.73,149.13,221.38,222.83,31.12-10.39,22.28-23.33,6.5-39C772.81,625.4,703.16,553.4,630.8,484.23c-23.8-22.76-28.95-45.85-23.41-70.53L933.9,741c-42,9.31-90.13,18.19-137.06,31.31-16.81,4.7-34.46,16.73-45.25,30.49-23.27,29.68-54.05,36.37-87.72,17.81-13.51-7.44-32.3-11.85-47.15-9.15C558.47,822.08,501,837,442.82,848,430.48,850.32,411.88,847.48,403.65,839.4Zm515,12.17Q687.07,902,455.52,952.32c-7.09,1.53-14.38,2.15-25.59,3.79-.64-14.19-.12-24.06-1.68-33.59-4.75-28.87,6.68-42.18,36-46.54,36.54-5.43,72.39-15.43,108.57-23.31,33.41-7.28,64.48-15.15,99.53,4.21s67.9,1.4,96.76-25.22c16-14.72,36.89-26.87,57.69-33,42.37-12.4,86.18-19.91,129-29.35C976.54,824.84,969,840.59,918.61,851.57Z" transform="translate(-4.64 -7.68)" fill="#073256" fill-rule="evenodd"/></svg>