<svg id="Layer_1" data-name="Layer 1" xmlns="http://www.w3.org/2000/svg" viewBox="0 0 733.97 1001.58"><title>OLSPS OITrace Icons-05</title><path d="M500.56,1001.58a798.49,798.49,0,0,1-187.22-22.2c-29.33-7.08-51.55-23.61-72-53.61-59.5-87.07-90.71-189.64-101.2-332.57C129,442,139.48,308,172.14,183.71l3.42-13,16.72,9.19c26.08,14.35,50.72,27.91,78.42,36.05,66.77,19.6,138.21,28.73,224.83,28.73h0c33.51,0,69-1.33,111.75-4.2,87.85-5.89,155.09-25.75,211.63-62.48l11.89-7.73,3.92,13.63c23.56,82,28.47,167.3,33.22,249.8,6.62,115-4.68,230.86-33.57,344.49-7.65,30.09-19.8,60-37.14,91.56-13.92,25.31-31,51.4-53.84,82.11-16.08,21.65-42.24,26.7-65.32,31.16l-5.9,1.15A878.76,878.76,0,0,1,500.56,1001.58ZM189.11,202.11c-29.42,118.37-38.6,246-28.07,389.55,10.2,139,40.3,238.43,97.59,322.27,17.34,25.38,35.74,39.27,59.64,45a777.39,777.39,0,0,0,182.29,21.61,858.55,858.55,0,0,0,167.52-17c2-.4,4-.78,6-1.18,20.28-3.91,41.24-8,52.45-23.06,60.91-82,78.75-132,87.49-166.32C842.4,661.46,853.49,547.7,847,434.9,838.54,288,828.4,239.53,818.35,203.08c-57.08,34-124.15,52.61-209.64,58.34-43.21,2.9-79.17,4.25-113.16,4.25h0c-88.68,0-162-9.4-230.75-29.58C237.55,228.09,212.88,215.14,189.11,202.11Zm306,396.53h0c-12.53,0-23.9-.37-34.77-1.14-29-2-51.46-14.55-63.21-35.2s-11.07-46.5,2-72.55c2.31-4.59,4.76-9.14,7.13-13.54,4.88-9.07,9.49-17.63,13-26.59a109.3,109.3,0,0,1,6.82-13.7c7.21-12.88,11.56-20.65-.31-36.83-12-16.37-9.24-40.77-6.55-64.36,1-9,2-17.57,2.15-25.4.16-8.53,4.17-15.15,11.29-18.65,5.14-2.53,10.88-2.91,15.81-2.95,5.66-.05,11.78-.07,19.25-.07h13.4l13.37,0h5.25c32.07,0,51.43,0,62.87,12s10.68,31.79,9.1,67.61a36.72,36.72,0,0,0,1.08,6.93c1.56,7.4,3.69,17.54-2.21,26.51-3,4.58-7.51,8-13.65,10.24.47.71.92,1.37,1.26,1.87.73,1.06,1.42,2.07,2,3,11.47,18.22,23.93,36.36,36,53.9l7.51,10.93c12.7,18.41,28.5,41.31,11.8,71-16.09,28.64-40.31,44-72,45.53C529.33,597.92,512.44,598.64,495.12,598.64Zm-52.71-289.3c0,.11,0,.24,0,.39-.17,8.82-1.24,18.25-2.28,27.38-2.22,19.57-4.53,39.81,2.62,49.56,19.86,27.07,9.37,45.82,1.71,59.51a93.11,93.11,0,0,0-5.6,11.09c-4,10.14-9.1,19.68-14.06,28.89-2.3,4.28-4.68,8.69-6.86,13-9.84,19.58-10.74,38.3-2.53,52.73S440,575,461.82,576.55c10.37.73,21.26,1.09,33.29,1.09h0c16.87,0,33.43-.71,47.4-1.4,24.32-1.21,42.22-12.6,54.71-34.84,9.8-17.44,2.67-29.32-10.78-48.81l-7.53-11c-12.17-17.72-24.76-36-36.46-54.61-.43-.69-1-1.48-1.57-2.35-4.3-6.29-10.2-14.91-6.71-23.5,1.07-2.64,4-7.29,11.21-8.75,6.07-1.22,7.46-2.94,7.68-3.27,1.09-1.65,0-6.84-.8-10.63a49.11,49.11,0,0,1-1.51-12.19c1.19-27,2-46.58-3.29-52.16s-24.92-5.48-47.7-5.48h-5.24l-13.41,0H467.75c-7.41,0-13.47,0-19.07.07A22.92,22.92,0,0,0,442.41,309.34Z" transform="translate(-135.83 0)" fill="#073256"/><path d="M824.65,186.79C758.79,229.59,684,245.85,608,251,493.87,258.6,379.42,258.8,267.74,226c-30.63-9-57.87-24.48-85.44-39.63-17.33-21.93-19.23-42.39-11-71.79C193.22,37,253.45,34.18,316.51,19.94,387.76,3.84,458.66-1.67,530.13.43,613.69,2.88,698.05,5.9,777.69,37.21,840.06,61.73,862,131.93,824.65,186.79Z" transform="translate(-135.83 0)" fill="#073256" fill-rule="evenodd"/><path d="M494.52,298.19c69-.05,69.76,0,66.73,68.6-.51,11.48,12.48,30.64-13.79,35.92-9.12,1.84.49,13.3,3.89,18.71,13.37,21.25,27.74,41.87,41.94,62.58,13.08,19.07,27.23,37.39,13.1,62.54S571.17,585.33,543,586.72c-27.27,1.36-54.77,2.22-82,.3-52.89-3.73-76.09-45.73-52.54-92.55,6.87-13.67,15-26.85,20.52-41,7.42-18.95,25.78-32.53,5.21-60.57-13.55-18.47-2.92-54.95-2.38-83.35.2-10.14,8.72-11.24,16.7-11.3C463.9,298.1,479.21,298.19,494.52,298.19ZM495,407.86c-18.84,38.46-35.07,70.48-50.26,103-9.31,19.93-4.44,35.45,19.52,36.78,27.16,1.5,54.7,1.8,81.68-1.07,22.06-2.35,30.55-17,17.44-37.34C542.37,476.62,520.08,444.82,495,407.86Z" transform="translate(-135.83 0)" fill="#073256" fill-rule="evenodd"/></svg>