<svg id="Layer_1" data-name="Layer 1" xmlns="http://www.w3.org/2000/svg" viewBox="0 0 992.36 273.85"><title>OLSPS OITrace Icons-041</title><path d="M244.14,460.83C180.2,439.93,123.08,421,65.76,402.6,13.81,386,8.51,379.41,7.76,325.66Q7.57,311,7.7,296.35c.35-32.26,9.45-39.14,41-28.85,76.79,25.08,153.37,50.8,230.05,76.23,27.76,9.2,55.18,19.85,83.52,26.65,10.32,2.48,24.13-1.91,34.21-7.22C516.4,300,643.64,270.26,779.1,279.29c64.12,4.27,125.51,17.4,183.19,49.74,52.53,29.46,49.2,118.26-3.89,145.78-62.9,32.59-129.71,41.81-198.28,44.37-119.39,4.46-235.1-18.06-348.88-51.94-17-5.05-28.36-7.72-38,13.05-3.61,7.78-26.68,14.86-35.15,10.67-45.47-22.42-79.76-8.61-110.26,26.54-4.6,5.3-10.09,10.57-16.28,13.57-6.86,3.32-15,4-22.58,5.86.76-9-1.07-19.45,3-26.62,5-8.87,14.72-15.09,22.52-22.34C222.74,480.26,231.16,472.68,244.14,460.83Zm140.91-41.94c37.69,10.37,68.56,19.62,99.81,27.34,126.86,31.33,255,47,384.26,18.58,34.3-7.56,66.46-26.92,98.07-43.74,19.34-10.28,18.91-29.08,1.42-40.62-24.77-16.35-50.63-34.19-78.65-42C720.51,291.3,560,320.73,406.6,401.11,400.9,404.1,396.41,409.4,385.05,418.89Z" transform="translate(-7.64 -263.07)" fill="#073256" fill-rule="evenodd"/></svg>