<?xml version="1.0" encoding="utf-8"?>
<!-- Generator: Adobe Illustrator 16.0.0, SVG Export Plug-In . SVG Version: 6.00 Build 0)  -->
<!DOCTYPE svg PUBLIC "-//W3C//DTD SVG 1.1//EN" "http://www.w3.org/Graphics/SVG/1.1/DTD/svg11.dtd">
<svg version="1.1" id="Layer_1" xmlns="http://www.w3.org/2000/svg" xmlns:xlink="http://www.w3.org/1999/xlink" x="0px" y="0px"
	 width="1000px" height="1000px" viewBox="0 0 1000 1000" enable-background="new 0 0 1000 1000" xml:space="preserve">
<path fill-rule="evenodd" clip-rule="evenodd" fill="#073256" d="M237.65,561.13C173.4,540.12,116,521.05,58.4,502.62
	C6.2,485.9,0.87,479.31,0.12,425.3c-0.14-9.82-0.17-19.63-0.06-29.45c0.35-32.42,9.49-39.33,41.19-28.99
	c77.16,25.2,154.11,51.04,231.16,76.6c27.89,9.25,55.45,19.95,83.92,26.79c10.38,2.49,24.25-1.92,34.38-7.26
	c120.51-63.45,248.36-93.35,384.48-84.28c64.43,4.29,126.11,17.49,184.08,49.99c52.78,29.6,49.44,118.83-3.91,146.48
	c-63.2,32.75-130.34,42.02-199.24,44.59c-119.96,4.48-236.24-18.15-350.57-52.19c-17.05-5.07-28.5-7.76-38.17,13.11
	c-3.63,7.82-26.8,14.94-35.32,10.73c-45.68-22.54-80.14-8.65-110.79,26.66c-4.62,5.33-10.14,10.63-16.36,13.64
	c-6.9,3.34-15.07,4.04-22.69,5.88c0.77-9.04-1.07-19.54,2.96-26.75c4.99-8.91,14.8-15.16,22.63-22.44
	C216.14,580.65,224.61,573.04,237.65,561.13z M379.24,518.98c37.88,10.43,68.89,19.71,100.29,27.47
	c127.47,31.48,256.28,47.27,386.13,18.67c34.46-7.59,66.78-27.05,98.54-43.95c19.43-10.33,19-29.22,1.43-40.82
	c-24.89-16.43-50.88-34.36-79.03-42.19c-170.27-47.39-331.57-17.81-485.7,62.96C395.16,504.12,390.65,509.45,379.24,518.98z"/>
</svg>
