<svg id="Layer_1" data-name="Layer 1" xmlns="http://www.w3.org/2000/svg" viewBox="0 0 994.14 415.41"><title>OLSPS OITrace Icons-06</title><path d="M993.78,480.74c-6.52-6.23-14-12.1-22.19-15.79-24.26-11-48.57-22.24-73.7-31-76.57-26.62-156-39.58-236.46-47-3.39-.31-5.13-1.58-7-4.28-12.59-17.85-25-35.86-38.35-53.12a113.53,113.53,0,0,0-33.6-29.68c-5.52-3.13-11.74-5-18-7.58a21,21,0,0,0-.81,2.7c0,.84,0,1.67,0,2.51,1.22,37.78-11.61,70.65-35.09,99.71a10,10,0,0,1-6.07,3.36c-21.22,2.31-42.62,3.42-63.71,6.64-52.27,8-104.4,16.89-156.61,25.26-2.29.36-5-.64-7.26-1.58-5.47-2.28-10.79-4.89-16.29-7.42-3.53,12-8.93,20.77-22.19,21a30.79,30.79,0,0,0-5.44.86q-46.14,9.12-92.27,18.25c-2.53.5-4.73,1.3-7-1.57-17.1-21.45-38.46-37.86-62.16-51.35a305.49,305.49,0,0,0-69.82-29,21.61,21.61,0,0,0,1.93,2c20.95,15.46,35.09,35.95,43.93,60.17,8,21.88,12.6,44.24,8,67.71a193.49,193.49,0,0,1-5,19.69c-2.34-1.56-4.72-3.07-7.12-4.55A241.27,241.27,0,0,0,4.17,501a19.53,19.53,0,0,0,1.58,1.79c17.21,13.69,28.84,31.84,36.1,53.3a164.29,164.29,0,0,1,6.33,24.13c-3.5,6.82-7.29,13.53-11.13,20.66,1.26-.07,2.05-.05,2.82-.18q5.12-.87,10-2.23A93.46,93.46,0,0,1,48.43,616c-3.79,21-11.33,40.39-20.18,59.31-3.06,6.57-6.44,13-9.86,19.81,1-.07,1.69,0,2.32-.16,13.62-2.49,25.91-8.45,37.24-16.82,22.14-16.37,39-38.06,52.56-62.68,3.74-6.8,7-8.32,14.49-7.46,51.8,6,103.68,11.16,155.55,16.38,16,1.61,32,2.56,48,3.87,4.53.37,6.32,2.26,6.95,7,.13,1,.14,2,.23,3.35,7.13-1,13.83-1.88,19.27-7.23.87-.85,2.65-1,3.95-.88,25.62,2.94,51.2,6.47,76.86,8.84,24.87,2.3,49.82,3.42,74.74,5.09,4.46.3,6.12,2.46,5.08,7.14A22,22,0,0,1,507.43,665c-1.44,1.09-2.38,3-3.55,4.51,1.76.9,3.49,1.86,5.29,2.66a3.68,3.68,0,0,0,2,.17c5.42-.89,10.83-1.83,16.38-2.78.26,10.29-3.4,20-8.54,29.27-1.31,2.38-2.42,4.89-3.62,7.35,2.87.52,5.75,1,8.62,1.54a2.13,2.13,0,0,0,.82-.1c33.17-6.26,58.95-24.53,76.88-55.33,1.71-2.94,3.37-3.85,6.46-3.8a398.62,398.62,0,0,0,131.06-19.54,91.87,91.87,0,0,0,8.92-3.32c6.06-2.74,6.44-6.37,1.23-10.54-1-.83-2.11-1.62-2.56-2,10-.43,20.48-.23,30.77-1.54a93.49,93.49,0,0,0,23.8-6.24c7.67-3.2,9-10.43,3-16.56-5.35-5.52-11.54-10.72-18.23-14-13.58-6.66-27.2-13.38-41-19.44.63-1,1.25-1.92,1.87-2.9,2.08-3.32,4.1-4.35,7.87-4.29a520.2,520.2,0,0,0,159.51-22.06,114.07,114.07,0,0,0,10.86-3.75c7.38-3.09,7.84-7.18,1.5-11.89-1.27-.94-2.57-1.83-3.11-2.22,12.19-.49,24.92-.26,37.44-1.74a120.05,120.05,0,0,0,29-7.05C999.44,495.83,1001,487.66,993.78,480.74ZM236.23,546c-1.88.32-4.1-.57-6-1.4-4.49-2-8.86-4.33-13.38-6.57-2.9,10.67-7.34,18.4-18.23,18.58a23.88,23.88,0,0,0-4.47.76l-75.81,16.17c-2.08.44-3.88,1.15-5.77-1.4s-3.94-5.13-6-7.58c16.83-15.53,30.73-33.74,42.57-53.65,4.56-7.68,8.57-9.4,17.64-8.42,63,6.75,126.19,12.59,189.33,18.49,5.68.54,11.36,1,17.05,1.42-2.76.38-5.53.77-8.29,1.22C322,530.68,279.13,538.58,236.23,546Z" transform="translate(-4.17 -292.29)" fill="#073256" fill-rule="evenodd"/></svg>