<svg id="Layer_1" data-name="Layer 1" xmlns="http://www.w3.org/2000/svg" viewBox="0 0 931.64 616.33"><title>Shark</title><path d="M991.47,324.22c-2-14.64-2-106.5-28-90.53,0,0-122.48,59.25-147.11,108.51-8.6,17.2-45.07,50.74-98,88.43-16.68-21.71-47.15-59-61.71-61.81-20.63-4-65.9-10-63.24-3.33s28,43.94,26.63,53.92c-.82,6.16-6.2,48.3-10.21,79.68-46.82,26.22-98.23,51-150.6,70.53-19.13-3.89-47.54-9.3-47.54-7.09,0,1.65,1.47,12.13,2.95,22.29-30.53,9.4-61,16.65-90.82,21,0,0-121.82-145.78-245-177.73,0,0,103.85,202.36,102.51,209S138.75,732.94,74.18,786.2c0,0,100.52,10,233-117.16,0,0,22.26,2.77,57.54,6.29-1,5.61-1.49,11.37-.3,15.68,2.31,8.3,28.29-3.55,44-11.6,36.64,3.19,80.07,6.39,124.81,8.4,12.74,15.42,38.62,31.33,32.87,44.47-9.32,21.3-33.28,63.9-25.29,65.9,6.84,1.71,101.66-84.56,128.66-109.28,63.65-2.63,117.18-10.92,140.93-29.18l3.29-2.51c22.13,15.92,69.25,55.39,91.24,102.36,29.29,62.57,30.62,100.52,41.27,85.21s12-171.08-14-217c-6.63-11.74-14.18-24.29-21.73-36.49,50.62-33.53,90.81-63.08,84.3-86.66-10.65-38.61-12.65-72.56,4.66-99.85S993.47,338.87,991.47,324.22Z" transform="translate(-74.18 -231.83)" fill="#086178"/></svg>